<svg width="20" height="20" viewBox="0 0 20 20" fill="none" xmlns="http://www.w3.org/2000/svg">
<path fill-rule="evenodd" clip-rule="evenodd" d="M0.32698 1.63803C0 2.27976 0 3.11984 0 4.8V15.2C0 16.8802 0 17.7202 0.32698 18.362C0.614601 18.9265 1.07354 19.3854 1.63803 19.673C2.27976 20 3.11984 20 4.8 20H15.2C16.8802 20 17.7202 20 18.362 19.673C18.9265 19.3854 19.3854 18.9265 19.673 18.362C20 17.7202 20 16.8802 20 15.2V4.8C20 3.11984 20 2.27976 19.673 1.63803C19.3854 1.07354 18.9265 0.614601 18.362 0.32698C17.7202 0 16.8802 0 15.2 0H4.8C3.11984 0 2.27976 0 1.63803 0.32698C1.07354 0.614601 0.614601 1.07354 0.32698 1.63803ZM12.4249 5.10728C11.7934 5.07911 11.6033 5.07207 9.99766 5.07207C8.39203 5.07207 8.20189 5.07911 7.57044 5.10728C6.98593 5.1331 6.66668 5.23169 6.45541 5.31385C6.17607 5.42183 5.97654 5.55094 5.76527 5.76221C5.55635 5.97113 5.4249 6.173 5.31692 6.45235C5.23476 6.66361 5.13617 6.98052 5.11035 7.56737C5.08218 8.19882 5.07513 8.38896 5.07513 9.9946C5.07513 11.5979 5.08218 11.788 5.11035 12.4218C5.13617 13.0063 5.23476 13.3256 5.31692 13.5368C5.4249 13.8162 5.55401 14.0157 5.76527 14.227C5.97419 14.4359 6.17607 14.5674 6.45541 14.6753C6.66668 14.7575 6.98358 14.8561 7.57044 14.8819C8.20189 14.9101 8.39203 14.9171 9.99766 14.9171C11.6009 14.9171 11.7911 14.9101 12.4249 14.8819C13.0094 14.8561 13.3286 14.7575 13.5399 14.6753C13.8193 14.5674 14.0188 14.4383 14.23 14.227C14.439 14.0181 14.5704 13.8162 14.6784 13.5368C14.7606 13.3256 14.8592 13.0087 14.885 12.4218C14.9131 11.7904 14.9202 11.6002 14.9202 9.9946C14.9202 8.39131 14.9131 8.20117 14.885 7.56737C14.8592 6.98286 14.7606 6.66361 14.6784 6.45235C14.5704 6.173 14.4413 5.97347 14.23 5.76221C14.0211 5.55329 13.8193 5.42183 13.5399 5.31385C13.3286 5.23169 13.0117 5.1331 12.4249 5.10728ZM7.52114 4.02512C8.16198 3.99695 8.36621 3.98991 9.99766 3.98991C11.6291 3.98991 11.8333 3.99695 12.4765 4.02747C13.115 4.05564 13.5516 4.15892 13.9343 4.30681C14.3286 4.45939 14.6643 4.66596 14.9977 4.9993C15.3333 5.33263 15.5376 5.66831 15.6854 6.06737C15.8333 6.44765 15.9366 6.88662 15.9648 7.52512C15.993 8.16596 16 8.37018 16 10.0016C16 11.6331 15.993 11.8373 15.9648 12.4782C15.9366 13.1167 15.8333 13.5533 15.6854 13.9359C15.5329 14.3303 15.3263 14.666 14.993 14.9993C14.6596 15.3326 14.3239 15.5392 13.9296 15.6918C13.5493 15.8397 13.1103 15.9429 12.4718 15.9711C11.831 15.9993 11.6268 16.0063 9.99531 16.0063C8.36386 16.0063 8.15964 15.9993 7.51879 15.9711C6.8803 15.9429 6.44368 15.8397 6.06105 15.6918C5.66668 15.5392 5.331 15.3326 4.99767 14.9993C4.66199 14.666 4.45776 14.3303 4.30283 13.9336C4.15495 13.5533 4.05166 13.1143 4.02349 12.4758C3.99532 11.835 3.98828 11.6307 3.98828 9.99929C3.98828 8.36784 3.99532 8.16361 4.02349 7.52042C4.05166 6.88192 4.15495 6.4453 4.30283 6.06268C4.45776 5.66831 4.66199 5.33263 4.99767 4.9993C5.331 4.66362 5.66668 4.45939 6.0634 4.30446C6.44368 4.15658 6.88264 4.05329 7.52114 4.02512ZM9.99766 6.91248C8.29343 6.91248 6.91081 8.2951 6.91081 9.99933C6.91081 11.7035 8.29343 13.0862 9.99766 13.0862C11.7019 13.0862 13.0845 11.7035 13.0845 9.99933C13.0845 8.2951 11.7019 6.91248 9.99766 6.91248ZM9.99766 12.0017C8.89202 12.0017 7.99531 11.105 7.99531 9.99933C7.99531 8.89369 8.89202 7.99698 9.99766 7.99698C11.1033 7.99698 12 8.89369 12 9.99933C12 11.105 11.1033 12.0017 9.99766 12.0017ZM13.2065 7.51102C13.6032 7.51102 13.9272 7.18942 13.9272 6.79036C13.9272 6.39365 13.6032 6.0697 13.2065 6.0697C12.8098 6.0697 12.4858 6.3913 12.4858 6.79036C12.4858 7.18707 12.8074 7.51102 13.2065 7.51102Z" fill="#0D009D"/>
</svg>
