<svg width="20" height="20" viewBox="0 0 20 20" fill="none" xmlns="http://www.w3.org/2000/svg">
<path fill-rule="evenodd" clip-rule="evenodd" d="M0.32698 1.63803C0 2.27976 0 3.11984 0 4.8V15.2C0 16.8802 0 17.7202 0.32698 18.362C0.614601 18.9265 1.07354 19.3854 1.63803 19.673C2.27976 20 3.11984 20 4.8 20H15.2C16.8802 20 17.7202 20 18.362 19.673C18.9265 19.3854 19.3854 18.9265 19.673 18.362C20 17.7202 20 16.8802 20 15.2V4.8C20 3.11984 20 2.27976 19.673 1.63803C19.3854 1.07354 18.9265 0.614601 18.362 0.32698C17.7202 0 16.8802 0 15.2 0H4.8C3.11984 0 2.27976 0 1.63803 0.32698C1.07354 0.614601 0.614601 1.07354 0.32698 1.63803ZM4.18057 15.993H6.70265V7.99805H4.18057V15.993ZM4.6375 6.64255C4.87457 6.80237 5.15377 6.88851 5.43986 6.89012C5.63138 6.89404 5.82173 6.85944 5.99956 6.78838C6.17739 6.71733 6.33907 6.61127 6.47495 6.47653C6.61084 6.34178 6.71815 6.18112 6.79049 6.00411C6.86284 5.8271 6.89873 5.63736 6.89603 5.44621C6.89626 5.1607 6.81173 4.88152 6.65312 4.64391C6.4945 4.40629 6.26892 4.2209 6.00482 4.11111C5.74073 4.00132 5.44996 3.97207 5.16922 4.02704C4.88848 4.08201 4.63035 4.21874 4.42741 4.41998C4.22446 4.62121 4.0858 4.87794 4.02891 5.15775C3.97203 5.43756 3.99947 5.72791 4.10779 5.99217C4.2161 6.25643 4.40043 6.48274 4.6375 6.64255ZM13.4779 16H15.9988L16 11.0544C16 8.61305 14.4798 7.77949 13.0725 7.77949C11.7713 7.77949 10.9186 8.62002 10.6751 9.11179H10.6425V8.00386H8.21707V16H10.7392V11.6648C10.7392 10.5092 11.4731 9.94651 12.221 9.94651C12.9292 9.94651 13.4779 10.3441 13.4779 11.6322V16Z" fill="white"/>
</svg>
