<svg width="29" height="30" viewBox="0 0 29 30" fill="none" xmlns="http://www.w3.org/2000/svg">
<path fill-rule="evenodd" clip-rule="evenodd" d="M5.02555 22.5847C4.47431 23.1391 4.47623 24.0357 5.03009 24.5876C5.55695 25.1124 6.39326 25.1362 6.94803 24.6601C6.97656 24.6356 7.00429 24.61 7.03127 24.5827L24.5522 6.96701C25.1033 6.41267 25.1013 5.51601 24.5476 4.96429C24.0208 4.43941 23.1845 4.41562 22.6296 4.89163C22.6011 4.91609 22.5733 4.94186 22.5464 4.96895L5.02555 22.5847Z" fill="white"/>
<path fill-rule="evenodd" clip-rule="evenodd" d="M6.98105 5.01421C6.42674 4.46289 5.5301 4.46493 4.97829 5.01875C4.45344 5.54554 4.42969 6.38181 4.90563 6.93672C4.93007 6.96525 4.95593 6.99293 4.98295 7.01996L22.5989 24.5408C23.153 25.0921 24.0497 25.09 24.6014 24.5361C25.1264 24.0094 25.1501 23.1731 24.6742 22.6183C24.6497 22.5898 24.6239 22.562 24.5968 22.535L6.98105 5.01421Z" fill="white"/>
</svg>
