<svg width="30" height="30" viewBox="0 0 30 30" fill="none" xmlns="http://www.w3.org/2000/svg">
<path d="M15 10.3127C15 9.31818 15.3951 8.36435 16.0984 7.66109C16.8016 6.95783 17.7555 6.56274 18.75 6.56274H26.25C26.4987 6.56274 26.7371 6.66152 26.9129 6.83733C27.0888 7.01315 27.1875 7.2516 27.1875 7.50024V22.5002C27.1875 22.7489 27.0888 22.9873 26.9129 23.1632C26.7371 23.339 26.4987 23.4377 26.25 23.4377H18.75C17.7555 23.4377 16.8016 23.8328 16.0984 24.5361C15.3951 25.2394 15 26.1932 15 27.1877" stroke="white" stroke-width="1.5" stroke-linecap="round" stroke-linejoin="round"/>
<path d="M15 13.5315V17.7502V20.969" stroke="white" stroke-opacity="0.6" stroke-width="1.5" stroke-linecap="round" stroke-linejoin="round"/>
<path d="M15 27.1877C15 26.1932 14.6049 25.2394 13.9017 24.5361C13.1984 23.8328 12.2446 23.4377 11.25 23.4377H3.75003C3.50139 23.4377 3.26293 23.339 3.08712 23.1632C2.9113 22.9873 2.81253 22.7489 2.81253 22.5002V7.50024C2.81253 7.2516 2.9113 7.01315 3.08712 6.83733C3.26293 6.66152 3.50139 6.56274 3.75003 6.56274H11.25C12.2446 6.56274 13.1984 6.95783 13.9017 7.66109C14.6049 8.36435 15 9.31818 15 10.3127" stroke="white" stroke-width="1.5" stroke-linecap="round" stroke-linejoin="round"/>
</svg>
