<svg width="30" height="30" viewBox="0 0 30 30" fill="none" xmlns="http://www.w3.org/2000/svg">
<path d="M17.7625 5.40099C16.5189 6.06224 15.5428 7.13377 15 8.43341C14.4572 7.13377 13.481 6.06224 12.2375 5.40099C10.9939 4.73974 9.55973 4.52959 8.17874 4.80627C6.79774 5.08295 5.5552 5.82938 4.66236 6.91866C3.76952 8.00794 3.28149 9.37282 3.28125 10.7813C3.28125 18.75 15 25.3125 15 25.3125C15 25.3125 17.0873 24.1436 19.5 22.1935" stroke="white" stroke-width="1.5" stroke-linecap="round" stroke-linejoin="round"/>
<path d="M21.8212 4.80615C23.2022 5.08283 24.4447 5.82927 25.3376 6.91854C26.2304 8.00782 26.7184 9.37271 26.7187 10.7811C26.7187 13.8606 24.9686 16.7301 22.8211 19.092" stroke="white" stroke-opacity="0.6" stroke-width="1.5" stroke-linecap="round" stroke-linejoin="round"/>
</svg>
