<svg width="30" height="30" viewBox="0 0 30 30" fill="none" xmlns="http://www.w3.org/2000/svg">
<path d="M19.7273 9.29983C19.417 9.0255 18.943 9.0547 18.6687 9.36505C18.3943 9.67539 18.4235 10.1494 18.7339 10.4237L19.7273 9.29983ZM21.7482 14.0826L22.4784 13.9116L22.4784 13.9116L21.7482 14.0826ZM6.26093 18.1062L6.98339 17.9049L6.26093 18.1062ZM6.43525 13.1861L7.14156 13.4383L6.43525 13.1861ZM9.83927 9.90219C10.1791 9.66539 10.2627 9.19792 10.0258 8.85807C9.78904 8.51822 9.32157 8.43469 8.98172 8.6715L9.83927 9.90219ZM18.7339 10.4237C19.871 11.4289 20.6699 12.7676 21.0179 14.2536L22.4784 13.9116C22.0598 12.1243 21.0984 10.5118 19.7273 9.29983L18.7339 10.4237ZM21.0179 14.2536C21.3659 15.7396 21.2453 17.2973 20.6734 18.7091L22.0636 19.2723C22.7521 17.5728 22.897 15.6988 22.4784 13.9116L21.0179 14.2536ZM20.6734 18.7091C20.1015 20.1208 19.1072 21.3153 17.8306 22.1269L18.6352 23.3928C20.1769 22.4127 21.3751 20.9719 22.0636 19.2723L20.6734 18.7091ZM17.8306 22.1269C16.554 22.9383 15.0583 23.3268 13.552 23.2386L13.4643 24.736C15.2856 24.8427 17.0935 24.3728 18.6352 23.3928L17.8306 22.1269ZM13.552 23.2386C12.0457 23.1504 10.6028 22.5899 9.42501 21.6341L8.47982 22.7989C9.90053 23.9518 11.6431 24.6294 13.4643 24.736L13.552 23.2386ZM9.42501 21.6341C8.2471 20.6783 7.39309 19.3747 6.98339 17.9049L5.53847 18.3076C6.03131 20.0757 7.05921 21.646 8.47982 22.7989L9.42501 21.6341ZM6.98339 17.9049C6.57367 16.435 6.62908 14.8733 7.14156 13.4383L5.72894 12.9338C5.11213 14.661 5.04565 16.5396 5.53847 18.3076L6.98339 17.9049ZM7.14156 13.4383C7.65401 12.0033 8.59757 10.7674 9.83927 9.90219L8.98172 8.6715C7.48254 9.71613 6.34577 11.2066 5.72894 12.9338L7.14156 13.4383Z" fill="white" fill-opacity="0.6"/>
<path d="M14.0352 16.2887C14 9 13 4 20.7884 4" stroke="white" stroke-width="1.5" stroke-linecap="round" stroke-linejoin="round"/>
<path d="M16.7126 14.262L13.9933 17.0187L11.2367 14.2995" stroke="white" stroke-width="1.5" stroke-linecap="round" stroke-linejoin="round"/>
</svg>
