<svg width="30" height="30" viewBox="0 0 30 30" fill="none" xmlns="http://www.w3.org/2000/svg">
<mask id="mask0_844_521" style="mask-type:alpha" maskUnits="userSpaceOnUse" x="0" y="0" width="30" height="30">
<rect width="30" height="30" fill="#FFFFFF"/>
</mask>
<g mask="url(#mask0_844_521)">
<path d="M1 26H29" stroke="#FFFFFF" stroke-width="1.5" stroke-linecap="round" stroke-linejoin="round"/>
<path d="M3 23L3 11L13 11L13 23" stroke="#FFFFFF" stroke-width="1.5" stroke-linecap="round" stroke-linejoin="round"/>
<path d="M16 26L16 2.00001L27 2L27 26" stroke="#FFFFFF" stroke-width="1.5" stroke-linecap="round" stroke-linejoin="round"/>
<rect x="5" y="13" width="2" height="2" rx="0.3" fill="#FFFFFF" fill-opacity="0.8"/>
<rect x="9" y="13" width="2" height="2" rx="0.3" fill="#FFFFFF"/>
<rect x="18.5" y="4" width="2" height="2" rx="0.3" fill="#FFFFFF"/>
<rect x="22.5" y="4" width="2" height="2" rx="0.3" fill="#FFFFFF" fill-opacity="0.8"/>
<rect x="18.5" y="7" width="2" height="2" rx="0.3" fill="#FFFFFF" fill-opacity="0.8"/>
<rect x="22.5" y="7" width="2" height="2" rx="0.3" fill="#FFFFFF" />
<rect x="18.5" y="10" width="2" height="2" rx="0.3" fill="#FFFFFF" />
<rect x="22.5" y="10" width="2" height="2" rx="0.3" fill="#FFFFFF" fill-opacity="0.8"/>
<rect x="18.5" y="13" width="2" height="2" rx="0.3" fill="#FFFFFF" fill-opacity="0.8"/>
<rect x="22.5" y="13" width="2" height="2" rx="0.3" fill="#FFFFFF" />
<rect x="18.5" y="16" width="2" height="2" rx="0.3" fill="#FFFFFF" />
<rect x="22.5" y="16" width="2" height="2" rx="0.3" fill="#FFFFFF" fill-opacity="0.8"/>
<rect x="18.5" y="19" width="2" height="2" rx="0.3" fill="#FFFFFF" fill-opacity="0.8"/>
<rect x="22.5" y="19" width="2" height="2" rx="0.3" fill="#FFFFFF" />
<rect x="5" y="16" width="2" height="2" rx="0.3" fill="#FFFFFF" />
<rect x="9" y="16" width="2" height="2" rx="0.3" fill="#FFFFFF" fill-opacity="0.8"/>
<rect x="5" y="19" width="2" height="2" rx="0.3" fill="#FFFFFF" fill-opacity="0.8"/>
<rect x="9" y="19" width="2" height="2" rx="0.3" fill="#FFFFFF" />
</g>
</svg>
