<svg width="30" height="30" viewBox="0 0 30 30" fill="none" xmlns="http://www.w3.org/2000/svg">
<mask id="mask0" mask-type="alpha" maskUnits="userSpaceOnUse" x="0" y="0" width="30" height="30">
<rect width="30" height="30" fill="#C4C4C4"/>
</mask>
<g mask="url(#mask0)">
<path d="M3 21.6643L5.90331 19.2587C7.5683 17.8791 9.71607 17.2231 11.8677 17.4369L16.2149 17.869C16.5888 17.9061 16.8304 18.282 16.709 18.6375V18.6375C16.4078 19.5196 15.6103 20.1377 14.6809 20.2092L12.123 20.4059" stroke="white" stroke-width="1.5" stroke-linecap="round" stroke-linejoin="round"/>
<path d="M15.1331 3.34412C14.5334 3.66305 14.0626 4.17986 13.8008 4.80669C13.539 4.17986 13.0681 3.66305 12.4684 3.34412C11.8686 3.02519 11.1769 2.92384 10.5108 3.05728C9.84472 3.19073 9.24543 3.55074 8.8148 4.07611C8.38418 4.60148 8.1488 5.25978 8.14868 5.93908C8.14868 9.7825 13.8008 12.9477 13.8008 12.9477C13.8008 12.9477 14.8075 12.3839 15.9712 11.4433" stroke="white" stroke-opacity="0.6" stroke-width="1.5" stroke-linecap="round" stroke-linejoin="round"/>
<path d="M17.3628 3.12549C17.9192 3.29346 18.4156 3.6234 18.7867 4.07614C19.2173 4.60151 19.4527 5.25981 19.4528 5.93911C19.4528 7.31484 18.7286 8.60367 17.7987 9.69154" stroke="white" stroke-opacity="0.6" stroke-width="1.5" stroke-linecap="round" stroke-linejoin="round"/>
<path d="M19.0491 18.6217L24.295 15.6709C24.9796 15.2858 25.8453 15.4932 26.2812 16.1467V16.1467C26.7449 16.8419 26.5521 17.782 25.8521 18.2386L17.8379 23.4652L13.7624 25.6388C12.4584 26.3342 11.0166 26.732 9.54049 26.8035L9.10835 26.8245C7.44655 26.905 5.81041 26.391 4.49321 25.3746L4.1115 25.0801" stroke="white" stroke-width="1.5" stroke-linecap="round" stroke-linejoin="round"/>
</g>
</svg>
