<svg width="30" height="30" viewBox="0 0 30 30" fill="none" xmlns="http://www.w3.org/2000/svg">
<path d="M24.375 6.5625H5.625C4.58947 6.5625 3.75 7.40197 3.75 8.4375V21.5625C3.75 22.598 4.58947 23.4375 5.625 23.4375H24.375C25.4105 23.4375 26.25 22.598 26.25 21.5625V8.4375C26.25 7.40197 25.4105 6.5625 24.375 6.5625Z" stroke="white" stroke-width="1.5" stroke-linecap="round" stroke-linejoin="round"/>
<path d="M3.75 14.0625H10.4074C10.6234 14.0625 10.8327 14.1371 11 14.2738C11.1672 14.4104 11.282 14.6007 11.325 14.8124C11.498 15.6594 11.9583 16.4206 12.628 16.9672C13.2976 17.5139 14.1355 17.8125 15 17.8125C15.8645 17.8125 16.7024 17.5139 17.372 16.9672C18.0417 16.4206 18.502 15.6594 18.675 14.8124C18.718 14.6007 18.8328 14.4104 19 14.2738C19.1673 14.1371 19.3766 14.0625 19.5926 14.0625H26.25" stroke="white" stroke-width="1.5" stroke-linecap="round" stroke-linejoin="round"/>
<path d="M8 10H22" stroke="white" stroke-opacity="0.6" stroke-width="1.5" stroke-linecap="round" stroke-linejoin="round"/>
</svg>
