<svg width="30" height="30" viewBox="0 0 30 30" fill="none" xmlns="http://www.w3.org/2000/svg">
<path d="M15 19.687C19.6599 19.687 23.4375 15.9094 23.4375 11.2495C23.4375 6.58961 19.6599 2.81201 15 2.81201C10.3401 2.81201 6.5625 6.58961 6.5625 11.2495C6.5625 15.9094 10.3401 19.687 15 19.687Z" stroke="white" stroke-width="1.5" stroke-linecap="round" stroke-linejoin="round"/>
<path fill-rule="evenodd" clip-rule="evenodd" d="M6.91247 2.10053C7.20536 2.39342 7.20536 2.86829 6.91247 3.16119C4.76752 5.30614 3.5625 8.21533 3.5625 11.2488C3.5625 14.2822 4.76752 17.1914 6.91247 19.3363C9.05741 21.4813 11.9666 22.6863 15 22.6863C18.0334 22.6863 20.9426 21.4813 23.0875 19.3363C23.3804 19.0434 23.8553 19.0434 24.1482 19.3363C24.4411 19.6292 24.4411 20.1041 24.1482 20.397C21.8993 22.6459 18.9078 23.9813 15.75 24.1646V26.437H18.75C19.1642 26.437 19.5 26.7728 19.5 27.187C19.5 27.6012 19.1642 27.937 18.75 27.937H15H11.25C10.8358 27.937 10.5 27.6012 10.5 27.187C10.5 26.7728 10.8358 26.437 11.25 26.437H14.25V24.1646C11.0922 23.9813 8.10068 22.6459 5.85181 20.397C3.42555 17.9707 2.0625 14.68 2.0625 11.2488C2.0625 7.8175 3.42555 4.52679 5.8518 2.10053C6.1447 1.80764 6.61957 1.80764 6.91247 2.10053Z" fill="white" fill-opacity="0.6"/>
</svg>
