<svg width="387" height="24" viewBox="0 0 387 24" fill="none" xmlns="http://www.w3.org/2000/svg">
<path d="M386 23.95C386.525 23.95 386.95 23.5247 386.95 23C386.95 22.4753 386.525 22.05 386 22.05V23.95ZM10.6309 0.844309C10.5449 0.326732 10.0557 -0.0231413 9.53808 0.0628446L1.10368 1.46407C0.586105 1.55005 0.236232 2.03934 0.322218 2.55691C0.408203 3.07449 0.897488 3.42436 1.41506 3.33838L8.91231 2.09285L10.1578 9.59009C10.2438 10.1077 10.7331 10.4575 11.2507 10.3716C11.7683 10.2856 12.1181 9.79628 12.0321 9.27871L10.6309 0.844309ZM1 15.7439H1.95H1ZM1 15.7439H1.95H1ZM3.27694 11.6069L10.4665 1.55258L8.92101 0.447421L1.73142 10.5018L3.27694 11.6069ZM386 22.05H8.25611V23.95H386V22.05ZM8.25611 22.05C4.77335 22.05 1.95 19.2267 1.95 15.7439H0.05C0.05 20.276 3.72402 23.95 8.25611 23.95V22.05ZM1.73142 10.5018C0.637911 12.031 0.05 13.8639 0.05 15.7439H1.95C1.95 14.2603 2.41397 12.8138 3.27694 11.6069L1.73142 10.5018Z" fill="white"/>
</svg>
