<svg width="244" height="21" viewBox="0 0 244 21" fill="none" xmlns="http://www.w3.org/2000/svg">
<path d="M242.5 20.95C243.025 20.95 243.45 20.5247 243.45 20C243.45 19.4754 243.025 19.05 242.5 19.05V20.95ZM10.9371 0.843851C10.8508 0.32632 10.3614 -0.023299 9.84382 0.0629563L1.41015 1.46857C0.892621 1.55482 0.543002 2.04429 0.629258 2.56182C0.715513 3.07935 1.20498 3.42897 1.72251 3.34272L9.2191 2.09328L10.4685 9.58988C10.5548 10.1074 11.0443 10.457 11.5618 10.3708C12.0793 10.2845 12.4289 9.79505 12.3427 9.27752L10.9371 0.843851ZM2.5 13.7319H3.45H2.5ZM3.79726 9.68386L3.02422 9.13168L3.79726 9.68386ZM2.5 13.7319H3.45H2.5ZM4.57031 10.236L10.773 1.55221L9.22695 0.447854L3.02422 9.13168L4.57031 10.236ZM242.5 19.05H8.7681V20.95H242.5V19.05ZM8.7681 19.05C5.83099 19.05 3.45 16.669 3.45 13.7319H1.55C1.55 17.7184 4.78165 20.95 8.7681 20.95V19.05ZM3.02422 9.13168C2.06542 10.474 1.55 12.0824 1.55 13.7319H3.45C3.45 12.4784 3.84169 11.2561 4.57031 10.236L3.02422 9.13168Z" fill="white"/>
</svg>
