<?xml version="1.0" standalone="no"?>
<!DOCTYPE svg PUBLIC "-//W3C//DTD SVG 1.1//EN" "http://www.w3.org/Graphics/SVG/1.1/DTD/svg11.dtd" >
<svg xmlns="http://www.w3.org/2000/svg" xmlns:xlink="http://www.w3.org/1999/xlink" version="1.1">
<metadata></metadata>
<defs>
<font id="objectivitymedium" horiz-adv-x="1251" >
<font-face units-per-em="2048" ascent="1638" descent="-410" />
<missing-glyph horiz-adv-x="632" />
<glyph horiz-adv-x="0" />
<glyph horiz-adv-x="682" />
<glyph horiz-adv-x="1519" d="M186 0v1450h1147v-1450h-1147zM383 174h750v1102h-750v-1102z" />
<glyph horiz-adv-x="1519" d="M186 0v1450h1147v-1450h-1147zM383 174h750v1102h-750v-1102z" />
<glyph unicode="&#xd;" horiz-adv-x="61" />
<glyph unicode=" "  horiz-adv-x="632" />
<glyph unicode="&#x09;" horiz-adv-x="632" />
<glyph unicode="&#xa0;" horiz-adv-x="632" />
<glyph unicode="!" horiz-adv-x="577" d="M152 109q0 58 38.5 95.5t98.5 37.5t98.5 -37.5t38.5 -95.5q0 -60 -38.5 -99t-98.5 -39t-98.5 39t-38.5 99zM170 1065v385h240v-385l-58 -602h-127z" />
<glyph unicode="&#x22;" horiz-adv-x="727" d="M98 1163v287h183v-287l-23 -393h-135zM446 1163v287h183v-287l-23 -393h-135z" />
<glyph unicode="#" horiz-adv-x="1937" d="M98 481v158h467l72 270h-436v160h477l119 442h192l-119 -442h322l119 442h192l-119 -442h455v-160h-498l-73 -270h469v-158h-510l-127 -481h-193l129 481h-323l-127 -481h-193l129 481h-424zM756 639h321l74 270h-324z" />
<glyph unicode="$" horiz-adv-x="1452" d="M123 473h233q0 -140 112 -230.5t286 -90.5q152 0 239.5 70t87.5 181q0 27 -7.5 50.5t-17.5 41t-31 33t-37.5 26t-49.5 20.5t-53.5 16t-61.5 13t-62.5 10t-68.5 10q-55 7 -91 13t-87.5 16.5t-86 21.5t-77 29t-70 39t-56.5 51t-45.5 65.5t-27 82t-10.5 101.5q0 180 127 304 t338 149v184h230v-188q204 -36 330 -168.5t126 -318.5h-227q0 129 -100.5 211.5t-255.5 82.5q-146 0 -235 -65t-89 -166q0 -35 11 -63t26.5 -48t46 -36.5t56.5 -26.5t72 -19.5t77.5 -14.5t87.5 -13q103 -14 165 -25.5t147.5 -41.5t133 -70t82.5 -110.5t35 -164.5 q0 -195 -132 -326.5t-357 -154.5v-199h-230v207q-217 37 -350 177t-133 335z" />
<glyph unicode="%" horiz-adv-x="2113" d="M98 1112q0 188 117 305t305 117t305 -117t117 -305q0 -186 -117.5 -303t-304.5 -117t-304.5 117t-117.5 303zM307 1112q0 -94 59 -153.5t154 -59.5t153 59.5t58 153.5q0 95 -58 154t-153 59t-154 -59t-59 -154zM424 0l1020 1511h246l-1020 -1511h-246zM1176 397 q0 187 116.5 304.5t302.5 117.5t303 -117.5t117 -304.5q0 -186 -117 -303t-303 -117t-302.5 117t-116.5 303zM1382 397q0 -94 59.5 -152.5t153.5 -58.5t153.5 58.5t59.5 152.5q0 95 -59.5 154t-153.5 59t-153.5 -59t-59.5 -154z" />
<glyph unicode="&#x26;" horiz-adv-x="1656" d="M127 371q0 81 22.5 146.5t65.5 114t92.5 83t116.5 65.5q-132 153 -129 320q0 166 121 276.5t301 112.5q173 0 297.5 -104.5t146.5 -266.5l-215 -41q-11 95 -73 155t-152 60q-87 0 -146 -56t-59 -146q0 -133 146 -267l448 -409q92 121 147 282h218q-69 -221 -222 -411 q15 -14 159 -144.5t155 -140.5h-299l-160 143q-108 -93 -234.5 -143.5t-255.5 -50.5q-216 0 -353.5 117.5t-137.5 304.5zM362 381q0 -101 82.5 -166t210.5 -65q167 0 308 122q-16 16 -198 184t-198 183q-102 -39 -153.5 -100t-51.5 -158z" />
<glyph unicode="'" horiz-adv-x="378" d="M98 1163v287h183v-287l-23 -393h-135z" />
<glyph unicode="(" horiz-adv-x="714" d="M117 571q0 279 89 536t236 404h217q-159 -160 -252.5 -413t-93.5 -527q0 -279 93.5 -530.5t252.5 -409.5h-217q-147 147 -236 404t-89 536z" />
<glyph unicode=")" horiz-adv-x="714" d="M55 -369q159 158 252.5 409.5t93.5 530.5q0 274 -93.5 527t-252.5 413h217q147 -147 236.5 -404t89.5 -536t-89.5 -536t-236.5 -404h-217z" />
<glyph unicode="*" horiz-adv-x="1056" d="M98 842l287 157l-287 158l80 135l279 -170l-8 328h159l-8 -328l279 170l79 -135l-286 -158l286 -157l-79 -135l-279 170l8 -328h-159l8 328l-279 -170z" />
<glyph unicode="+" horiz-adv-x="1159" d="M98 549v186h371v350h221v-350h371v-186h-371v-365h-221v365h-371z" />
<glyph unicode="," horiz-adv-x="481" d="M100 106q0 58 38.5 96t97.5 38q66 0 106.5 -51t40.5 -136q0 -105 -48 -204t-122 -150l-111 59q55 40 90 99.5t35 113.5q-57 0 -92 37.5t-35 97.5z" />
<glyph unicode="-" horiz-adv-x="1036" d="M98 541v192h840v-192h-840z" />
<glyph unicode="." horiz-adv-x="471" d="M98 109q0 58 39 95.5t99 37.5q61 0 99 -37t38 -96q0 -60 -38 -99t-99 -39q-60 0 -99 39t-39 99z" />
<glyph unicode="/" horiz-adv-x="942" d="M55 -471l623 1921h209l-623 -1921h-209z" />
<glyph unicode="0" horiz-adv-x="1548" d="M137 725q0 167 46.5 311t129 246.5t201.5 160.5t260 58t260 -58t201.5 -160.5t129 -246.5t46.5 -311t-46.5 -311t-129 -246.5t-201.5 -160.5t-260 -58t-260 58t-201.5 160.5t-129 246.5t-46.5 311zM383 725q0 -247 107.5 -405t283.5 -158t283.5 158t107.5 405t-107 404 t-284 157t-284 -157t-107 -404z" />
<glyph unicode="1" horiz-adv-x="884" d="M80 885v268l397 297h203v-1450h-244v1151z" />
<glyph unicode="2" horiz-adv-x="1294" d="M127 1018q32 211 180.5 347t345.5 136q218 0 361 -134.5t143 -340.5q0 -78 -15.5 -140.5t-53 -121.5t-85 -110.5t-124.5 -121.5l-363 -329h614v-203h-989v145l578 527q97 87 149 167t52 181q0 118 -76 195t-193 77q-110 0 -194 -91t-101 -230z" />
<glyph unicode="3" horiz-adv-x="1306" d="M86 463l215 37q20 -150 111 -246t215 -96q134 0 220.5 78.5t86.5 199.5q0 123 -85.5 204t-215.5 81q-66 0 -125 -25l-66 162l355 389h-631v203h954v-154l-360 -405q182 -23 295.5 -151.5t113.5 -313.5q0 -207 -150.5 -342t-383.5 -135q-221 0 -376.5 145.5t-172.5 368.5z " />
<glyph unicode="4" horiz-adv-x="1302" d="M76 344v148l592 958h344v-903h174v-203h-174v-344h-248v344h-688zM356 547h408v676z" />
<glyph unicode="5" horiz-adv-x="1333" d="M125 465l215 35q12 -149 104 -245.5t222 -96.5q133 0 219 81t86 207q0 137 -91 222.5t-249 85.5h-404l74 696h791v-203h-600l-33 -303h215q243 0 388.5 -139t145.5 -359q0 -217 -150.5 -357t-383.5 -140q-225 0 -378.5 145.5t-170.5 370.5z" />
<glyph unicode="6" horiz-adv-x="1296" d="M98 455q0 82 32.5 174t80.5 155l504 666h286l-387 -502q70 17 127 17q199 0 328 -139t129 -353q0 -229 -155 -376.5t-396 -147.5q-239 0 -394 143t-155 363zM344 473q0 -138 88 -226.5t223 -88.5q129 2 212 90.5t83 224.5q0 132 -83 218.5t-212 86.5q-135 1 -223 -85 t-88 -220z" />
<glyph unicode="7" horiz-adv-x="1071" d="M39 1241v209h995v-145l-549 -1305h-262l525 1241h-709z" />
<glyph unicode="8" horiz-adv-x="1409" d="M137 385q0 137 82 247.5t209 139.5q-100 29 -164.5 124t-64.5 212q0 173 143 284t363 111q221 0 363 -109.5t142 -285.5q0 -117 -64.5 -212t-164.5 -124q126 -29 208.5 -139.5t82.5 -247.5q0 -190 -159.5 -311t-407.5 -121t-408 121.5t-160 310.5zM401 412 q0 -110 86 -181t218 -71q133 0 219 71t86 181q0 109 -86.5 180.5t-218.5 71.5t-218 -71.5t-86 -180.5zM438 1079q0 -97 75.5 -160t191.5 -63q117 0 191.5 63t74.5 160q0 95 -74.5 156t-191.5 61q-116 0 -191.5 -61t-75.5 -156z" />
<glyph unicode="9" horiz-adv-x="1296" d="M98 977q0 229 155 375.5t396 146.5q239 0 394 -142t155 -362q0 -82 -32.5 -174t-80.5 -155l-505 -666h-285l387 500q-88 -15 -127 -15q-200 0 -328.5 138.5t-128.5 353.5zM344 977q0 -133 84 -219t213 -86q135 -1 222 85t87 220q0 138 -87 226.5t-222 88.5 q-129 -2 -213 -90.5t-84 -224.5z" />
<glyph unicode=":" horiz-adv-x="471" d="M98 109q0 58 39 95.5t99 37.5q61 0 99 -37t38 -96q0 -60 -38 -99t-99 -39q-60 0 -99 39t-39 99zM98 874q0 59 39 97.5t99 38.5q61 0 99 -38.5t38 -97.5q0 -60 -38 -97.5t-99 -37.5q-60 0 -99 37.5t-39 97.5z" />
<glyph unicode=";" horiz-adv-x="481" d="M98 874q0 59 39 97.5t99 38.5q61 0 99 -38.5t38 -97.5q0 -60 -38 -97.5t-99 -37.5q-60 0 -99 37.5t-39 97.5zM100 106q0 58 38.5 96t97.5 38q66 0 106.5 -51t40.5 -136q0 -105 -48 -204t-122 -150l-111 59q55 40 90 99.5t35 113.5q-57 0 -92 37.5t-35 97.5z" />
<glyph unicode="&#x3c;" horiz-adv-x="937" d="M55 414v211l766 417v-200l-606 -322l606 -323v-201z" />
<glyph unicode="=" horiz-adv-x="1159" d="M98 285v190h963v-190h-963zM98 801v190h963v-190h-963z" />
<glyph unicode="&#x3e;" horiz-adv-x="937" d="M117 -4v201l606 323l-606 322v200l766 -417v-211z" />
<glyph unicode="?" horiz-adv-x="1267" d="M117 1032q23 206 171.5 337.5t364.5 131.5q212 0 355 -123.5t143 -312.5q0 -68 -18 -123t-55.5 -99.5t-77.5 -77t-101 -71.5q-89 -57 -126.5 -121.5t-37.5 -179.5h-215q0 110 25.5 190.5t68.5 131t113 100.5q45 31 69.5 51t54 51t43 64.5t13.5 73.5q0 103 -75 172 t-185 69q-123 0 -206.5 -86.5t-98.5 -220.5zM489 106q0 58 39 96t99 38q61 0 100 -37.5t39 -96.5q0 -60 -39 -98.5t-100 -38.5q-60 0 -99 38.5t-39 98.5z" />
<glyph unicode="@" horiz-adv-x="2115" d="M117 532q0 191 70.5 356.5t194.5 283t299 184.5t376 67q202 0 377.5 -67t299 -184.5t194.5 -283t71 -356.5q0 -241 -100 -392.5t-267 -151.5q-113 0 -190 75.5t-80 190.5q-38 -73 -142.5 -120.5t-226.5 -47.5q-179 0 -290 126.5t-111 319.5q0 196 131 323.5t334 127.5 q205 0 336 -124t131 -318v-248q0 -63 31.5 -106.5t80.5 -43.5q75 0 118.5 108.5t43.5 280.5q0 206 -95 371t-264.5 257.5t-381.5 92.5q-159 0 -297 -54t-235.5 -149t-153.5 -229t-56 -289q0 -203 86 -365.5t239 -253.5t345 -91q79 0 163.5 20t137.5 49v-180 q-61 -32 -143 -48.5t-158 -16.5q-243 0 -441.5 114t-312.5 317t-114 455zM799 532q0 -117 72.5 -191.5t185.5 -74.5t186.5 74.5t73.5 191.5t-74 194t-186 77t-185 -77t-73 -194z" />
<glyph unicode="A" horiz-adv-x="1501" d="M55 0l518 1450h357l516 -1450h-260l-96 270h-676l-97 -270h-262zM467 455h571l-286 782z" />
<glyph unicode="B" horiz-adv-x="1499" d="M186 0v1450h656q210 0 344.5 -110t134.5 -279q0 -105 -60.5 -189t-154.5 -110q113 -28 184.5 -125t71.5 -223q0 -181 -144 -297.5t-368 -116.5h-664zM432 203h377q133 0 219 65.5t86 165.5t-86 165t-219 65h-377v-461zM432 856h373q119 0 193.5 54.5t74.5 140.5t-75 141 t-193 55h-373v-391z" />
<glyph unicode="C" horiz-adv-x="1687" d="M214 1125q97 177 270 276.5t390 99.5q253 0 450 -152.5t247 -385.5l-236 -29q-37 154 -166 253t-292 99q-226 0 -370.5 -157.5t-144.5 -403.5q2 -246 146.5 -404.5t368.5 -158.5q160 0 289.5 96.5t170.5 245.5l234 -39q-50 -224 -247 -370t-450 -146q-217 0 -390.5 99.5 t-270.5 277.5q-96 176 -96 394q0 228 97 405z" />
<glyph unicode="D" horiz-adv-x="1634" d="M186 0v1450h494q250 0 440.5 -90t295 -254.5t104.5 -380.5t-104.5 -380.5t-295 -254.5t-440.5 -90h-494zM430 205h250q267 0 430.5 141t163.5 379t-163.5 379t-430.5 141h-250v-1040z" />
<glyph unicode="E" horiz-adv-x="1325" d="M186 0v1450h1004v-209h-766v-399h684v-189h-684v-444h786v-209h-1024z" />
<glyph unicode="F" horiz-adv-x="1212" d="M186 0v1450h949v-215h-703v-479h582v-197h-582v-559h-246z" />
<glyph unicode="G" horiz-adv-x="1783" d="M117 725q0 167 59 311t162.5 246.5t250 160.5t316.5 58q254 0 450 -144.5t247 -367.5l-232 -43q-40 149 -171.5 244.5t-293.5 95.5q-238 0 -390.5 -157t-152.5 -404q0 -161 70 -289.5t195.5 -201t281.5 -72.5q140 0 258 61.5t186.5 169.5t69.5 238h-524v180h766 q3 -43 3 -84q0 -197 -74 -360q-91 -197 -271.5 -307.5t-417.5 -110.5q-170 0 -316.5 58t-250 160.5t-162.5 246.5t-59 311z" />
<glyph unicode="H" horiz-adv-x="1574" d="M184 0v1450h248v-592h711v592h248v-1450h-248v649h-711v-649h-248z" />
<glyph unicode="I" horiz-adv-x="620" d="M186 0v1450h246v-1450h-246z" />
<glyph unicode="J" horiz-adv-x="997" d="M80 0v201q116 -33 215 -33q121 0 196.5 78.5t75.5 206.5v997h246v-1008q0 -213 -129.5 -348t-329.5 -135q-143 0 -274 41z" />
<glyph unicode="K" horiz-adv-x="1353" d="M186 0v1450h246v-602l559 602h307l-647 -684l666 -766h-309l-576 680v-680h-246z" />
<glyph unicode="L" horiz-adv-x="1196" d="M186 0v1450h246v-1237h684v-213h-930z" />
<glyph unicode="M" horiz-adv-x="1998" d="M186 0v1450h342l469 -1141l473 1141h342v-1450h-243v1145l-475 -1145h-189l-475 1143v-1143h-244z" />
<glyph unicode="N" horiz-adv-x="1581" d="M186 0v1450h299l670 -1151v1151h240v-1450h-299l-668 1151v-1151h-242z" />
<glyph unicode="O" horiz-adv-x="1812" d="M117 725q0 225 99.5 402t279 275.5t409.5 98.5q173 0 320.5 -57.5t250.5 -159.5t161.5 -246t58.5 -313q0 -226 -100 -403t-280 -275t-411 -98q-172 0 -319 57.5t-250 159t-161 246t-58 313.5zM362 725q0 -246 152.5 -403.5t390.5 -159.5q239 0 392 158.5t153 404.5 t-153 403.5t-392 157.5q-238 0 -390.5 -157.5t-152.5 -403.5z" />
<glyph unicode="P" horiz-adv-x="1427" d="M186 0v1450h562q255 0 419 -142t164 -362t-165 -362t-421 -142h-321v-442h-238zM424 647h283q167 1 273 85t105 212q0 134 -106 218.5t-272 84.5h-283v-600z" />
<glyph unicode="Q" horiz-adv-x="1812" d="M117 725q0 225 99.5 402t279 275.5t409.5 98.5q173 0 320.5 -57.5t250.5 -159.5t161.5 -246t58.5 -313q0 -200 -79 -362.5t-222 -266.5l239 -321h-268l-168 223q-139 -49 -293 -49q-172 0 -319 57.5t-250 159t-161 246t-58 313.5zM362 725q0 -246 152.5 -403.5 t390.5 -159.5q238 0 391.5 158.5t153.5 404.5t-153 403.5t-392 157.5q-238 0 -390.5 -157.5t-152.5 -403.5z" />
<glyph unicode="R" horiz-adv-x="1538" d="M186 0v1450h668q238 0 391.5 -132t153.5 -339q0 -146 -95 -263t-243 -155l362 -561h-282l-320 524h-389v-524h-246zM432 721h393q141 0 234.5 73t93.5 185q0 125 -91 196.5t-237 71.5h-393v-526z" />
<glyph unicode="S" horiz-adv-x="1452" d="M123 473h233q0 -140 112 -230.5t286 -90.5q152 0 239.5 70t87.5 181q0 27 -7.5 50.5t-17.5 41t-31 33t-37.5 26t-49.5 20.5t-53.5 16t-61.5 13t-62.5 10t-68.5 10q-55 7 -91 13t-87.5 16.5t-86 21.5t-77 29t-70 39t-56.5 51t-45.5 65.5t-27 82t-10.5 101.5 q0 202 157 330.5t409 128.5q168 0 301.5 -63.5t208.5 -177t75 -256.5h-227q0 129 -100.5 211.5t-255.5 82.5q-146 0 -235 -65t-89 -166q0 -35 11 -63t26.5 -48t46 -36.5t56.5 -26.5t72 -19.5t77.5 -14.5t87.5 -13q103 -14 165 -25.5t147.5 -41.5t133 -70t82.5 -110.5 t35 -164.5q0 -215 -157.5 -350t-419.5 -135q-271 0 -448 148.5t-177 375.5z" />
<glyph unicode="T" horiz-adv-x="1253" d="M39 1239v211h1173v-211h-462v-1239h-246v1239h-465z" />
<glyph unicode="U" horiz-adv-x="1579" d="M174 592v858h248v-854q0 -113 44.5 -211t130 -160t194.5 -63q163 0 264.5 122.5t101.5 311.5v854h248v-858q0 -185 -78.5 -332t-218.5 -229t-317 -82q-133 0 -248 48t-196 132.5t-127 204t-46 258.5z" />
<glyph unicode="V" horiz-adv-x="1480" d="M55 1450h258l428 -1270l426 1270h258l-499 -1450h-371z" />
<glyph unicode="W" horiz-adv-x="2310" d="M92 1450h254l344 -1274l307 1274h324l301 -1274l342 1274h252l-399 -1450h-379l-283 1174l-281 -1174h-380z" />
<glyph unicode="X" horiz-adv-x="1533" d="M76 0l495 766l-479 684h291l379 -549l387 549h293l-496 -684l514 -766h-293l-407 623l-395 -623h-289z" />
<glyph unicode="Y" horiz-adv-x="1394" d="M55 1450h267l378 -707l369 707h272l-518 -934v-516h-245v516z" />
<glyph unicode="Z" horiz-adv-x="1359" d="M100 0v162l813 1089h-792v199h1118v-162l-807 -1089h828v-199h-1160z" />
<glyph unicode="[" horiz-adv-x="919" d="M186 -369v1880h680v-159h-467v-1563h467v-158h-680z" />
<glyph unicode="\" horiz-adv-x="942" d="M55 1450h209l623 -1921h-209z" />
<glyph unicode="]" horiz-adv-x="919" d="M55 -211h465v1563h-465v159h680v-1880h-680v158z" />
<glyph unicode="^" horiz-adv-x="1191" d="M98 819l383 631h228l385 -631h-215l-283 490l-283 -490h-215z" />
<glyph unicode="_" horiz-adv-x="1024" d="M0 0h1024v-174h-1024v174z" />
<glyph unicode="`" horiz-adv-x="684" d="M98 1511h234l254 -344h-205z" />
<glyph unicode="a" horiz-adv-x="1378" d="M98 520q0 161 66.5 289t186 200t270.5 72q120 0 220 -51.5t167 -144.5v155h223v-1040h-223v156q-67 -93 -167 -145t-220 -52q-151 0 -270.5 72t-186 200t-66.5 289zM319 520q0 -157 98 -259.5t247 -102.5t245.5 102t96.5 260t-96.5 260.5t-245.5 102.5 q-150 0 -247.5 -102.5t-97.5 -260.5z" />
<glyph unicode="b" horiz-adv-x="1368" d="M147 0v1511h224v-612q67 87 164 134.5t213 47.5q227 0 374.5 -158.5t147.5 -402.5t-148 -402.5t-374 -158.5q-118 0 -216 48.5t-167 137.5v-145h-218zM362 520q0 -152 97 -252t246 -100t246.5 99t97.5 253q0 152 -97.5 252t-246.5 100t-246 -100t-97 -252z" />
<glyph unicode="c" horiz-adv-x="1265" d="M98 520q0 244 155.5 402.5t393.5 158.5q198 0 344 -111.5t174 -283.5l-213 -27q-25 101 -110.5 166.5t-192.5 65.5q-139 0 -234.5 -105.5t-95.5 -265.5q1 -161 95.5 -265.5t234.5 -104.5q109 0 193 64t112 165l213 -27q-32 -170 -179 -281.5t-339 -111.5 q-239 0 -395 158.5t-156 402.5z" />
<glyph unicode="d" horiz-adv-x="1368" d="M98 520q0 244 148 402.5t375 158.5q116 0 212.5 -47.5t163.5 -134.5v612h224v-1511h-217v145q-69 -89 -167 -137.5t-216 -48.5q-226 0 -374.5 158.5t-148.5 402.5zM319 520q0 -154 98 -253t247 -99t245.5 99.5t96.5 252.5t-96.5 252.5t-245.5 99.5t-247 -100t-98 -252z " />
<glyph unicode="e" horiz-adv-x="1306" d="M98 532q0 239 157 394t400 155t398 -154.5t155 -396.5q0 -29 -4 -79l-876 2q20 -139 109 -223.5t216 -84.5q105 0 192 55.5t116 141.5l208 -31q-44 -154 -188.5 -253t-323.5 -99q-244 0 -401.5 161t-157.5 412zM330 616h647q-19 124 -109.5 201.5t-218.5 77.5 q-125 0 -211 -76.5t-108 -202.5z" />
<glyph unicode="f" horiz-adv-x="808" d="M98 866v174h160v179q0 150 82.5 241.5t216.5 91.5q92 0 174 -28v-187q-59 17 -106 17q-64 0 -104 -42.5t-42 -111.5v-160h252v-174h-252v-866h-221v866h-160z" />
<glyph unicode="g" horiz-adv-x="1368" d="M98 520q0 120 39.5 223.5t109 176.5t167 115t209.5 42q235 0 376 -178v141h222v-1022q0 -247 -151 -388.5t-394 -141.5q-204 0 -355.5 116t-179.5 296l205 24q26 -107 117 -177.5t205 -70.5q148 0 238.5 91.5t90.5 252.5v134q-138 -174 -374 -174q-228 0 -376.5 152 t-148.5 388zM319 520q0 -152 98 -251t247 -99t245.5 99t96.5 251q0 158 -96.5 260.5t-245.5 102.5q-150 0 -247.5 -102.5t-97.5 -260.5z" />
<glyph unicode="h" d="M147 0v1511h224v-596q52 77 142 121.5t189 44.5q191 0 306.5 -124t115.5 -320v-637h-221v618q0 118 -66.5 191.5t-181.5 73.5q-119 0 -201.5 -81t-82.5 -204v-598h-224z" />
<glyph unicode="i" horiz-adv-x="571" d="M147 1346q0 58 39 95.5t101 37.5q60 0 98.5 -37.5t38.5 -95.5q0 -60 -38.5 -99t-98.5 -39q-61 0 -100.5 39t-39.5 99zM176 0v1040h221v-1040h-221z" />
<glyph unicode="j" horiz-adv-x="569" d="M-111 -438l2 184q55 -18 129 -18q69 2 111.5 45.5t42.5 113.5v1153h221v-1179q0 -148 -84.5 -238t-222.5 -90q-114 0 -199 29zM145 1346q0 58 39 95.5t99 37.5q61 0 100 -37t39 -96q0 -60 -39 -99t-100 -39q-60 0 -99 39t-39 99z" />
<glyph unicode="k" horiz-adv-x="1110" d="M147 0v1511h224v-872l399 401h285l-484 -481l502 -559h-282l-420 475v-475h-224z" />
<glyph unicode="l" horiz-adv-x="516" d="M147 0v1511h222v-1511h-222z" />
<glyph unicode="m" horiz-adv-x="1914" d="M147 0v1040h215v-118q50 75 128.5 117t171.5 42q120 0 216 -53t142 -143q55 90 148 142t204 52q183 0 299.5 -126t116.5 -324v-629h-221v610q0 118 -68 194.5t-174 78.5q-109 0 -179.5 -77t-70.5 -196v-610h-223v610q0 123 -64.5 198t-171.5 75q-110 0 -177.5 -75 t-67.5 -198v-610h-224z" />
<glyph unicode="n" d="M147 0v1040h220v-133q55 81 145.5 127.5t192.5 46.5q188 0 303.5 -125t115.5 -321v-635h-221v618q0 118 -66.5 191.5t-181.5 73.5q-119 0 -201.5 -81t-82.5 -204v-598h-224z" />
<glyph unicode="o" horiz-adv-x="1323" d="M96 520q0 248 158 404.5t408 156.5q249 0 407 -157t158 -404t-158 -404t-407 -157q-250 0 -408 156.5t-158 404.5zM319 520q0 -158 96 -260t247 -102q150 0 247 102t97 260t-97.5 260.5t-246.5 102.5q-150 0 -246.5 -102t-96.5 -261z" />
<glyph unicode="p" horiz-adv-x="1368" d="M147 -471v1511h218v-145q69 89 167 137.5t216 48.5q226 0 374 -158.5t148 -402.5t-147.5 -402.5t-374.5 -158.5q-116 0 -213 47.5t-164 134.5v-612h-224zM362 520q0 -152 97 -252t246 -100t246.5 100t97.5 252q0 154 -97.5 253t-246.5 99t-246 -100t-97 -252z" />
<glyph unicode="q" horiz-adv-x="1368" d="M98 520q0 244 148.5 402.5t374.5 158.5q118 0 216 -48.5t167 -137.5v145h217v-1511h-224v612q-67 -87 -163.5 -134.5t-212.5 -47.5q-227 0 -375 158.5t-148 402.5zM319 520q0 -152 98 -252t247 -100t245.5 99.5t96.5 252.5t-96.5 252.5t-245.5 99.5t-247 -99t-98 -253z " />
<glyph unicode="r" horiz-adv-x="835" d="M147 0v1040h215v-133q48 80 121.5 125t161.5 45q60 0 133 -26v-199q-75 33 -162 33q-109 0 -177 -88.5t-68 -227.5v-569h-224z" />
<glyph unicode="s" horiz-adv-x="1144" d="M115 352h204q0 -92 76 -152.5t193 -60.5q104 1 172 43q66 41 65 103q0 42 -25 70.5t-71.5 44.5t-82 23.5t-87.5 14.5q-93 14 -140.5 23.5t-113 32t-96.5 53t-54.5 83t-23.5 124.5q0 142 120 235.5t298 93.5q201 0 333 -100.5t132 -255.5h-207q-1 76 -74 125t-186 49 q-86 0 -146.5 -41.5t-60.5 -103.5q0 -55 54.5 -81t191.5 -50q44 -7 68.5 -11.5t68.5 -14t70 -18t63.5 -22.5t60.5 -29.5t49 -38t40.5 -48t24 -59t9.5 -71.5q0 -155 -127 -255.5t-325 -100.5q-206 0 -339.5 111.5t-133.5 283.5z" />
<glyph unicode="t" horiz-adv-x="827" d="M78 866v174h172l29 252h182v-252h254v-174h-254v-559q0 -72 40.5 -116t110.5 -44q55 0 117 19v-178q-85 -29 -184 -29q-139 0 -223 92t-84 242v573h-160z" />
<glyph unicode="u" d="M127 406v634h223v-618q0 -118 66 -191t182 -73q118 0 201.5 81t83.5 203v598h221v-1040h-219v133q-53 -81 -144 -127.5t-192 -46.5q-190 0 -306 125.5t-116 321.5z" />
<glyph unicode="v" horiz-adv-x="1187" d="M55 1040h238l299 -868l301 868h240l-383 -1040h-314z" />
<glyph unicode="w" horiz-adv-x="1828" d="M76 1040h231l260 -821l230 821h235l238 -825l256 825h229l-340 -1040h-293l-207 782l-210 -782h-293z" />
<glyph unicode="x" horiz-adv-x="1210" d="M76 0l362 541l-344 499h262l248 -372l248 372h264l-346 -499l365 -541h-271l-260 408l-260 -408h-268z" />
<glyph unicode="y" horiz-adv-x="1193" d="M55 1040h244l326 -768l282 768h234l-408 -1065q-31 -84 -55.5 -139t-61.5 -117t-75 -98t-92.5 -60t-118.5 -24q-102 0 -183 35v180q79 -28 138 -28q21 0 40 4.5t34.5 11t30.5 19.5t25.5 23t23 30t19.5 32t18 36.5t16.5 37t16 40t15.5 38.5z" />
<glyph unicode="z" horiz-adv-x="1150" d="M100 0v145l611 703h-590v192h909v-145l-604 -702h625v-193h-951z" />
<glyph unicode="{" horiz-adv-x="802" d="M117 475v211h20q59 0 95 36t36 95v453q0 108 66 174.5t174 66.5h240v-159h-123q-65 0 -104.5 -40t-39.5 -104v-413q0 -90 -54.5 -148.5t-143.5 -62.5l-21 -2l21 -2q89 -4 143.5 -62.5t54.5 -148.5v-437q0 -64 39.5 -103.5t104.5 -39.5h123v-158h-240q-107 0 -173.5 66.5 t-66.5 175.5v471q0 60 -36 95.5t-95 35.5h-20z" />
<glyph unicode="|" horiz-adv-x="577" d="M186 -471v1982h205v-1982h-205z" />
<glyph unicode="}" horiz-adv-x="802" d="M55 -211h123q65 0 104.5 39.5t39.5 103.5v437q0 90 54 148.5t144 62.5l21 2l-21 2q-90 4 -144 62.5t-54 148.5v413q0 64 -40 104t-104 40h-123v159h240q107 0 173.5 -66.5t66.5 -174.5v-453q0 -59 36.5 -95t94.5 -36h20v-211h-20q-59 0 -95 -35.5t-36 -95.5v-471 q0 -109 -66.5 -175.5t-173.5 -66.5h-240v158z" />
<glyph unicode="~" horiz-adv-x="1363" d="M98 651q56 83 148.5 136t177.5 53q65 0 143.5 -36t139 -79t131.5 -79t123 -36q63 0 121.5 35.5t99.5 95.5l84 -135q-56 -84 -145.5 -136t-172.5 -52q-65 0 -144 36t-139.5 78.5t-133.5 78.5t-128 36q-60 0 -119 -35.5t-104 -95.5z" />
<glyph unicode="&#xa1;" horiz-adv-x="577" d="M152 870q0 60 38.5 99t98.5 39t98.5 -39t38.5 -99q0 -58 -38.5 -95.5t-98.5 -37.5t-98.5 37.5t-38.5 95.5zM168 -86l57 602h127l56 -602v-385h-240v385z" />
<glyph unicode="&#xa2;" horiz-adv-x="1265" d="M98 520q0 214 122 364.5t319 186.5v180h213v-178q163 -28 276.5 -133.5t136.5 -253.5l-213 -27q-25 101 -110.5 166.5t-192.5 65.5q-139 0 -234.5 -105.5t-95.5 -265.5q1 -161 95.5 -265.5t234.5 -104.5q109 0 193 64t112 165l213 -27q-27 -146 -141.5 -250.5 t-273.5 -134.5v-194h-213v196q-197 36 -319 186.5t-122 364.5z" />
<glyph unicode="&#xa3;" horiz-adv-x="1286" d="M98 0v233q40 8 69.5 21t58.5 41t47.5 69.5t30.5 108t13 156.5h-198v178h205v256q0 195 112 316.5t309 121.5q192 0 308 -119t135 -313l-207 -37q-11 126 -69.5 202.5t-157.5 76.5q-97 0 -148 -68.5t-53 -183.5v-252h489v-178h-499q-7 -105 -25.5 -181.5t-50 -125 t-67.5 -78t-87 -51.5h873v-193h-1088z" />
<glyph unicode="&#xa4;" horiz-adv-x="1527" d="M117 33l180 172q-98 134 -98 315q0 180 98 314l-176 172l133 129l182 -174q140 92 328 92q194 0 334 -92l180 172l131 -129l-178 -170q98 -134 98 -314q0 -181 -98 -315l180 -172l-133 -127l-180 174q-140 -92 -334 -92q-186 0 -328 90l-186 -172zM424 520 q0 -157 95 -257.5t245 -100.5q151 0 247.5 100.5t96.5 257.5t-96.5 258t-247.5 101q-148 0 -244 -101t-96 -258z" />
<glyph unicode="&#xa5;" horiz-adv-x="1456" d="M76 1450h274l381 -721l373 721h278l-473 -844h404v-170h-457v-119h457v-172h-457v-145h-248v145h-461v172h461v119h-461v170h406z" />
<glyph unicode="&#xa7;" horiz-adv-x="1282" d="M127 539q0 96 66.5 171.5t171.5 98.5q-79 28 -129 104t-50 172q0 155 129 257t324 102q169 0 300.5 -98.5t166.5 -253.5l-215 -27q-15 84 -88 138t-172 54q-100 0 -165 -40t-65 -103q0 -30 11 -54.5t35 -43t48.5 -31.5t66.5 -24.5t72.5 -19t80.5 -17.5q7 -1 10 -2 q45 -10 69.5 -15t67 -16t67 -20t60 -24t56.5 -30t45 -37t36.5 -46t21.5 -55t9 -67q0 -95 -71.5 -171t-182.5 -99q87 -26 142 -102t55 -172q0 -170 -131 -277.5t-336 -107.5q-172 0 -303 100.5t-162 255.5l217 29q17 -86 89.5 -141.5t166.5 -55.5q103 0 167 43.5t64 118.5 q0 102 -115 149q-56 23 -212 51q-71 12 -121.5 24.5t-110.5 36.5t-97.5 54.5t-63 79.5t-25.5 111zM342 592q0 -39 18.5 -69.5t44 -48t67 -30t73 -18t76.5 -10.5q9 -2 39 -7.5t38 -7.5q103 6 169.5 53t66.5 113q0 29 -10.5 52.5t-25.5 40t-40.5 29.5t-48 21t-55 14t-54 9 t-53.5 6q-33 3 -80 15q-96 -6 -160.5 -55t-64.5 -107z" />
<glyph unicode="&#xa8;" horiz-adv-x="970" d="M98 1317q0 57 37 92t94 35q59 0 96 -35t37 -92q0 -56 -37.5 -92.5t-95.5 -36.5q-57 0 -94 36.5t-37 92.5zM608 1317q0 57 37 92t94 35q59 0 96 -35t37 -92q0 -56 -37.5 -92.5t-95.5 -36.5q-57 0 -94 36.5t-37 92.5z" />
<glyph unicode="&#xa9;" horiz-adv-x="1980" d="M117 524q0 183 64.5 341t178.5 270t276.5 175.5t352.5 63.5q191 0 354.5 -63t278 -174t179.5 -269.5t65 -343.5q0 -250 -111 -445.5t-311 -304t-455 -108.5q-190 0 -352.5 63.5t-276.5 175.5t-178.5 272t-64.5 347zM274 524q0 -156 53 -289.5t147 -227.5t227.5 -147 t289.5 -53t289.5 53t227.5 147t147 227.5t53 289.5q0 203 -90.5 364.5t-254.5 253t-372 91.5t-372 -91.5t-254.5 -253t-90.5 -364.5zM457 520q0 243 154 398t397 155q183 0 323 -109.5t174 -277.5l-151 -29q-29 115 -128 190t-222 75q-162 0 -267.5 -113t-105.5 -289 q0 -177 106 -290t271 -113q130 0 231 79.5t129 202.5l139 -30q-31 -175 -171.5 -288.5t-329.5 -113.5q-240 0 -394.5 154.5t-154.5 398.5z" />
<glyph unicode="&#xab;" horiz-adv-x="1372" d="M98 522l398 518h252l-406 -518l406 -522h-252zM608 522l398 518h251l-405 -518l405 -522h-251z" />
<glyph unicode="&#xac;" horiz-adv-x="1323" d="M98 561v184h1106v-602h-166v418h-940z" />
<glyph unicode="&#xad;" horiz-adv-x="1036" d="M98 541v192h840v-192h-840z" />
<glyph unicode="&#xae;" horiz-adv-x="1980" d="M117 524q0 183 64.5 341t178.5 270t276.5 175.5t352.5 63.5q191 0 354.5 -63t278 -174t179.5 -269.5t65 -343.5q0 -250 -111 -445.5t-311 -304t-455 -108.5q-190 0 -352.5 63.5t-276.5 175.5t-178.5 272t-64.5 347zM274 524q0 -156 53 -289.5t147 -227.5t227.5 -147 t289.5 -53t289.5 53t227.5 147t147 227.5t53 289.5q0 203 -90.5 364.5t-254.5 253t-372 91.5t-372 -91.5t-254.5 -253t-90.5 -364.5zM633 20v1020h457q153 0 250.5 -87.5t97.5 -221.5q0 -111 -67 -189.5t-179 -103.5l233 -418h-186l-213 402h-227v-402h-166zM799 539h268 q90 0 146.5 53.5t56.5 140.5t-57.5 136t-155.5 49h-258v-379z" />
<glyph unicode="&#xaf;" horiz-adv-x="856" d="M98 1243v143h660v-143h-660z" />
<glyph unicode="&#xb0;" horiz-adv-x="1046" d="M98 1110q0 183 117 295.5t309 112.5q190 0 307 -112.5t117 -295.5t-117 -295.5t-307 -112.5q-192 0 -309 112.5t-117 295.5zM264 1110q0 -117 71 -188.5t189 -71.5q116 0 187 71.5t71 188.5t-71 188.5t-187 71.5q-118 0 -189 -71.5t-71 -188.5z" />
<glyph unicode="&#xb1;" horiz-adv-x="1159" d="M98 0v184h963v-184h-963zM98 627v184h377v229h209v-229h377v-184h-377v-242h-209v242h-377z" />
<glyph unicode="&#xb4;" horiz-adv-x="690" d="M98 1167l254 344h234l-283 -344h-205z" />
<glyph unicode="&#xb6;" horiz-adv-x="1542" d="M98 1049q2 180 128 290.5t331 110.5h819v-166h-192v-1730h-197v1730h-231v-1730h-199v1093q-209 0 -335 111t-124 291z" />
<glyph unicode="&#xb7;" horiz-adv-x="471" d="M98 594q0 58 39 95.5t99 37.5q61 0 99 -37t38 -96t-38 -97t-99 -38q-60 0 -99 38t-39 97z" />
<glyph unicode="&#xb8;" horiz-adv-x="659" d="M98 -393l97 37q13 -41 47.5 -68t72.5 -27q51 0 81 30t30 81q0 56 -38 89.5t-101 33.5h-90l36 246h127l-24 -172q100 0 162.5 -57t62.5 -150q0 -91 -65.5 -147t-171.5 -56q-85 0 -148 44.5t-78 115.5z" />
<glyph unicode="&#xbb;" horiz-adv-x="1370" d="M115 0l403 522l-403 518h252l395 -518l-395 -522h-252zM625 0l403 522l-403 518h252l397 -518l-397 -522h-252z" />
<glyph unicode="&#xbf;" horiz-adv-x="1267" d="M117 -39q0 68 18 123t55.5 99.5t77.5 77t101 71.5q89 57 126 121t37 180h216q0 -110 -25.5 -190.5t-68.5 -131t-113 -100.5q-45 -32 -69.5 -51.5t-54.5 -50.5t-43.5 -65.5t-13.5 -74.5q0 -101 75.5 -170t185.5 -69q123 0 206.5 85.5t98.5 219.5l225 -41 q-23 -206 -172 -337.5t-365 -131.5q-212 0 -354.5 123.5t-142.5 312.5zM504 920q0 60 38.5 98.5t98.5 38.5t98.5 -38.5t38.5 -98.5q0 -59 -38.5 -97.5t-98.5 -38.5t-98.5 38.5t-38.5 97.5z" />
<glyph unicode="&#xc0;" horiz-adv-x="1501" d="M55 0l518 1450h357l516 -1450h-260l-96 270h-676l-97 -270h-262zM389 1896h242l231 -303h-221zM467 455h571l-286 782z" />
<glyph unicode="&#xc1;" horiz-adv-x="1501" d="M55 0l518 1450h357l516 -1450h-260l-96 270h-676l-97 -270h-262zM467 455h571l-286 782zM627 1593l231 303h240l-250 -303h-221z" />
<glyph unicode="&#xc2;" horiz-adv-x="1501" d="M55 0l518 1450h357l516 -1450h-260l-96 270h-676l-97 -270h-262zM401 1593l240 303h229l242 -303h-190l-166 195l-164 -195h-191zM467 455h571l-286 782z" />
<glyph unicode="&#xc3;" horiz-adv-x="1501" d="M55 0l518 1450h357l516 -1450h-260l-96 270h-676l-97 -270h-262zM383 1739q30 70 96 114.5t144 44.5q50 0 94 -18t70.5 -40t60 -40t63.5 -18q39 0 72.5 25t54.5 67l113 -74q-30 -71 -97 -114.5t-153 -43.5q-53 0 -97.5 18.5t-69.5 40t-56 40t-60 18.5q-68 0 -124 -94z M467 455h571l-286 782z" />
<glyph unicode="&#xc4;" horiz-adv-x="1501" d="M55 0l518 1450h357l516 -1450h-260l-96 270h-676l-97 -270h-262zM387 1739q0 57 37 93t96 36q58 0 94.5 -36t36.5 -93q0 -59 -36.5 -95t-94.5 -36q-59 0 -96 36.5t-37 94.5zM467 455h571l-286 782zM862 1739q0 57 37 93t96 36q57 0 94 -36t37 -93q0 -58 -37 -94.5 t-94 -36.5q-59 0 -96 36.5t-37 94.5z" />
<glyph unicode="&#xc5;" horiz-adv-x="1501" d="M55 0l518 1450h357l516 -1450h-260l-96 270h-676l-97 -270h-262zM467 455h571l-286 782zM537 1747q0 86 59.5 141.5t151.5 55.5q94 0 153.5 -55.5t59.5 -143.5q1 -86 -58 -141.5t-153 -55.5q-92 0 -152.5 56.5t-60.5 142.5zM672 1747q0 -35 22 -57.5t56 -22.5 q35 0 57 22.5t22 57.5q-2 34 -23 56t-56 22q-34 0 -56 -22t-22 -56z" />
<glyph unicode="&#xc6;" horiz-adv-x="1986" d="M55 0l742 1450h1052v-209h-651v-410h569v-190h-571v-432h674v-209h-895v270h-508l-137 -270h-275zM559 463h416v815z" />
<glyph unicode="&#xc7;" horiz-adv-x="1687" d="M117 725q0 223 97 400t270 276.5t390 99.5q253 0 450 -152.5t247 -385.5l-236 -29q-37 154 -166 253t-292 99q-226 0 -370.5 -157.5t-144.5 -403.5q2 -246 146.5 -404.5t368.5 -158.5q160 0 289.5 96.5t170.5 245.5l234 -39q-46 -210 -223.5 -352.5t-411.5 -161.5 l-12 -94q100 0 162.5 -57t62.5 -150q0 -91 -66 -147t-172 -56q-85 0 -147.5 44.5t-77.5 115.5l96 37q13 -41 48 -68t73 -27q51 0 81 30t30 81q0 55 -38.5 89t-101.5 34h-90l25 168q-151 11 -279.5 74t-219.5 164t-142.5 239.5t-50.5 296.5z" />
<glyph unicode="&#xc8;" horiz-adv-x="1325" d="M186 0v1450h1004v-209h-766v-399h684v-189h-684v-444h786v-209h-1024zM324 1896h241l232 -303h-222z" />
<glyph unicode="&#xc9;" horiz-adv-x="1325" d="M186 0v1450h1004v-209h-766v-399h684v-189h-684v-444h786v-209h-1024zM561 1593l232 303h241l-252 -303h-221z" />
<glyph unicode="&#xca;" horiz-adv-x="1325" d="M186 0v1450h1004v-209h-766v-399h684v-189h-684v-444h786v-209h-1024zM336 1593l242 303h227l242 -303h-191l-166 195l-162 -195h-192z" />
<glyph unicode="&#xcb;" horiz-adv-x="1325" d="M186 0v1450h1004v-209h-766v-399h684v-189h-684v-444h786v-209h-1024zM324 1739q0 57 36.5 93t94.5 36q59 0 96 -36t37 -93q0 -58 -37 -94.5t-96 -36.5t-95 36t-36 95zM797 1739q0 57 37 93t96 36q58 0 94.5 -36t36.5 -93q0 -59 -36.5 -95t-94.5 -36q-59 0 -96 36.5 t-37 94.5z" />
<glyph unicode="&#xcc;" horiz-adv-x="620" d="M-57 1896h241l232 -303h-221zM188 0v1450h246v-1450h-246z" />
<glyph unicode="&#xcd;" horiz-adv-x="626" d="M180 1593l232 303h239l-250 -303h-221zM188 0v1450h246v-1450h-246z" />
<glyph unicode="&#xce;" horiz-adv-x="620" d="M-45 1593l242 303h227l242 -303h-191l-166 195l-162 -195h-192zM188 0v1450h246v-1450h-246z" />
<glyph unicode="&#xcf;" horiz-adv-x="620" d="M-59 1739q0 57 37 93t94 36q59 0 96 -36t37 -93q0 -58 -37 -94.5t-96 -36.5q-57 0 -94 36.5t-37 94.5zM186 0v1450h246v-1450h-246zM416 1739q0 57 36.5 93t94.5 36q59 0 96 -36t37 -93q0 -58 -37 -94.5t-96 -36.5t-95 36t-36 95z" />
<glyph unicode="&#xd1;" horiz-adv-x="1581" d="M186 0v1450h299l670 -1151v1151h240v-1450h-299l-668 1151v-1151h-242zM418 1739q30 70 95.5 114.5t143.5 44.5q50 0 94.5 -18t71 -40t60 -40t63.5 -18q39 0 72.5 25t54.5 67l113 -74q-30 -71 -97 -114.5t-153 -43.5q-53 0 -97.5 18.5t-69.5 40t-56 40t-60 18.5 q-69 0 -125 -94z" />
<glyph unicode="&#xd2;" horiz-adv-x="1812" d="M117 725q0 225 99.5 402t279 275.5t409.5 98.5q173 0 320.5 -57.5t250.5 -159.5t161.5 -246t58.5 -313q0 -226 -100 -403t-280 -275t-411 -98q-172 0 -319 57.5t-250 159t-161 246t-58 313.5zM362 725q0 -246 152.5 -403.5t390.5 -159.5q239 0 392 158.5t153 404.5 t-153 403.5t-392 157.5q-238 0 -390.5 -157.5t-152.5 -403.5zM539 1896h241l232 -303h-221z" />
<glyph unicode="&#xd3;" horiz-adv-x="1812" d="M117 725q0 225 99.5 402t279 275.5t409.5 98.5q173 0 320.5 -57.5t250.5 -159.5t161.5 -246t58.5 -313q0 -226 -100 -403t-280 -275t-411 -98q-172 0 -319 57.5t-250 159t-161 246t-58 313.5zM362 725q0 -246 152.5 -403.5t390.5 -159.5q239 0 392 158.5t153 404.5 t-153 403.5t-392 157.5q-238 0 -390.5 -157.5t-152.5 -403.5zM776 1593l230 303h241l-250 -303h-221z" />
<glyph unicode="&#xd4;" horiz-adv-x="1812" d="M117 725q0 225 99.5 402t279 275.5t409.5 98.5q173 0 320.5 -57.5t250.5 -159.5t161.5 -246t58.5 -313q0 -226 -100 -403t-280 -275t-411 -98q-172 0 -319 57.5t-250 159t-161 246t-58 313.5zM362 725q0 -246 152.5 -403.5t390.5 -159.5q239 0 392 158.5t153 404.5 t-153 403.5t-392 157.5q-238 0 -390.5 -157.5t-152.5 -403.5zM551 1593l240 303h229l242 -303h-191l-166 195l-164 -195h-190z" />
<glyph unicode="&#xd5;" horiz-adv-x="1812" d="M117 725q0 225 99.5 402t279 275.5t409.5 98.5q173 0 320.5 -57.5t250.5 -159.5t161.5 -246t58.5 -313q0 -226 -100 -403t-280 -275t-411 -98q-172 0 -319 57.5t-250 159t-161 246t-58 313.5zM362 725q0 -246 152.5 -403.5t390.5 -159.5q239 0 392 158.5t153 404.5 t-153 403.5t-392 157.5q-238 0 -390.5 -157.5t-152.5 -403.5zM532 1739q30 70 96 114.5t144 44.5q50 0 94.5 -18t71 -40t60 -40t63.5 -18q39 0 72.5 25t54.5 67l112 -74q-30 -71 -96.5 -114.5t-152.5 -43.5q-53 0 -97.5 18.5t-69.5 40t-56 40t-60 18.5q-69 0 -125 -94z" />
<glyph unicode="&#xd6;" horiz-adv-x="1812" d="M117 725q0 225 99.5 402t279 275.5t409.5 98.5q173 0 320.5 -57.5t250.5 -159.5t161.5 -246t58.5 -313q0 -226 -100 -403t-280 -275t-411 -98q-172 0 -319 57.5t-250 159t-161 246t-58 313.5zM362 725q0 -246 152.5 -403.5t390.5 -159.5q239 0 392 158.5t153 404.5 t-153 403.5t-392 157.5q-238 0 -390.5 -157.5t-152.5 -403.5zM537 1739q0 57 37 93t96 36q58 0 94.5 -36t36.5 -93q0 -59 -36.5 -95t-94.5 -36q-59 0 -96 36.5t-37 94.5zM1012 1739q0 57 37 93t96 36q57 0 94 -36t37 -93q0 -58 -37 -94.5t-94 -36.5q-59 0 -96 36.5t-37 94.5 z" />
<glyph unicode="&#xd7;" horiz-adv-x="851" d="M98 393l201 213l-201 213l131 129l197 -209l197 209l131 -129l-201 -213l201 -213l-129 -129l-199 207l-197 -209z" />
<glyph unicode="&#xd8;" horiz-adv-x="1771" d="M117 725q0 223 98.5 400t274 276.5t395.5 99.5q153 0 286 -51l158 311l197 2l-197 -391q153 -103 239.5 -271.5t86.5 -375.5q0 -167 -57.5 -311t-158.5 -246.5t-244.5 -160.5t-309.5 -58q-131 0 -256 39l-137 -275h-195l174 346q-166 99 -260 273.5t-94 392.5zM362 725 q0 -145 56.5 -263.5t156.5 -193.5l498 985q-94 33 -188 33q-227 0 -375 -158.5t-148 -402.5zM729 184q77 -22 156 -22q229 0 376.5 158.5t147.5 404.5q0 135 -49.5 248.5t-138.5 187.5z" />
<glyph unicode="&#xd9;" horiz-adv-x="1579" d="M174 592v858h248v-854q0 -113 44.5 -211t130 -160t194.5 -63q163 0 264.5 122.5t101.5 311.5v854h248v-858q0 -185 -78.5 -332t-218.5 -229t-317 -82q-133 0 -248 48t-196 132.5t-127 204t-46 258.5zM422 1896h242l231 -303h-221z" />
<glyph unicode="&#xda;" horiz-adv-x="1579" d="M174 592v858h248v-854q0 -113 44.5 -211t130 -160t194.5 -63q163 0 264.5 122.5t101.5 311.5v854h248v-858q0 -185 -78.5 -332t-218.5 -229t-317 -82q-133 0 -248 48t-196 132.5t-127 204t-46 258.5zM659 1593l232 303h242l-252 -303h-222z" />
<glyph unicode="&#xdb;" horiz-adv-x="1579" d="M174 592v858h248v-854q0 -113 44.5 -211t130 -160t194.5 -63q163 0 264.5 122.5t101.5 311.5v854h248v-858q0 -185 -78.5 -332t-218.5 -229t-317 -82q-133 0 -248 48t-196 132.5t-127 204t-46 258.5zM434 1593l242 303h227l242 -303h-191l-166 195l-163 -195h-191z" />
<glyph unicode="&#xdc;" horiz-adv-x="1579" d="M174 592v858h248v-854q0 -113 44.5 -211t130 -160t194.5 -63q163 0 264.5 122.5t101.5 311.5v854h248v-858q0 -185 -78.5 -332t-218.5 -229t-317 -82q-133 0 -248 48t-196 132.5t-127 204t-46 258.5zM422 1739q0 57 36.5 93t94.5 36q59 0 96 -36t37 -93q0 -58 -37 -94.5 t-96 -36.5t-95 36t-36 95zM895 1739q0 57 37 93t96 36q58 0 94.5 -36t36.5 -93q0 -59 -36.5 -95t-94.5 -36q-59 0 -96 36.5t-37 94.5z" />
<glyph unicode="&#xdd;" horiz-adv-x="1394" d="M55 1450h267l378 -707l369 707h272l-518 -934v-516h-245v516zM567 1593l232 303h239l-250 -303h-221z" />
<glyph unicode="&#xdf;" horiz-adv-x="1462" d="M166 0v983q0 222 149 364t385 142q220 0 361 -114.5t141 -291.5q0 -118 -59.5 -203t-153.5 -102q147 -22 241.5 -137t94.5 -274q0 -181 -128.5 -299.5t-322.5 -118.5q-157 0 -337 90l59 182q135 -76 246 -76q105 0 171 69t66 175q0 133 -75 212t-228 79h-92v176h94 q81 0 133 59t52 150q0 98 -75 161.5t-192 63.5q-128 0 -206 -87t-78 -234v-969h-246z" />
<glyph unicode="&#xe0;" horiz-adv-x="1378" d="M98 520q0 161 66.5 289t186 200t270.5 72q120 0 220 -51.5t167 -144.5v155h223v-1040h-223v156q-67 -93 -167 -145t-220 -52q-151 0 -270.5 72t-186 200t-66.5 289zM268 1507h232l256 -344h-205zM319 520q0 -157 98 -259.5t247 -102.5t245.5 102t96.5 260t-96.5 260.5 t-245.5 102.5q-150 0 -247.5 -102.5t-97.5 -260.5z" />
<glyph unicode="&#xe1;" horiz-adv-x="1378" d="M98 520q0 161 66.5 289t186 200t270.5 72q120 0 220 -51.5t167 -144.5v155h223v-1040h-223v156q-67 -93 -167 -145t-220 -52q-151 0 -270.5 72t-186 200t-66.5 289zM319 520q0 -157 98 -259.5t247 -102.5t245.5 102t96.5 260t-96.5 260.5t-245.5 102.5 q-150 0 -247.5 -102.5t-97.5 -260.5zM524 1163l254 344h234l-285 -344h-203z" />
<glyph unicode="&#xe2;" horiz-adv-x="1378" d="M98 520q0 161 66.5 289t186 200t270.5 72q120 0 220 -51.5t167 -144.5v155h223v-1040h-223v156q-67 -93 -167 -145t-220 -52q-151 0 -270.5 72t-186 200t-66.5 289zM295 1163l235 344h228l239 -344h-188l-164 234l-166 -234h-184zM319 520q0 -157 98 -259.5t247 -102.5 t245.5 102t96.5 260t-96.5 260.5t-245.5 102.5q-150 0 -247.5 -102.5t-97.5 -260.5z" />
<glyph unicode="&#xe3;" horiz-adv-x="1378" d="M98 520q0 161 66.5 289t186 200t270.5 72q120 0 220 -51.5t167 -144.5v155h223v-1040h-223v156q-67 -93 -167 -145t-220 -52q-151 0 -270.5 72t-186 200t-66.5 289zM299 1272q30 69 97 113.5t145 44.5q48 0 91.5 -18.5t70.5 -40t61.5 -40t66.5 -18.5q38 0 71 21.5 t50 56.5l113 -60q-30 -70 -97 -113.5t-153 -43.5q-53 0 -98 18t-70.5 39t-58.5 39t-64 18q-71 0 -114 -74zM319 520q0 -157 98 -259.5t247 -102.5t245.5 102t96.5 260t-96.5 260.5t-245.5 102.5q-150 0 -247.5 -102.5t-97.5 -260.5z" />
<glyph unicode="&#xe4;" horiz-adv-x="1378" d="M98 520q0 161 66.5 289t186 200t270.5 72q120 0 220 -51.5t167 -144.5v155h223v-1040h-223v156q-67 -93 -167 -145t-220 -52q-151 0 -270.5 72t-186 200t-66.5 289zM256 1317q0 55 37 91t94 36q58 0 95.5 -35.5t37.5 -91.5q0 -57 -37 -93t-96 -36q-57 0 -94 36t-37 93z M319 520q0 -157 98 -259.5t247 -102.5t245.5 102t96.5 260t-96.5 260.5t-245.5 102.5q-150 0 -247.5 -102.5t-97.5 -260.5zM766 1317q0 55 37 91t94 36q58 0 95.5 -35.5t37.5 -91.5q0 -57 -37 -93t-96 -36q-57 0 -94 36t-37 93z" />
<glyph unicode="&#xe5;" horiz-adv-x="1378" d="M98 520q0 161 66.5 289t186 200t270.5 72q120 0 220 -51.5t167 -144.5v155h223v-1040h-223v156q-67 -93 -167 -145t-220 -52q-151 0 -270.5 72t-186 200t-66.5 289zM319 520q0 -157 98 -259.5t247 -102.5t245.5 102t96.5 260t-96.5 260.5t-245.5 102.5 q-150 0 -247.5 -102.5t-97.5 -260.5zM381 1389q0 109 73 177t189 68q115 0 187.5 -68t72.5 -177q0 -108 -72.5 -177t-187.5 -69t-188.5 69t-73.5 177zM516 1389q0 -56 35 -91.5t92 -35.5q55 0 91 36t36 91q0 57 -35.5 92t-91.5 35q-57 0 -92.5 -35t-34.5 -92z" />
<glyph unicode="&#xe6;" horiz-adv-x="2193" d="M98 520q0 245 145 403t369 158q119 0 219.5 -50t169.5 -140v149h160v-170q56 100 155 155.5t236 55.5q237 0 390 -155.5t153 -393.5q0 -40 -4 -106h-872q25 -127 117 -204t223 -77q103 0 184.5 54t103.5 137l203 -27q-28 -152 -163 -251t-316 -99q-134 0 -245.5 59.5 t-164.5 157.5v-176h-160v147q-68 -90 -168.5 -139t-220.5 -49q-148 0 -265 71.5t-183 199.5t-66 290zM319 520q0 -164 98 -271.5t249 -107.5q149 0 247.5 105t98.5 274q0 166 -97.5 272.5t-248.5 106.5q-152 0 -249.5 -106.5t-97.5 -272.5zM1212 586h660q-6 133 -99.5 220 t-234.5 87q-131 0 -220 -84.5t-106 -222.5z" />
<glyph unicode="&#xe7;" horiz-adv-x="1265" d="M98 520q0 244 155.5 402.5t393.5 158.5q198 0 344 -111.5t174 -283.5l-213 -27q-25 101 -110.5 166.5t-192.5 65.5q-139 0 -234.5 -105.5t-95.5 -265.5q1 -161 95.5 -265.5t234.5 -104.5q109 0 193 64t112 165l213 -27q-29 -153 -151 -259.5t-291 -129.5l-14 -106 q101 0 163 -56.5t62 -150.5q0 -91 -65.5 -147t-172.5 -56q-83 0 -146.5 45t-78.5 115l96 37q15 -41 49 -68t72 -27q51 0 81 30t30 81q0 56 -37.5 89.5t-101.5 33.5h-91l27 178q-221 17 -360.5 172.5t-139.5 386.5z" />
<glyph unicode="&#xe8;" horiz-adv-x="1306" d="M98 532q0 239 157 394t400 155t398 -154.5t155 -396.5q0 -29 -4 -79l-876 2q20 -139 109 -223.5t216 -84.5q105 0 192 55.5t116 141.5l208 -31q-44 -154 -188.5 -253t-323.5 -99q-244 0 -401.5 161t-157.5 412zM285 1507h233l254 -344h-205zM330 616h647 q-19 124 -109.5 201.5t-218.5 77.5q-125 0 -211 -76.5t-108 -202.5z" />
<glyph unicode="&#xe9;" horiz-adv-x="1306" d="M98 532q0 239 157 394t400 155t398 -154.5t155 -396.5q0 -29 -4 -79l-876 2q20 -139 109 -223.5t216 -84.5q105 0 192 55.5t116 141.5l208 -31q-44 -154 -188.5 -253t-323.5 -99q-244 0 -401.5 161t-157.5 412zM330 616h647q-19 124 -109.5 201.5t-218.5 77.5 q-125 0 -211 -76.5t-108 -202.5zM541 1163l254 344h233l-283 -344h-204z" />
<glyph unicode="&#xea;" horiz-adv-x="1306" d="M98 532q0 239 157 394t400 155t398 -154.5t155 -396.5q0 -29 -4 -79l-876 2q20 -139 109 -223.5t216 -84.5q105 0 192 55.5t116 141.5l208 -31q-44 -154 -188.5 -253t-323.5 -99q-244 0 -401.5 161t-157.5 412zM311 1163l238 344h225l240 -344h-189l-163 234l-164 -234 h-187zM330 616h647q-19 124 -109.5 201.5t-218.5 77.5q-125 0 -211 -76.5t-108 -202.5z" />
<glyph unicode="&#xeb;" horiz-adv-x="1306" d="M98 532q0 239 157 394t400 155t398 -154.5t155 -396.5q0 -29 -4 -79l-876 2q20 -139 109 -223.5t216 -84.5q105 0 192 55.5t116 141.5l208 -31q-44 -154 -188.5 -253t-323.5 -99q-244 0 -401.5 161t-157.5 412zM272 1317q0 55 37.5 91t96.5 36q57 0 94 -36t37 -91 q0 -57 -37 -93t-94 -36q-59 0 -96.5 36t-37.5 93zM330 616h647q-19 124 -109.5 201.5t-218.5 77.5q-125 0 -211 -76.5t-108 -202.5zM782 1317q0 56 37.5 91.5t95.5 35.5q57 0 94.5 -36t37.5 -91q0 -57 -37.5 -93t-94.5 -36q-59 0 -96 36t-37 93z" />
<glyph unicode="&#xec;" horiz-adv-x="524" d="M-111 1507h234l254 -344h-203zM156 0v1040h221v-1040h-221z" />
<glyph unicode="&#xed;" horiz-adv-x="532" d="M145 1163l256 344h232l-283 -344h-205zM156 0v1040h221v-1040h-221z" />
<glyph unicode="&#xee;" horiz-adv-x="524" d="M-90 1163l237 344h228l237 -344h-186l-164 234l-166 -234h-186zM147 0v1040h224v-1040h-224z" />
<glyph unicode="&#xef;" horiz-adv-x="538" d="M-119 1317q0 56 37.5 91.5t95.5 35.5t94.5 -35.5t36.5 -91.5q0 -57 -36.5 -93t-94.5 -36q-59 0 -96 36t-37 93zM158 0v1040h223v-1040h-223zM391 1317q0 56 37.5 91.5t95.5 35.5t94.5 -35.5t36.5 -91.5q0 -57 -36.5 -93t-94.5 -36q-59 0 -96 36t-37 93z" />
<glyph unicode="&#xf1;" d="M147 0v1040h220v-133q55 81 145.5 127.5t192.5 46.5q188 0 303.5 -125t115.5 -321v-635h-221v618q0 118 -66.5 191.5t-181.5 73.5q-119 0 -201.5 -81t-82.5 -204v-598h-224zM256 1272q30 69 97 113.5t145 44.5q48 0 92 -18.5t71 -40t62 -40t68 -18.5q38 0 69 21t49 57 l113 -60q-30 -70 -96.5 -113.5t-151.5 -43.5q-53 0 -98 18t-70.5 39t-58.5 39t-64 18q-73 0 -116 -74z" />
<glyph unicode="&#xf2;" horiz-adv-x="1327" d="M98 520q0 248 158 404.5t408 156.5q249 0 407 -157t158 -404t-158 -404t-407 -157q-250 0 -408 156.5t-158 404.5zM289 1507h231l256 -344h-205zM319 520q0 -158 97 -260t248 -102q149 0 245.5 102t96.5 260t-96.5 260.5t-245.5 102.5q-151 0 -248 -102.5t-97 -260.5z " />
<glyph unicode="&#xf3;" horiz-adv-x="1327" d="M98 520q0 248 158 404.5t408 156.5q249 0 407 -157t158 -404t-158 -404t-407 -157q-250 0 -408 156.5t-158 404.5zM319 520q0 -158 97 -260t248 -102q149 0 245.5 102t96.5 260t-96.5 260.5t-245.5 102.5q-151 0 -248 -102.5t-97 -260.5zM545 1163l254 344h233l-284 -344 h-203z" />
<glyph unicode="&#xf4;" horiz-adv-x="1327" d="M98 520q0 248 158 404.5t408 156.5q249 0 407 -157t158 -404t-158 -404t-407 -157q-250 0 -408 156.5t-158 404.5zM315 1163l236 344h227l240 -344h-189l-163 234l-166 -234h-185zM319 520q0 -158 97 -260t248 -102q149 0 245.5 102t96.5 260t-96.5 260.5t-245.5 102.5 q-151 0 -248 -102.5t-97 -260.5z" />
<glyph unicode="&#xf5;" horiz-adv-x="1327" d="M98 520q0 248 158 404.5t408 156.5q249 0 407 -157t158 -404t-158 -404t-407 -157q-250 0 -408 156.5t-158 404.5zM301 1272q30 69 97 113.5t145 44.5q48 0 92 -18.5t70.5 -40t61.5 -40t67 -18.5q39 0 70.5 21t49.5 57l113 -60q-30 -70 -96.5 -113.5t-151.5 -43.5 q-53 0 -98 18t-70.5 39t-58.5 39t-64 18q-73 0 -116 -74zM319 520q0 -158 97 -260t248 -102q149 0 245.5 102t96.5 260t-96.5 260.5t-245.5 102.5q-151 0 -248 -102.5t-97 -260.5z" />
<glyph unicode="&#xf6;" horiz-adv-x="1327" d="M98 520q0 248 158 404.5t408 156.5q249 0 407 -157t158 -404t-158 -404t-407 -157q-250 0 -408 156.5t-158 404.5zM276 1317q0 55 37.5 91t94.5 36q58 0 95.5 -35.5t37.5 -91.5q0 -57 -37 -93t-96 -36q-57 0 -94.5 36t-37.5 93zM319 520q0 -158 97 -260t248 -102 q149 0 245.5 102t96.5 260t-96.5 260.5t-245.5 102.5q-151 0 -248 -102.5t-97 -260.5zM786 1317q0 55 37.5 91t94.5 36q58 0 95.5 -35.5t37.5 -91.5q0 -57 -37 -93t-96 -36q-57 0 -94.5 36t-37.5 93z" />
<glyph unicode="&#xf7;" horiz-adv-x="1118" d="M98 492v186h922v-186h-922zM438 160q0 51 34 83.5t87 32.5t87 -32.5t34 -83.5q0 -52 -34 -85.5t-87 -33.5t-87 33.5t-34 85.5zM438 983q0 51 34 84t87 33t87 -33t34 -84q0 -52 -34 -85.5t-87 -33.5t-87 33.5t-34 85.5z" />
<glyph unicode="&#xf8;" horiz-adv-x="1343" d="M98 520q0 248 160.5 404.5t413.5 156.5q106 0 198 -30l88 178h179l-125 -246q109 -75 171 -195t62 -268q0 -247 -160.5 -404t-412.5 -157q-88 0 -168 21l-70 -144h-178l102 203q-123 71 -191.5 196t-68.5 285zM297 520q0 -101 38 -183.5t107 -135.5l351 696 q-56 18 -121 18q-164 0 -269.5 -111.5t-105.5 -283.5zM582 133q39 -8 90 -8q163 0 267.5 111t104.5 284q0 182 -118 297z" />
<glyph unicode="&#xf9;" d="M127 406v634h223v-618q0 -118 66 -191t182 -73q118 0 201.5 81t83.5 203v598h221v-1040h-219v133q-53 -81 -144 -127.5t-192 -46.5q-190 0 -306 125.5t-116 321.5zM258 1505h231l256 -344h-204z" />
<glyph unicode="&#xfa;" d="M127 406v634h223v-618q0 -118 66 -191t182 -73q118 0 201.5 81t83.5 203v598h221v-1040h-219v133q-53 -81 -144 -127.5t-192 -46.5q-190 0 -306 125.5t-116 321.5zM496 1161l254 344h233l-283 -344h-204z" />
<glyph unicode="&#xfb;" d="M127 406v634h223v-618q0 -118 66 -191t182 -73q118 0 201.5 81t83.5 203v598h221v-1040h-219v133q-53 -81 -144 -127.5t-192 -46.5q-190 0 -306 125.5t-116 321.5zM266 1161l238 344h225l240 -344h-189l-164 234l-163 -234h-187z" />
<glyph unicode="&#xfc;" d="M127 406v634h223v-618q0 -118 66 -191t182 -73q118 0 201.5 81t83.5 203v598h221v-1040h-219v133q-53 -81 -144 -127.5t-192 -46.5q-190 0 -306 125.5t-116 321.5zM227 1315q0 56 37.5 91.5t95.5 35.5t95 -35.5t37 -91.5q0 -57 -37 -93t-95 -36q-59 0 -96 36t-37 93z M737 1315q0 56 37.5 91.5t95.5 35.5q57 0 94 -36t37 -91q0 -57 -37 -93t-94 -36q-59 0 -96 36t-37 93z" />
<glyph unicode="&#xfd;" horiz-adv-x="1193" d="M55 1040h244l326 -768l282 768h234l-408 -1065q-31 -84 -55.5 -139t-61.5 -117t-75 -98t-92.5 -60t-118.5 -24q-102 0 -183 35v180q79 -28 138 -28q21 0 40 4.5t34.5 11t30.5 19.5t25.5 23t23 30t19.5 32t18 36.5t16.5 37t16 40t15.5 38.5zM479 1163l254 344h232 l-283 -344h-203z" />
<glyph unicode="&#xff;" horiz-adv-x="1193" d="M55 1040h244l326 -768l282 768h234l-408 -1065q-31 -84 -55.5 -139t-61.5 -117t-75 -98t-92.5 -60t-118.5 -24q-102 0 -183 35v180q79 -28 138 -28q21 0 40 4.5t34.5 11t30.5 19.5t25.5 23t23 30t19.5 32t18 36.5t16.5 37t16 40t15.5 38.5zM211 1317q0 55 37 91t94 36 q58 0 95.5 -35.5t37.5 -91.5q0 -57 -37 -93t-96 -36q-57 0 -94 36t-37 93zM721 1317q0 55 37 91t94 36q58 0 95.5 -35.5t37.5 -91.5q0 -57 -37 -93t-96 -36q-57 0 -94 36t-37 93z" />
<glyph unicode="&#x152;" horiz-adv-x="2189" d="M117 725q0 224 95 396.5t267.5 267t394.5 94.5q146 0 252 -33h926v-209h-688v-410h606v-190h-606v-432h709v-209h-947q-112 -33 -252 -33q-222 0 -394.5 94.5t-267.5 267t-95 396.5zM362 725q0 -238 145 -390.5t367 -152.5q163 0 246 39v1006q-84 41 -227 41 q-232 0 -381.5 -151t-149.5 -392z" />
<glyph unicode="&#x153;" horiz-adv-x="2215" d="M98 520q0 248 158 404.5t408 156.5q147 0 263.5 -58.5t188.5 -164.5q71 106 188.5 164.5t264.5 58.5q240 0 394.5 -155t154.5 -396q0 -31 -4 -77h-877q20 -138 109.5 -223t216.5 -85q104 0 191 56t116 141l207 -33q-46 -152 -189 -251t-317 -99q-146 0 -262.5 60 t-188.5 167q-72 -108 -189 -167.5t-267 -59.5q-250 0 -408 156.5t-158 404.5zM319 520q0 -158 97 -260t248 -102q149 0 245.5 102t96.5 260t-96.5 260.5t-245.5 102.5q-151 0 -248 -102.5t-97 -260.5zM1239 618l649 -2q-20 124 -110.5 201.5t-218.5 77.5 q-125 0 -211.5 -76.5t-108.5 -200.5z" />
<glyph unicode="&#x178;" horiz-adv-x="1394" d="M55 1450h267l378 -707l369 707h272l-518 -934v-516h-245v516zM328 1739q0 57 37 93t96 36q58 0 94.5 -36t36.5 -93q0 -59 -36 -95t-95 -36t-96 36.5t-37 94.5zM803 1739q0 57 37 93t96 36q57 0 94 -36t37 -93q0 -58 -37 -94.5t-94 -36.5q-59 0 -96 36.5t-37 94.5z" />
<glyph unicode="&#x2c6;" horiz-adv-x="899" d="M98 1167l238 344h225l240 -344h-189l-163 234l-164 -234h-187z" />
<glyph unicode="&#x2dc;" horiz-adv-x="962" d="M98 1272q30 70 96.5 114t145.5 44q48 0 92 -18.5t70.5 -40t61.5 -40t67 -18.5q39 0 71 21.5t50 56.5l112 -58q-30 -71 -97 -115t-151 -44q-53 0 -97.5 18t-70 39t-58.5 39t-64 18q-76 0 -117 -74z" />
<glyph unicode="&#x2000;" horiz-adv-x="972" />
<glyph unicode="&#x2001;" horiz-adv-x="1944" />
<glyph unicode="&#x2002;" horiz-adv-x="972" />
<glyph unicode="&#x2003;" horiz-adv-x="1944" />
<glyph unicode="&#x2004;" horiz-adv-x="648" />
<glyph unicode="&#x2005;" horiz-adv-x="486" />
<glyph unicode="&#x2006;" horiz-adv-x="324" />
<glyph unicode="&#x2007;" horiz-adv-x="324" />
<glyph unicode="&#x2008;" horiz-adv-x="243" />
<glyph unicode="&#x2009;" horiz-adv-x="388" />
<glyph unicode="&#x200a;" horiz-adv-x="108" />
<glyph unicode="&#x2010;" horiz-adv-x="1036" d="M98 541v192h840v-192h-840z" />
<glyph unicode="&#x2011;" horiz-adv-x="1036" d="M98 541v192h840v-192h-840z" />
<glyph unicode="&#x2012;" horiz-adv-x="1036" d="M98 541v192h840v-192h-840z" />
<glyph unicode="&#x2013;" horiz-adv-x="1363" d="M98 541v192h1168v-192h-1168z" />
<glyph unicode="&#x2014;" horiz-adv-x="1697" d="M59 541v192h1577v-192h-1577z" />
<glyph unicode="&#x2018;" horiz-adv-x="481" d="M98 1155q0 106 47.5 205.5t122.5 148.5l109 -57q-54 -40 -88.5 -100t-34.5 -115q57 0 92 -36.5t35 -96.5q0 -58 -38 -95.5t-97 -37.5q-66 0 -107 50.5t-41 133.5z" />
<glyph unicode="&#x2019;" horiz-adv-x="481" d="M100 1360q0 58 38.5 95.5t97.5 37.5q66 0 106.5 -51t40.5 -135q0 -104 -48 -203.5t-122 -149.5l-111 58q55 40 90 99.5t35 113.5q-57 0 -92 37.5t-35 97.5z" />
<glyph unicode="&#x201a;" horiz-adv-x="481" d="M100 106q0 58 38.5 96t97.5 38q66 0 106.5 -51t40.5 -136q0 -105 -48 -204t-122 -150l-111 59q55 40 90 99.5t35 113.5q-57 0 -92 37.5t-35 97.5z" />
<glyph unicode="&#x201c;" horiz-adv-x="874" d="M102 1155q0 105 48 204.5t122 149.5l111 -57q-55 -40 -90 -99.5t-35 -115.5q57 0 92 -36.5t35 -96.5q0 -58 -38 -95.5t-97 -37.5q-66 0 -107 50.5t-41 133.5zM487 1155q0 105 48 204.5t122 149.5l111 -57q-55 -40 -90 -99.5t-35 -115.5q57 0 92 -36.5t35 -96.5 q0 -58 -38 -95.5t-97 -37.5q-66 0 -107 50.5t-41 133.5z" />
<glyph unicode="&#x201d;" horiz-adv-x="868" d="M104 1366q0 58 38.5 95.5t97.5 37.5q66 0 106.5 -50.5t40.5 -133.5q0 -106 -47.5 -205.5t-122.5 -148.5l-108 57q54 40 88 100t34 115q-57 0 -92 36.5t-35 96.5zM489 1366q0 58 38.5 95.5t97.5 37.5q66 0 106.5 -50.5t40.5 -133.5q0 -105 -48 -204.5t-122 -149.5l-110 57 q55 40 89.5 99.5t34.5 115.5q-57 0 -92 36.5t-35 96.5z" />
<glyph unicode="&#x201e;" horiz-adv-x="868" d="M104 109q0 58 38.5 94.5t97.5 36.5q66 0 106.5 -51t40.5 -134q0 -106 -47.5 -204.5t-122.5 -149.5l-108 59q54 38 88 98.5t34 114.5q-57 0 -92 38t-35 98zM489 109q0 58 38.5 94.5t97.5 36.5q66 0 106.5 -51t40.5 -134q0 -106 -47.5 -204.5t-122.5 -149.5l-108 59 q54 38 88 98.5t34 114.5q-57 0 -92 38t-35 98z" />
<glyph unicode="&#x2022;" horiz-adv-x="536" d="M98 635q0 72 48 119t122 47q75 0 122.5 -47t47.5 -119t-47.5 -119t-122.5 -47q-74 0 -122 47t-48 119z" />
<glyph unicode="&#x2026;" horiz-adv-x="1261" d="M98 109q0 58 39 95.5t99 37.5q61 0 99 -37t38 -96q0 -60 -38 -99t-99 -39q-60 0 -99 39t-39 99zM494 109q0 58 38.5 95.5t98.5 37.5t98.5 -37.5t38.5 -95.5q0 -60 -38.5 -99t-98.5 -39t-98.5 39t-38.5 99zM889 109q0 58 38.5 95.5t98.5 37.5t98.5 -37.5t38.5 -95.5 q0 -60 -38.5 -99t-98.5 -39t-98.5 39t-38.5 99z" />
<glyph unicode="&#x202f;" horiz-adv-x="388" />
<glyph unicode="&#x2039;" horiz-adv-x="800" d="M55 522l396 518h251l-403 -518l403 -522h-251z" />
<glyph unicode="&#x203a;" horiz-adv-x="800" d="M98 0l404 522l-404 518h252l398 -518l-398 -522h-252z" />
<glyph unicode="&#x205f;" horiz-adv-x="486" />
<glyph unicode="&#x20ac;" horiz-adv-x="1880" d="M96 522v142h213q0 10 -1 30.5t-1 30.5q0 24 4 70h-215v141h238q62 256 260 410.5t471 154.5q255 0 451.5 -152t246.5 -386l-235 -29q-37 154 -166.5 253t-292.5 99q-171 0 -298.5 -94t-182.5 -256h534v-141h-565q-2 -23 -2 -70q0 -41 2 -61h563v-142h-534 q53 -165 182.5 -262.5t300.5 -97.5q159 0 289.5 96.5t171.5 245.5l233 -39q-50 -224 -246.5 -370t-449.5 -146q-276 0 -475.5 157t-259.5 416h-236z" />
<glyph unicode="&#x2122;" horiz-adv-x="2322" d="M39 1284v166h782v-166h-297v-977h-188v977h-297zM965 307v1143h254l340 -879l335 879h260v-1143h-182v864l-342 -864h-141l-342 864v-864h-182z" />
<glyph unicode="&#x25fc;" horiz-adv-x="1044" d="M0 0v1044h1044v-1044h-1044z" />
</font>
</defs>
</svg>
