<?xml version="1.0" standalone="no"?>
<!DOCTYPE svg PUBLIC "-//W3C//DTD SVG 1.1//EN" "http://www.w3.org/Graphics/SVG/1.1/DTD/svg11.dtd" >
<svg xmlns="http://www.w3.org/2000/svg" xmlns:xlink="http://www.w3.org/1999/xlink" version="1.1">
<metadata></metadata>
<defs>
<font id="objectivitylight_slanted" horiz-adv-x="1236" >
<font-face units-per-em="2048" ascent="1638" descent="-410" />
<missing-glyph horiz-adv-x="622" />
<glyph horiz-adv-x="0" />
<glyph horiz-adv-x="682" />
<glyph horiz-adv-x="1460" d="M127 0l127 1440h1079l-127 -1440h-1079zM240 96h870l109 1245h-871z" />
<glyph horiz-adv-x="1460" d="M127 0l127 1440h1079l-127 -1440h-1079zM240 96h870l109 1245h-871z" />
<glyph unicode="&#xd;" horiz-adv-x="61" />
<glyph unicode=" "  horiz-adv-x="622" />
<glyph unicode="&#x09;" horiz-adv-x="622" />
<glyph unicode="&#xa0;" horiz-adv-x="622" />
<glyph unicode="!" horiz-adv-x="423" d="M68 63q3 36 29.5 60t64.5 24t59.5 -23.5t18.5 -60.5q-3 -38 -29.5 -62t-63.5 -24q-38 0 -60 24t-19 62zM143 403l39 662l33 375h121l-33 -375l-78 -662h-82z" />
<glyph unicode="&#x22;" horiz-adv-x="616" d="M119 803l22 356l25 279h104l-24 -279l-39 -356h-88zM424 803l22 356l25 279h102l-22 -279l-39 -356h-88z" />
<glyph unicode="#" horiz-adv-x="1941" d="M82 500l8 92h500l131 369h-496l6 92h523l161 454h105l-162 -454h393l162 454h105l-162 -454h506l-7 -92h-532l-129 -369h526l-8 -92h-551l-176 -500h-104l176 500h-395l-179 -500h-104l178 500h-475zM694 592h396l129 369h-394z" />
<glyph unicode="$" horiz-adv-x="1425" d="M106 461h119q-15 -177 108.5 -289.5t330.5 -112.5q193 0 320.5 93.5t139.5 244.5q3 35 -3 64.5t-16.5 52t-33 42t-42 32.5t-55.5 25.5t-60.5 19.5t-70 15t-72 11.5t-77.5 10.5q-54 7 -89 12.5t-85.5 15t-83.5 20t-73.5 27t-66.5 35.5t-52 46.5t-39.5 60t-20 75t-2.5 91.5 q15 181 161 302.5t366 133.5l16 190h115l-17 -192q216 -20 343 -152t110 -323l-117 -2q14 161 -103.5 265.5t-312.5 104.5q-184 -1 -306 -89.5t-134 -227.5q-3 -35 3 -65t16.5 -53t32.5 -42.5t42 -33t55 -26t61 -19.5t70.5 -15t73 -12t78.5 -11q103 -14 160 -24.5t138.5 -38 t122.5 -63.5t69 -100t20 -150q-15 -195 -169 -323t-388 -138l-16 -199h-115l16 203q-225 22 -355.5 162.5t-111.5 345.5z" />
<glyph unicode="%" horiz-adv-x="2082" d="M135 1110q15 180 141.5 296t309.5 116q180 0 286 -116t91 -296q-17 -182 -142.5 -297t-306.5 -115q-183 0 -289.5 115.5t-89.5 296.5zM250 1110q-12 -130 65 -213.5t209 -83.5q130 0 221 83t103 214q10 130 -66 212.5t-207 82.5q-132 0 -223.5 -82.5t-101.5 -212.5z M399 0l1149 1501h138l-1149 -1501h-138zM1122 391q15 181 141 296.5t308 115.5q180 0 286 -115.5t91 -296.5q-17 -182 -142.5 -296.5t-306.5 -114.5q-182 0 -288 115t-89 296zM1235 391q-11 -130 66 -213.5t208 -83.5q130 0 221.5 84t102.5 213q11 131 -65.5 214t-206.5 83 q-131 0 -223.5 -83.5t-102.5 -213.5z" />
<glyph unicode="&#x26;" horiz-adv-x="1595" d="M106 352q7 83 38 150t82.5 116.5t107.5 84t129 65.5q-152 175 -137 348q14 154 131 254t284 100q157 0 259.5 -97.5t111.5 -250.5l-115 -20q-5 114 -74.5 187t-181.5 73q-120 0 -203.5 -70t-93.5 -180q-16 -150 158 -324q43 -44 221.5 -218.5t233.5 -231.5 q110 137 203 358h118q-114 -268 -245 -430q30 -30 138.5 -134.5t135.5 -131.5h-168l-184 180q-225 -231 -506 -231q-207 0 -332.5 114t-110.5 289zM225 356q-12 -129 84 -213t256 -84q227 0 414 193q-45 47 -214.5 215t-223.5 225q-141 -56 -222 -133.5t-94 -202.5z" />
<glyph unicode="'" horiz-adv-x="311" d="M119 803l24 356l23 281h104l-24 -281l-39 -356h-88z" />
<glyph unicode="(" horiz-adv-x="653" d="M109 573q25 278 136.5 535.5t270.5 404.5h127q-174 -157 -289.5 -409.5t-140.5 -530.5q-25 -283 47 -536t219 -406h-127q-134 147 -201 405.5t-42 536.5z" />
<glyph unicode=")" horiz-adv-x="653" d="M-25 -369q174 153 290.5 405.5t142.5 536.5q23 278 -49 530.5t-218 409.5h127q134 -147 201.5 -405t42.5 -535q-25 -278 -137 -536.5t-271 -405.5h-129z" />
<glyph unicode="*" horiz-adv-x="1034" d="M111 803l342 186l-310 185l54 79l307 -188l31 375h92l-35 -375l340 188l39 -79l-342 -185l309 -186l-53 -80l-307 188l-31 -372h-92l34 372l-337 -188z" />
<glyph unicode="+" horiz-adv-x="1171" d="M109 596l10 106h422l34 383h115l-33 -383h424l-10 -106h-424l-37 -412h-114l36 412h-423z" />
<glyph unicode="," horiz-adv-x="393" d="M80 -207q41 26 71.5 78t34.5 106q-38 0 -60.5 23.5t-19.5 60.5t30 60.5t65 23.5q41 0 64.5 -31.5t19.5 -82.5q-6 -86 -50 -166t-106 -117z" />
<glyph unicode="-" horiz-adv-x="1048" d="M125 590l10 106h840l-10 -106h-840z" />
<glyph unicode="." horiz-adv-x="378" d="M102 63q3 36 30 60t65 24q37 0 58.5 -23.5t18.5 -60.5q-3 -38 -29 -62t-63 -24q-38 0 -60.5 24t-19.5 62z" />
<glyph unicode="/" horiz-adv-x="880" d="M-29 -471l783 1911h114l-784 -1911h-113z" />
<glyph unicode="0" horiz-adv-x="1480" d="M143 719q19 221 109.5 397t235.5 275.5t317 99.5t299.5 -99.5t187.5 -275.5t41 -397t-109.5 -396.5t-235.5 -274.5t-318 -99q-172 0 -299.5 99t-187 274.5t-40.5 396.5zM264 719q-17 -190 29 -340.5t147.5 -235t239.5 -84.5t254 85t189 235t89 340t-30 340.5t-147 235.5 t-238 85q-138 0 -254.5 -85t-189.5 -235.5t-89 -340.5z" />
<glyph unicode="1" horiz-adv-x="741" d="M96 1001l13 148l393 291h92l-125 -1440h-121l111 1272z" />
<glyph unicode="2" horiz-adv-x="1216" d="M82 0l6 76l619 549q128 114 194 206t76 205q12 150 -71.5 247t-225.5 97q-141 0 -252.5 -100.5t-146.5 -261.5l-115 22q43 196 191 323.5t331 127.5q195 0 311 -129t99 -326q-7 -76 -30.5 -140.5t-71 -127.5t-100 -115.5t-138.5 -128.5l-467 -413h702l-8 -111h-903z" />
<glyph unicode="3" horiz-adv-x="1269" d="M96 424l111 18q0 -166 101.5 -274.5t258.5 -108.5q166 0 283.5 103.5t130.5 263.5t-87 263.5t-267 103.5q-94 0 -158 -33l-31 86l480 483h-660l10 111h840l-6 -82l-459 -465h10q213 0 339.5 -131t107.5 -336q-19 -207 -171 -342t-368 -135q-203 0 -334.5 135t-130.5 340z " />
<glyph unicode="4" horiz-adv-x="1169" d="M31 385l6 78l711 977h178l-82 -944h182l-10 -111h-182l-33 -385h-121l33 385h-682zM197 496h526l72 831z" />
<glyph unicode="5" horiz-adv-x="1284" d="M115 422l110 20q-3 -166 99 -274.5t262 -108.5q166 0 281.5 103.5t129.5 263.5q15 163 -97 267t-308 104h-326l121 643h709l-9 -111h-610l-76 -422h209q244 0 384.5 -134t123.5 -345q-19 -209 -171 -344t-369 -135q-204 0 -335 134t-128 339z" />
<glyph unicode="6" horiz-adv-x="1214" d="M80 449q8 78 45 166.5t88 148.5l584 676h147l-457 -527q91 37 177 37q203 -2 322.5 -140.5t100.5 -352.5q-20 -221 -172.5 -364.5t-367.5 -143.5q-222 0 -354 141.5t-113 358.5zM201 457q-14 -173 87 -285.5t271 -112.5q161 0 277 113t131 285q14 168 -82 276.5 t-258 108.5q-170 1 -290.5 -108t-135.5 -277z" />
<glyph unicode="7" horiz-adv-x="1042" d="M84 1329l10 111h969l-6 -76l-695 -1364h-131l676 1329h-823z" />
<glyph unicode="8" horiz-adv-x="1349" d="M113 375q12 146 114.5 256t253.5 139q-119 28 -186 122t-57 220q15 166 157 272.5t346 106.5q203 0 325.5 -106.5t109.5 -272.5q-10 -125 -95 -219.5t-209 -122.5q145 -29 228.5 -139t70.5 -256q-15 -186 -174.5 -306t-390.5 -120t-370.5 120t-122.5 306zM244 383 q-13 -142 92 -236t278 -94q174 0 296 93.5t134 236.5q12 142 -93.5 235t-278.5 93t-294.5 -93t-133.5 -235zM358 1102q-11 -122 81 -201.5t243 -79.5t255.5 79.5t115.5 201.5q10 121 -80.5 199.5t-241.5 78.5q-152 0 -257.5 -78.5t-115.5 -199.5z" />
<glyph unicode="9" horiz-adv-x="1214" d="M125 983q19 221 171.5 363.5t369.5 142.5q221 0 353.5 -140.5t113.5 -357.5q-8 -78 -45.5 -167.5t-88.5 -147.5l-583 -676h-150l459 526q-82 -37 -178 -37q-203 0 -322 139.5t-100 354.5zM246 983q-15 -167 81 -277t257 -110q171 0 292 109.5t134 277.5q15 172 -86 284.5 t-271 112.5q-163 -1 -277.5 -113t-129.5 -284z" />
<glyph unicode=":" horiz-adv-x="378" d="M68 63q3 36 29.5 60t62.5 24q38 0 60.5 -23.5t19.5 -60.5q-4 -38 -31 -62t-64 -24q-38 0 -59.5 24t-17.5 62zM139 889q3 36 29.5 60t62.5 24q38 0 60.5 -23.5t19.5 -60.5q-3 -38 -29.5 -62t-64.5 -24q-37 0 -59 24t-19 62z" />
<glyph unicode=";" horiz-adv-x="393" d="M43 -207q43 26 74 78t35 106q-38 0 -60.5 23.5t-19.5 60.5t29 60.5t63 23.5q43 0 66.5 -31.5t19.5 -82.5q-8 -86 -52.5 -166t-105.5 -117zM139 889q3 36 29.5 60t62.5 24q38 0 60.5 -23.5t19.5 -60.5q-3 -38 -29.5 -62t-64.5 -24q-37 0 -59 24t-19 62z" />
<glyph unicode="&#x3c;" horiz-adv-x="962" d="M70 461l10 106l801 463l-9 -115l-700 -401l629 -401l-10 -113z" />
<glyph unicode="=" horiz-adv-x="1171" d="M92 336l8 106h963l-8 -106h-963zM137 850l8 106h963l-8 -106h-963z" />
<glyph unicode="&#x3e;" horiz-adv-x="960" d="M80 0l10 113l698 401l-628 401l10 115l721 -463l-10 -106z" />
<glyph unicode="?" horiz-adv-x="1200" d="M150 1028q44 205 186.5 334t339.5 129q199 0 321 -126.5t105 -315.5q-5 -58 -24 -108t-42.5 -84t-66 -70.5t-74 -58t-88.5 -56.5q-108 -66 -152.5 -132t-54.5 -192h-113q9 109 42 184.5t83 123.5t138 102q44 28 66.5 43t57.5 44.5t53 55.5t34 64.5t20 83.5 q12 141 -78 236t-239 95q-153 0 -260 -103.5t-142 -270.5zM432 61q3 37 29.5 61.5t64.5 24.5q37 0 59 -24.5t19 -61.5t-29.5 -61.5t-64.5 -24.5q-37 0 -59 24t-19 62z" />
<glyph unicode="@" horiz-adv-x="2078" d="M109 532q22 254 157.5 457.5t355 318.5t480.5 115q196 0 360 -67t274 -184.5t164 -283t37 -356.5q-23 -246 -117.5 -396t-246.5 -150q-107 0 -167.5 78t-51.5 227q-51 -93 -158.5 -149t-234.5 -56q-185 0 -291.5 126.5t-89.5 319.5q17 197 153.5 324t329.5 127 t307.5 -121t99.5 -307l-22 -260q-7 -100 28 -156.5t103 -56.5q69 0 121.5 60.5t82.5 159.5t42 230q15 170 -32 316.5t-143.5 250.5t-240.5 163t-317 59q-172 0 -326.5 -59.5t-269.5 -163.5t-188.5 -250.5t-88.5 -315.5q-19 -224 60.5 -402.5t241 -279t374.5 -100.5 q73 0 155 21.5t136 52.5l-10 -111q-129 -63 -291 -63q-242 0 -427 113.5t-278 315.5t-71 453zM692 530q-14 -151 70.5 -246.5t230.5 -95.5q145 0 248 96.5t115 245.5q14 158 -69 254.5t-232 96.5q-146 0 -248 -98t-115 -253z" />
<glyph unicode="A" horiz-adv-x="1380" d="M-12 0l680 1440h170l428 -1440h-129l-93 309h-780l-147 -309h-129zM307 410h713l-277 919z" />
<glyph unicode="B" horiz-adv-x="1384" d="M127 0l127 1440h573q189 0 303 -104q101 -92 101 -227q0 -17 -2 -34q-10 -112 -88 -196.5t-193 -112.5q128 -26 201 -126q63 -85 63 -195q0 -18 -2 -37q-15 -177 -162 -292.5t-358 -115.5h-563zM258 111h430q164 0 278 85t126 216q1 12 1 23q0 113 -90 191 q-99 84 -262 85h-432zM319 821h445q140 0 237.5 71t106.5 181q1 11 1 21q-1 98 -77 163q-84 72 -225 72h-442z" />
<glyph unicode="C" horiz-adv-x="1681" d="M123 719q14 166 83.5 309.5t177.5 245t253 159.5t307 58q245 0 422.5 -149.5t208.5 -374.5l-121 -17q-27 184 -173.5 307t-346.5 123q-182 0 -334 -84.5t-246 -235.5t-110 -341q-3 -36 -3 -71q1 -147 55 -269q68 -151 204 -235.5t317 -84.5q204 0 372 118.5t226 297.5 l115 -24q-68 -215 -271.5 -358.5t-449.5 -143.5q-216 0 -380 99t-245 275q-65 141 -65 311q0 41 4 85z" />
<glyph unicode="D" horiz-adv-x="1554" d="M127 0l127 1440h397q249 0 433 -90q184 -89 274 -253q75 -137 75 -308q0 -34 -3 -70q-19 -214 -138 -377.5t-318 -252.5t-448 -89h-399zM258 111h279q323 0 535 166t237 442q3 31 3 61q0 145 -64 261q-78 139 -235 213.5t-370 74.5h-278z" />
<glyph unicode="E" horiz-adv-x="1300" d="M127 0l127 1440h975l-10 -111h-857l-47 -528h777l-11 -107h-774l-51 -583h877l-9 -111h-997z" />
<glyph unicode="F" horiz-adv-x="1163" d="M127 0l127 1440h887l-8 -111h-768l-54 -614h645l-10 -105h-645l-53 -610h-121z" />
<glyph unicode="G" horiz-adv-x="1763" d="M123 719q19 220 133 396.5t298 276t404 99.5q248 0 426.5 -144.5t206.5 -367.5l-114 -21q-29 183 -179 302.5t-350 119.5q-186 0 -341 -84.5t-251 -235.5t-112 -341q-3 -37 -3 -72q0 -145 55 -266q70 -151 211 -236.5t327 -85.5q176 0 325 80t242.5 223.5t109.5 321.5 h-626l8 104h747q-4 -180 -68 -336t-171.5 -266.5t-257.5 -173.5t-320 -63q-220 0 -387 99t-250 275q-67 143 -67 315q0 40 4 81z" />
<glyph unicode="H" horiz-adv-x="1472" d="M125 0l127 1440h121l-56 -635h854l56 635h121l-125 -1440h-121l59 694h-854l-61 -694h-121z" />
<glyph unicode="I" horiz-adv-x="501" d="M127 0l127 1440h121l-127 -1440h-121z" />
<glyph unicode="J" horiz-adv-x="927" d="M8 0l10 109q122 -39 232 -39q140 0 233.5 94.5t108.5 267.5l88 1008h121l-88 -1008q-18 -220 -144.5 -346.5t-312.5 -126.5q-123 0 -248 41z" />
<glyph unicode="K" horiz-adv-x="1193" d="M127 0l127 1440h121l-56 -627l703 627h164l-768 -680l657 -760h-160l-606 707l-61 -707h-121z" />
<glyph unicode="L" horiz-adv-x="1159" d="M127 0l127 1440h121l-117 -1329h776l-10 -111h-897z" />
<glyph unicode="M" horiz-adv-x="1886" d="M127 0l127 1440h174l465 -1280l690 1280h176l-127 -1440h-121l113 1284l-692 -1284h-103l-469 1282l-112 -1282h-121z" />
<glyph unicode="N" horiz-adv-x="1478" d="M127 0l127 1440h158l706 -1290l113 1290h121l-127 -1440h-158l-707 1288l-112 -1288h-121z" />
<glyph unicode="O" horiz-adv-x="1785" d="M123 719q19 222 132 398t297 275t406 99q165 0 303 -58t230 -159.5t137 -245.5q34 -109 34 -231q0 -38 -3 -78q-14 -166 -84.5 -309.5t-180.5 -244.5t-258 -158.5t-313 -57.5q-222 0 -389 98.5t-249 274.5q-66 141 -66 312q0 41 4 85zM244 719q-3 -37 -3 -72 q-1 -145 55 -267q70 -151 211 -236t327 -85q139 0 263 49.5t216.5 136.5t152 209.5t72.5 264.5q3 36 3 70q-1 149 -57 271q-70 151 -210 235.5t-326 84.5t-341 -84.5t-251 -235.5t-112 -341z" />
<glyph unicode="P" horiz-adv-x="1341" d="M127 0l127 1440h483q251 0 395 -135q128 -119 128 -300q0 -24 -3 -49q-19 -212 -187 -346.5t-417 -134.5h-366l-41 -475h-119zM297 588h352q203 0 339 102t149 266q2 19 2 37q0 141 -104 233q-117 104 -320 103h-353z" />
<glyph unicode="Q" horiz-adv-x="1785" d="M123 719q19 222 132 398t297 275t406 99q165 0 303 -58t230 -159.5t137 -245.5q34 -109 34 -231q0 -39 -3 -78q-19 -203 -116.5 -369t-254.5 -268l223 -307h-145l-186 252q-167 -78 -357 -78q-222 0 -389 98.5t-249 274.5q-66 141 -66 312q0 41 4 85zM244 719 q-3 -37 -3 -72q0 -146 55 -267q70 -151 211 -236t327 -85q139 0 263 49.5t216.5 136.5t152 209.5t72.5 264.5q3 36 3 70q0 148 -57 271q-69 151 -209.5 235.5t-326.5 84.5t-341 -84.5t-251 -235.5t-112 -341z" />
<glyph unicode="R" horiz-adv-x="1449" d="M127 0l127 1440h616q226 0 356 -124q115 -110 115 -277q0 -22 -2 -44q-13 -159 -125 -274t-280 -146l319 -575h-141l-305 559l-510 -2l-49 -557h-121zM307 668h490q175 0 293 90.5t131 236.5q1 16 1 32q0 131 -90 211q-102 90 -278 91h-489z" />
<glyph unicode="S" horiz-adv-x="1425" d="M115 461h118q-2 -19 -1 -38q0 -151 110 -251q124 -112 330 -113q194 0 321.5 93.5t139.5 244.5q1 13 1 25q0 37 -9 67q-12 40 -46 67t-65.5 45t-94 32t-101.5 20.5t-116 16.5q-54 7 -89 12.5t-85.5 15t-83.5 20t-73.5 27t-66.5 35.5t-52 46.5t-40 59.5q-14 34 -20 76 q-4 26 -4 55q0 18 2 36q15 190 175.5 314t396.5 124q161 0 284 -62q124 -61 187 -171q53 -92 52 -203q0 -21 -1 -43l-117 -2q1 17 1 34q0 138 -104 232q-117 104 -312 104q-184 -1 -306.5 -90t-134.5 -227q-1 -12 -1 -23q0 -22 4 -42q6 -30 16.5 -53t32.5 -42.5t42 -33 t55 -26t61 -19.5t70.5 -15t73 -12t78.5 -11q103 -14 160 -24.5t138.5 -38t122.5 -63.5t69 -100q22 -50 22 -113q0 -18 -2 -37q-17 -203 -182.5 -332t-413.5 -129q-255 1 -409 145q-136 128 -135 317q0 24 2 50z" />
<glyph unicode="T" horiz-adv-x="1198" d="M96 1329l8 111h1115l-11 -111h-495l-117 -1329h-121l117 1329h-496z" />
<glyph unicode="U" horiz-adv-x="1480" d="M162 580l76 860h120l-75 -860q-3 -36 -4 -71q0 -180 93 -303q110 -147 310 -147t335 143.5t157 377.5l73 860h121l-74 -860q-25 -280 -197.5 -455.5t-422.5 -175.5q-252 -1 -394 175q-121 149 -122 375q0 39 4 81z" />
<glyph unicode="V" horiz-adv-x="1370" d="M115 1440h129l387 -1340l622 1340h127l-671 -1440h-174z" />
<glyph unicode="W" horiz-adv-x="2109" d="M143 1440h125l279 -1344l487 1344h172l248 -1344l512 1344h125l-551 -1440h-186l-248 1307l-475 -1307h-187z" />
<glyph unicode="X" horiz-adv-x="1327" d="M8 0l567 760l-421 680h145l373 -602l481 602h147l-548 -680l440 -760h-143l-392 680l-505 -680h-144z" />
<glyph unicode="Y" horiz-adv-x="1239" d="M115 1440h135l366 -758l498 758h137l-583 -877l-50 -563h-120l49 563z" />
<glyph unicode="Z" horiz-adv-x="1284" d="M18 0l7 80l1044 1253h-915l10 107h1083l-8 -80l-1044 -1256h956l-10 -104h-1123z" />
<glyph unicode="[" horiz-adv-x="905" d="M92 -369l164 1870h639l-8 -94h-529l-147 -1683h528l-8 -93h-639z" />
<glyph unicode="\" horiz-adv-x="880" d="M137 1440h115l450 -1911h-114z" />
<glyph unicode="]" horiz-adv-x="905" d="M-23 -369l9 93h528l148 1683h-529l8 94h639l-164 -1870h-639z" />
<glyph unicode="^" horiz-adv-x="1169" d="M100 819l484 621h129l372 -621h-118l-326 541l-420 -541h-121z" />
<glyph unicode="_" horiz-adv-x="1024" d="M-16 -100l8 100h1024l-8 -100h-1024z" />
<glyph unicode="`" horiz-adv-x="581" d="M170 1499l131 2l213 -334h-123z" />
<glyph unicode="a" horiz-adv-x="1363" d="M102 514q22 243 185.5 400t396.5 157q147 0 256.5 -70.5t161.5 -193.5l18 223h115l-90 -1030h-115l21 221q-73 -122 -195.5 -192t-269.5 -70q-232 0 -369 157q-118 135 -118 333q0 32 3 65zM215 514q-2 -26 -2 -51q-1 -161 95 -272q110 -128 298 -128q184 0 318 128.5 t151 322.5q2 26 2 50q0 160 -97 272q-112 128 -296 129q-187 0 -319.5 -127t-149.5 -324z" />
<glyph unicode="b" horiz-adv-x="1359" d="M106 0l132 1501h114l-61 -688q73 120 194 189t267 69q230 0 368 -158q119 -136 118 -334q0 -32 -3 -65q-22 -242 -186 -398.5t-396 -156.5q-147 0 -256 69.5t-159 190.5l-21 -219h-111zM262 514q-2 -26 -2 -50q0 -158 95 -268q110 -126 298 -126q186 0 319 125.5 t150 318.5q2 26 2 51q0 159 -96 269q-110 126 -297 126.5t-319.5 -126t-149.5 -320.5z" />
<glyph unicode="c" horiz-adv-x="1234" d="M102 514q22 243 187 400t397 157q181 0 309.5 -104.5t147.5 -266.5l-113 -16q-20 124 -119 204.5t-233 80.5q-183 0 -314.5 -128.5t-148.5 -326.5q-2 -27 -2 -52q-1 -162 93 -272q108 -128 292 -129q135 0 247.5 76t155.5 195l109 -17q-49 -155 -196 -255.5t-324 -100.5 q-234 0 -372 157q-120 135 -119 334q0 31 3 64z" />
<glyph unicode="d" horiz-adv-x="1359" d="M84 514q20 241 185 399t397 158q146 0 253.5 -69t159.5 -189l62 688h112l-131 -1501h-110l18 219q-72 -120 -194 -190t-269 -70q-114 0 -209 41.5t-159 114.5t-95 177q-23 76 -23 161q0 30 3 61zM197 514q-2 -26 -2 -50q0 -158 95 -268q110 -126 298 -126 q186 0 319 125.5t150 318.5q2 26 2 51q1 159 -95 269q-110 126 -297.5 126.5t-320 -126t-149.5 -320.5z" />
<glyph unicode="e" horiz-adv-x="1296" d="M102 520q22 240 190.5 395.5t409.5 155.5q234 1 372 -155q121 -136 121 -337q0 -29 -3 -59q-1 -7 -3.5 -23.5t-2.5 -19.5h-971q0 -8 -1 -16q0 -171 107 -282q111 -116 289 -116q133 0 252 74.5t170 188.5l109 -19q-61 -151 -213 -249.5t-322 -98.5q-158 0 -278 72 t-180 200q-49 104 -49 229q0 30 3 60zM225 580h854q-3 171 -110.5 278t-278.5 107q-176 0 -304.5 -107t-160.5 -278z" />
<glyph unicode="f" horiz-adv-x="739" d="M106 932l9 98h176l20 238q12 128 87.5 201t187.5 73q77 0 147 -24l-8 -101q-67 19 -127 19q-73 0 -120 -45.5t-54 -130.5l-21 -230h277l-10 -98h-275l-82 -932h-112l82 932h-177z" />
<glyph unicode="g" horiz-adv-x="1359" d="M80 -109l110 15q11 -137 120.5 -225.5t269.5 -88.5q182 0 306.5 114.5t141.5 301.5l19 209q-76 -118 -196 -185t-263 -67q-153 0 -269 70.5t-173 196.5q-47 101 -47 222q0 29 3 60q22 242 186 398.5t396 156.5q145 0 253 -67t163 -185l18 213h113l-90 -1022 q-20 -234 -179 -377t-389 -143q-204 0 -344 114t-149 289zM215 514q-2 -26 -2 -50q0 -160 97 -268q111 -126 296 -126q187 0 319.5 126t149.5 318q2 26 2 51q0 162 -96 273q-111 127 -297 127q-189 0 -320.5 -127t-148.5 -324z" />
<glyph unicode="h" d="M106 0l132 1501h114l-57 -647q59 99 165 158t226 59q194 0 299 -130q89 -110 89 -274q0 -30 -3 -61l-53 -606h-113l53 606q2 24 2 47q0 129 -67 213q-79 100 -229 99.5t-264.5 -102.5t-127.5 -255l-53 -608h-113z" />
<glyph unicode="i" horiz-adv-x="493" d="M129 0l90 1030h113l-90 -1030h-113zM215 1323q3 37 29.5 60.5t64.5 23.5q37 1 59 -23q19 -21 20 -52q0 -4 -1 -9q-3 -38 -29.5 -62t-64.5 -24q-37 0 -59 24q-19 21 -19 53v9z" />
<glyph unicode="j" horiz-adv-x="487" d="M-205 -430l10 104q67 -24 132 -24q68 0 114.5 45.5t54.5 118.5l107 1216h113l-109 -1225q-9 -115 -84 -188.5t-182 -73.5q-80 0 -156 27zM207 1323q5 37 30.5 60.5t63.5 23.5q37 0 59 -23q19 -21 19 -52v-9q-3 -38 -29 -62t-63 -24q-38 0 -61 24q-19 21 -19 53v9z" />
<glyph unicode="k" horiz-adv-x="1034" d="M106 0l132 1501h114l-80 -905l533 434h158l-596 -485l524 -545h-156l-473 492l-43 -492h-113z" />
<glyph unicode="l" horiz-adv-x="454" d="M106 0l132 1501h112l-131 -1501h-113z" />
<glyph unicode="m" horiz-adv-x="1894" d="M125 0l90 1030h111l-13 -147q55 89 144 138.5t198 49.5q132 0 223.5 -66.5t118.5 -177.5q50 111 153.5 176.5t235.5 65.5q178 0 280 -123q85 -104 86 -259q0 -29 -3 -60l-53 -627h-113l53 627q2 22 2 44q0 121 -64 201q-74 94 -208 93q-140 0 -236.5 -94t-109.5 -244 l-53 -627h-115l55 627q2 24 2 47q1 120 -61 198q-74 93 -209 93q-142 0 -237 -93t-109 -245l-53 -627h-115z" />
<glyph unicode="n" d="M125 0l90 1030h115l-17 -172q60 97 170 155t232 58q193 1 293 -129q85 -109 85 -272q0 -31 -3 -64l-54 -606h-112l53 606q2 26 2 50q1 127 -61 210q-74 99 -222 99q-153 0 -272 -102.5t-131 -254.5l-53 -608h-115z" />
<glyph unicode="o" horiz-adv-x="1290" d="M100 514q22 243 188.5 400t403.5 157q156 0 274 -71q118 -70 176 -198q47 -103 46 -227q0 -30 -2 -61q-13 -160 -93.5 -287t-210.5 -197.5t-286 -70.5q-157 0 -275 71q-119 70 -177 197q-47 102 -47 226q0 30 3 61zM213 514q-2 -26 -3 -51q0 -161 96 -272 q110 -128 297.5 -128t320 128t149.5 323q2 26 2 51q0 163 -95 273q-110 128 -298 127q-187 0 -319.5 -127t-149.5 -324z" />
<glyph unicode="p" horiz-adv-x="1359" d="M84 -471l131 1501h111l-19 -221q71 122 193.5 192t269.5 70q230 0 368 -158q118 -136 118 -334q0 -32 -3 -65q-20 -241 -184.5 -398t-396.5 -157q-146 0 -254 69t-160 189l-59 -688h-115zM281 514q-2 -26 -2 -50q0 -160 96 -268q111 -126 297 -126q187 0 319.5 125 t149.5 319q2 26 2 51q0 161 -95 270q-110 126 -298 126q-186 0 -319 -126.5t-150 -320.5z" />
<glyph unicode="q" horiz-adv-x="1359" d="M102 514q22 241 187 399t395 158q147 0 256.5 -70t161.5 -192l18 221h111l-131 -1501h-113l60 688q-73 -120 -194 -189t-265 -69q-153 0 -269 71t-173 198q-47 102 -47 225q0 30 3 61zM215 514q-2 -26 -2 -50q0 -160 95 -268q110 -126 298 -126q187 0 319.5 125 t149.5 319q2 26 2 51q0 160 -95 269q-111 127 -298 127q-186 0 -319 -126t-150 -321z" />
<glyph unicode="r" horiz-adv-x="794" d="M127 0l88 1030h111l-15 -162q52 96 130.5 148.5t176.5 52.5q72 0 146 -33l-10 -108q-73 37 -152 37q-127 0 -212 -104.5t-99 -274.5l-51 -586h-113z" />
<glyph unicode="s" horiz-adv-x="1077" d="M94 334h111q-1 -11 -1 -22q0 -102 78 -172q86 -76 230 -77q133 0 224.5 61.5t99.5 154.5v12q0 35 -15 63q-18 32 -46.5 51.5t-74.5 34.5t-82.5 21.5t-87.5 13.5q-53 8 -88 14.5t-79.5 18t-73 25t-58 35t-45.5 47.5t-24 63q-6 25 -5 54q0 14 1 28q12 134 130 222.5 t283 88.5q182 1 293 -97q100 -88 101 -220q0 -14 -2 -29l-111 2q1 8 1 16q0 93 -76 155q-82 67 -216 67q-117 0 -201.5 -58.5t-91.5 -148.5q-3 -34 8.5 -60t33 -44t59.5 -31.5t79.5 -22.5t102.5 -18q49 -8 82 -14t79.5 -18.5t78 -26.5t66 -36.5t53.5 -49.5q18 -27 30 -65 q9 -29 9 -62q0 -11 -1 -23q-12 -142 -138 -235t-306 -93q-192 0 -308 106q-104 95 -104 235q0 16 2 34z" />
<glyph unicode="t" horiz-adv-x="759" d="M98 932l8 96h181l32 238h97l-21 -238h277l-8 -96h-277l-61 -696q-1 -10 -1 -20q0 -65 35 -107q40 -49 113 -50q60 0 135 21l-8 -98q-71 -23 -158 -23q-116 1 -178 75q-53 63 -53 163q0 18 2 36l61 699h-176z" />
<glyph unicode="u" d="M143 422l54 608h112l-51 -608q-2 -26 -3 -50q1 -126 63 -210q74 -100 221 -99q99 0 188 45.5t147.5 128t67.5 183.5l53 610h113l-90 -1030h-113l15 172q-60 -98 -169 -155.5t-231 -57.5q-193 0 -294 129q-86 109 -86 274q0 29 3 60z" />
<glyph unicode="v" horiz-adv-x="1146" d="M119 1030h123l295 -936l458 936h123l-512 -1030h-155z" />
<glyph unicode="w" horiz-adv-x="1787" d="M139 1030h121l234 -915l374 915h138l221 -917l393 917h119l-449 -1030h-151l-211 899l-369 -899h-151z" />
<glyph unicode="x" horiz-adv-x="1079" d="M49 0l412 537l-301 493h135l252 -422l327 422h134l-385 -493l315 -537h-135l-268 459l-347 -459h-139z" />
<glyph unicode="y" horiz-adv-x="1157" d="M45 -428l10 102q70 -24 127 -24q41 0 76.5 16.5t63.5 42.5t57 69.5t52 85t54 101.5q14 27 21 41l-387 1024h127l327 -885l433 885h120l-512 -1038q-31 -64 -52 -105t-51 -93t-54 -84.5t-56.5 -67t-64 -53.5t-70.5 -31.5t-82 -12.5q-73 0 -139 27z" />
<glyph unicode="z" horiz-adv-x="1124" d="M59 0l7 74l798 850h-704l10 106h874l-6 -76l-798 -850h745l-10 -104h-916z" />
<glyph unicode="{" horiz-adv-x="724" d="M102 510l13 131h20q57 0 97 40.5t44 104.5l41 474q11 106 80.5 173.5t169.5 67.5h150l-8 -94h-113q-68 0 -115 -46.5t-53 -119.5l-41 -463q-7 -83 -57 -138.5t-121 -61.5l-21 -3l21 -2q70 -4 109.5 -60t33.5 -138l-43 -486q-6 -72 33.5 -118.5t106.5 -46.5h112l-8 -93 h-147q-101 0 -159.5 67.5t-49.5 172.5l43 494q6 65 -26.5 105t-90.5 40h-21z" />
<glyph unicode="|" horiz-adv-x="489" d="M84 -471l172 1972h109l-172 -1972h-109z" />
<glyph unicode="}" horiz-adv-x="724" d="M-23 -369l9 93h110q68 0 116 46.5t54 118.5l41 486q8 82 58 138t120 60l23 2l-21 3q-71 6 -110.5 61.5t-32.5 138.5l39 463q7 73 -32 119.5t-107 46.5h-111l8 94h148q100 0 158 -67.5t49 -173.5l-41 -474q-6 -64 26.5 -104.5t89.5 -40.5h21l-12 -131h-21q-57 0 -96 -40 t-45 -105l-43 -494q-9 -104 -79.5 -172t-170.5 -68h-148z" />
<glyph unicode="~" horiz-adv-x="1263" d="M127 676q58 61 136 98t147 37q55 0 114 -24.5t109.5 -60t99 -71t101 -60t98.5 -24.5q50 0 102 26t94 71l48 -76q-54 -57 -124.5 -91t-133.5 -34q-54 0 -112 25t-108 60.5t-99 71t-102.5 60.5t-101.5 25q-112 0 -221 -109z" />
<glyph unicode="&#xa1;" horiz-adv-x="423" d="M66 -471l32 375l78 659h82l-37 -659l-33 -375h-122zM162 905q3 37 29.5 61.5t64.5 24.5q37 0 59 -24t19 -62q-3 -37 -29.5 -61.5t-64.5 -24.5q-37 0 -59 24.5t-19 61.5z" />
<glyph unicode="&#xa2;" horiz-adv-x="1234" d="M94 514q20 228 169.5 382t365.5 173l14 168h115l-17 -170q159 -19 269 -120t127 -247l-113 -16q-22 125 -121.5 205t-232.5 80q-182 0 -313 -128.5t-150 -326.5q-17 -196 92.5 -324.5t292.5 -128.5q135 0 247.5 76t153.5 195l111 -17q-46 -140 -173 -237.5t-286 -114.5 l-14 -176h-115l16 174q-213 19 -335.5 173t-102.5 380z" />
<glyph unicode="&#xa3;" horiz-adv-x="1198" d="M39 0l12 145q52 8 92 34.5t77 83t63 158t39 247.5h-205l10 106h205l26 303q15 182 126.5 298t275.5 116q166 0 262 -120.5t94 -311.5l-110 -19q3 153 -65 251t-187 98q-114 0 -191.5 -87.5t-89.5 -224.5l-27 -303h533l-8 -106h-537q-19 -178 -58.5 -297.5t-88 -178.5 t-115.5 -88h864l-8 -104h-989z" />
<glyph unicode="&#xa4;" horiz-adv-x="1531" d="M72 -27l229 205q-100 142 -82 336q15 193 139 336l-188 205l78 73l192 -202q159 121 369 121t346 -123l229 204l64 -75l-225 -203q100 -142 82 -336q-18 -196 -142 -336l191 -203l-78 -75l-193 204q-153 -122 -368 -122q-211 0 -346 122l-228 -204zM334 514 q-17 -189 92.5 -311.5t296.5 -122.5q189 0 320.5 122.5t148.5 311.5q15 191 -95 313.5t-298 122.5q-185 0 -317.5 -123t-147.5 -313z" />
<glyph unicode="&#xa5;" horiz-adv-x="1355" d="M59 156l11 104h508l20 219h-510l8 105h475l-436 854l137 2l400 -799l534 799h142l-586 -856h473l-8 -105h-508l-21 -219h508l-8 -104h-508l-14 -156h-121l14 156h-510z" />
<glyph unicode="&#xa7;" d="M121 47l119 14q-2 -119 81 -193.5t218 -74.5q138 0 230 67.5t101 178.5q5 54 -14.5 94t-44 61.5t-84 39t-92.5 23.5t-111 16q-4 1 -6 1q-53 8 -87 13.5t-82 17t-77.5 25t-62 35t-50 48t-27 64.5t-5.5 84q8 99 83 170.5t196 93.5q-86 29 -134 99t-39 176 q13 149 138.5 246.5t302.5 97.5q168 0 277.5 -104t109.5 -263l-115 -12q3 117 -76.5 192.5t-205.5 75.5q-130 0 -218.5 -63t-97.5 -162q-3 -37 6 -67t23.5 -51t44 -39t53.5 -28t68.5 -20.5t72 -15.5t78.5 -13q45 -7 67.5 -11t64 -13t64 -16.5t55.5 -20.5t51 -27t39 -34.5 t30.5 -44t15 -54.5t2.5 -67q-8 -100 -82.5 -171t-195.5 -91q94 -28 145 -97.5t41 -177.5q-9 -106 -71.5 -189.5t-165.5 -130t-228 -46.5q-177 0 -291 103t-114 261zM242 580q-2 -27 2.5 -50t13 -40.5t26 -32.5t33 -25t42 -19t46 -14t51.5 -10t52 -7.5t55 -6.5q14 -3 66 -8 q151 4 240.5 58.5t97.5 145.5q3 35 -6.5 64t-24 48t-44 35t-51.5 24t-62.5 15.5t-60.5 10t-60 6.5q-13 1 -19 2q-48 5 -64 8q-144 -6 -234.5 -62.5t-98.5 -141.5z" />
<glyph unicode="&#xa8;" horiz-adv-x="851" d="M158 1300q3 38 28.5 61t63.5 23q39 0 61 -23t19 -61q-5 -37 -30.5 -60t-63.5 -23t-59.5 23t-18.5 60zM629 1300q3 38 29 61t63 23q39 0 61 -23t19 -61q-3 -37 -29.5 -60t-64.5 -23t-59.5 23t-18.5 60z" />
<glyph unicode="&#xa9;" horiz-adv-x="1867" d="M113 516q14 169 87.5 317.5t189 254.5t271.5 167.5t330 61.5t319.5 -60t243 -165t145 -254t32.5 -322q-20 -232 -139.5 -415.5t-313.5 -286.5t-428 -103q-233 0 -408 103t-262 286.5t-67 415.5zM205 516q-18 -206 59 -370t232.5 -255.5t361.5 -91.5t378 91.5t278 255.5 t124 370q13 150 -29 282t-128 227t-215 149.5t-283 54.5t-292.5 -54.5t-240.5 -149.5t-167 -227t-78 -282zM389 514q13 159 93 285.5t210.5 197t286.5 70.5q167 0 293.5 -93.5t154.5 -238.5l-88 -22q-31 120 -133 192t-239 72q-192 0 -327.5 -130.5t-154.5 -332.5t95 -332.5 t309 -130.5q137 0 257 78t169 199l78 -25q-57 -149 -202 -245.5t-312 -96.5q-235 0 -373.5 156t-116.5 397z" />
<glyph unicode="&#xab;" horiz-adv-x="1243" d="M92 514l465 516h137l-467 -516l377 -514h-139zM559 514l465 516h139l-467 -516l377 -514h-139z" />
<glyph unicode="&#xac;" horiz-adv-x="1300" d="M127 608l8 103h1071l-49 -568h-94l41 465h-977z" />
<glyph unicode="&#xad;" horiz-adv-x="1048" d="M125 590l10 106h840l-10 -106h-840z" />
<glyph unicode="&#xae;" horiz-adv-x="1867" d="M113 518q14 170 87.5 319t189 255t271.5 167.5t330 61.5q233 0 409 -102.5t263.5 -286t67.5 -414.5t-139.5 -414t-314 -286t-427.5 -103q-232 0 -407.5 103t-262.5 286t-67 414zM205 518q-14 -154 28 -287t127.5 -227.5t214 -148.5t283.5 -54q206 0 378 92t278 255.5 t124 369.5q13 151 -29 283.5t-127.5 227.5t-214.5 149.5t-282 54.5q-155 0 -294 -54.5t-241 -149.5t-167 -227.5t-78 -283.5zM555 25l88 1007h430q138 0 219.5 -85t69.5 -216q-9 -113 -88 -194.5t-195 -98.5l211 -413h-108l-205 405h-291l-37 -405h-94zM692 512h326 q100 0 170.5 62t79.5 159q9 99 -51.5 158t-165.5 59h-320z" />
<glyph unicode="&#xaf;" horiz-adv-x="851" d="M156 1272l8 88h643l-8 -88h-643z" />
<glyph unicode="&#xb0;" horiz-adv-x="1030" d="M135 1108q15 180 138 289.5t309 109.5q184 0 286.5 -109.5t87.5 -289.5q-15 -178 -137 -287.5t-307 -109.5q-186 0 -289 109t-88 288zM229 1108q-12 -138 68 -222.5t223 -84.5q141 0 235.5 84.5t106.5 222.5q12 139 -67 224t-220 85q-143 0 -238.5 -85t-107.5 -224z" />
<glyph unicode="&#xb1;" horiz-adv-x="1146" d="M59 0l9 106h940l-11 -106h-938zM117 662l10 108h412l22 260h115l-23 -260h412l-8 -108h-412l-24 -281h-117l24 281h-411z" />
<glyph unicode="&#xb4;" horiz-adv-x="581" d="M141 1167l273 334l129 -2l-279 -332h-123z" />
<glyph unicode="&#xb6;" horiz-adv-x="1392" d="M133 1059q15 170 150 275.5t338 105.5h665l-8 -97h-186l-158 -1806h-107l158 1806h-268l-158 -1806h-106l100 1143q-205 0 -320 104t-100 275z" />
<glyph unicode="&#xb7;" horiz-adv-x="378" d="M127 590q3 38 29 62t63 24q38 0 60 -24t18 -62q-3 -37 -29 -60.5t-63 -23.5q-38 0 -60 23.5t-18 60.5z" />
<glyph unicode="&#xb8;" horiz-adv-x="645" d="M70 -383l75 18q9 -51 46 -81.5t88 -30.5q61 0 101 36t46 95q6 69 -35 110t-115 41h-77l43 207h82l-29 -141q106 0 165 -61t50 -158q-7 -91 -73 -148t-163 -57q-84 0 -140 47.5t-64 122.5z" />
<glyph unicode="&#xbb;" horiz-adv-x="1239" d="M78 0l467 514l-377 516h139l373 -516l-463 -514h-139zM545 0l467 514l-377 516h139l375 -516l-465 -514h-139z" />
<glyph unicode="&#xbf;" horiz-adv-x="1200" d="M76 -47q3 42 14 79.5t24 66t37.5 58t43.5 48.5t53.5 44.5t57 40t63.5 40.5q108 66 152.5 131.5t56.5 191.5h112q-7 -83 -25 -143.5t-53 -108t-77.5 -82t-108.5 -75.5q-45 -29 -66 -43t-57 -44.5t-53 -55.5t-33.5 -64.5t-19.5 -83.5q-12 -142 77.5 -237t239.5 -95 q152 0 259 104t142 271l113 -23q-44 -205 -186 -333.5t-340 -128.5q-199 0 -321 126.5t-105 315.5zM573 940q5 37 31 61.5t64 24.5t59 -24t18 -62q-3 -37 -29 -61.5t-63 -24.5q-38 0 -60.5 24.5t-19.5 61.5z" />
<glyph unicode="&#xc0;" horiz-adv-x="1380" d="M-31 0l680 1440h170l426 -1440h-127l-92 309h-780l-148 -309h-129zM289 410h712l-276 919zM483 1874h135l195 -291h-131z" />
<glyph unicode="&#xc1;" horiz-adv-x="1380" d="M-31 0l680 1440h170l426 -1440h-127l-92 309h-780l-148 -309h-129zM289 410h712l-276 919zM672 1583l246 291h135l-248 -291h-133z" />
<glyph unicode="&#xc2;" horiz-adv-x="1380" d="M-31 0l680 1440h170l426 -1440h-127l-92 309h-780l-148 -309h-129zM289 410h712l-276 919zM424 1583l285 291h129l231 -291h-121l-182 223l-217 -223h-125z" />
<glyph unicode="&#xc3;" horiz-adv-x="1380" d="M-29 0l680 1440h170l426 -1440h-127l-92 309h-780l-148 -309h-129zM291 410h713l-277 919zM432 1702q30 53 89.5 87t127.5 34q46 0 85 -17t62 -37.5t56.5 -37.5t69.5 -17q46 0 84 23t59 61l68 -45q-29 -56 -91 -90.5t-135 -34.5q-48 0 -88 17t-62.5 37.5t-53.5 37.5 t-64 17q-84 0 -141 -84z" />
<glyph unicode="&#xc4;" horiz-adv-x="1380" d="M-27 0l680 1440h170l428 -1440h-129l-92 309h-780l-148 -309h-129zM293 410h713l-277 919zM461 1688q3 37 29.5 60.5t64.5 23.5q37 0 59 -23.5t19 -60.5t-29.5 -60.5t-64.5 -23.5q-37 0 -59 23.5t-19 60.5zM891 1688q3 37 29.5 60.5t64.5 23.5q37 0 59 -23.5t19 -60.5 t-29 -60.5t-63 -23.5q-38 0 -60.5 23.5t-19.5 60.5z" />
<glyph unicode="&#xc5;" horiz-adv-x="1380" d="M-33 0l680 1440h170l428 -1440h-129l-92 309h-780l-146 -309h-131zM287 410h712l-276 919zM571 1720q8 77 64 126.5t135 49.5t126.5 -49.5t41.5 -126.5q-6 -78 -62.5 -128t-136.5 -50t-127 50t-41 128zM657 1720q-5 -43 21 -70.5t70 -27.5q43 0 73 27.5t35 70.5 q3 43 -22 70t-68 27q-44 0 -75 -27t-34 -70z" />
<glyph unicode="&#xc6;" horiz-adv-x="1861" d="M-12 0l880 1440h922l-10 -111h-723l-47 -547h641l-9 -104h-643l-49 -567h744l-11 -111h-856l27 309h-541l-190 -309h-135zM375 416h489l80 930z" />
<glyph unicode="&#xc7;" horiz-adv-x="1681" d="M123 719q14 166 83.5 309.5t177.5 245t253 159.5t307 58q245 0 422.5 -149.5t208.5 -374.5l-121 -17q-27 184 -173.5 307t-346.5 123q-182 0 -334 -84.5t-246 -235.5t-110 -341q-16 -189 51.5 -340t204 -235.5t317.5 -84.5q204 0 372 118.5t226 297.5l115 -24 q-67 -206 -257.5 -348t-424.5 -154l-17 -78q107 0 166 -61t50 -158q-7 -91 -73 -148t-163 -57q-84 0 -140.5 47.5t-64.5 122.5l76 18q9 -51 45.5 -81.5t87.5 -30.5q61 0 101.5 36t46.5 95q6 69 -34.5 110t-115.5 41h-78l31 146q-205 10 -358 110.5t-228.5 272.5t-56.5 385z " />
<glyph unicode="&#xc8;" horiz-adv-x="1300" d="M109 0l124 1440h977l-10 -111h-858l-45 -528h774l-8 -107h-776l-51 -583h878l-10 -111h-995zM479 1874h135l193 -291h-131z" />
<glyph unicode="&#xc9;" horiz-adv-x="1300" d="M109 0l124 1440h977l-10 -111h-858l-45 -528h774l-8 -107h-776l-51 -583h878l-10 -111h-995zM668 1583l243 291h136l-248 -291h-131z" />
<glyph unicode="&#xca;" horiz-adv-x="1300" d="M109 0l124 1440h977l-10 -111h-858l-45 -528h774l-8 -107h-776l-51 -583h878l-10 -111h-995zM420 1583l282 291h129l234 -291h-123l-180 223l-219 -223h-123z" />
<glyph unicode="&#xcb;" horiz-adv-x="1300" d="M113 0l125 1440h976l-10 -111h-858l-45 -528h776l-10 -107h-776l-51 -583h878l-10 -111h-995zM455 1688q3 37 29.5 60.5t64.5 23.5q37 0 59 -23.5t19 -60.5t-30 -60.5t-65 -23.5q-37 0 -58.5 23.5t-18.5 60.5zM885 1688q5 37 31 60.5t63 23.5t59 -23.5t19 -60.5 t-29 -60.5t-63 -23.5q-38 0 -60.5 23.5t-19.5 60.5z" />
<glyph unicode="&#xcc;" horiz-adv-x="509" d="M43 1874h135l195 -291h-131zM109 0l127 1440h120l-127 -1440h-120z" />
<glyph unicode="&#xcd;" horiz-adv-x="505" d="M115 0l125 1440h122l-126 -1440h-121zM238 1583l245 291h135l-249 -291h-131z" />
<glyph unicode="&#xce;" horiz-adv-x="509" d="M-10 1583l282 291h129l234 -291h-123l-180 223l-219 -223h-123zM115 0l125 1440h120l-124 -1440h-121z" />
<glyph unicode="&#xcf;" horiz-adv-x="503" d="M20 1688q3 37 30 60.5t65 23.5q37 0 59 -23.5t19 -60.5t-30 -60.5t-65 -23.5q-37 0 -59 23.5t-19 60.5zM113 0l127 1440h120l-127 -1440h-120zM451 1688q3 36 30 60t64 24t59 -23.5t19 -60.5t-29.5 -60.5t-63.5 -23.5q-38 0 -60 23.5t-19 60.5z" />
<glyph unicode="&#xd1;" horiz-adv-x="1478" d="M111 0l125 1440h159l705 -1290l112 1290h121l-125 -1440h-157l-707 1288l-113 -1288h-120zM473 1702q30 53 89.5 87t127.5 34q46 0 85.5 -17t62.5 -37.5t57 -37.5t70 -17q45 0 83 23t60 61l68 -45q-29 -56 -91 -90.5t-135 -34.5q-48 0 -88 17t-62.5 37.5t-54 37.5 t-65.5 17q-84 0 -141 -84z" />
<glyph unicode="&#xd2;" horiz-adv-x="1785" d="M104 719q20 222 134 398t298 275t404 99q222 0 389 -99t249.5 -275t63.5 -398q-15 -166 -85.5 -309.5t-180 -244.5t-257 -158.5t-312.5 -57.5q-222 0 -389 98.5t-250 274t-64 397.5zM225 719q-16 -188 54 -339t210.5 -236t325.5 -85q186 0 341.5 84.5t252 235.5 t113.5 340q16 190 -53.5 341t-210 235.5t-326.5 84.5t-341.5 -84.5t-252 -235.5t-113.5 -341zM686 1874h135l193 -291h-131z" />
<glyph unicode="&#xd3;" horiz-adv-x="1785" d="M104 719q20 222 134 398t298 275t404 99q222 0 389 -99t249.5 -275t63.5 -398q-15 -166 -85.5 -309.5t-180 -244.5t-257 -158.5t-312.5 -57.5q-222 0 -389 98.5t-250 274t-64 397.5zM225 719q-16 -188 54 -339t210.5 -236t325.5 -85q186 0 341.5 84.5t252 235.5 t113.5 340q16 190 -53.5 341t-210 235.5t-326.5 84.5t-341.5 -84.5t-252 -235.5t-113.5 -341zM874 1583l244 291h135l-247 -291h-132z" />
<glyph unicode="&#xd4;" horiz-adv-x="1785" d="M104 719q20 222 134 398t298 275t404 99q222 0 389 -99t249.5 -275t63.5 -398q-15 -166 -85.5 -309.5t-180 -244.5t-257 -158.5t-312.5 -57.5q-222 0 -389 98.5t-250 274t-64 397.5zM225 719q-16 -188 53.5 -339t210 -236t326.5 -85t341.5 84.5t252 235.5t113.5 340 q16 190 -53.5 341t-210 235.5t-326.5 84.5t-341.5 -84.5t-252 -235.5t-113.5 -341zM627 1583l282 291h129l232 -291h-121l-180 223l-219 -223h-123z" />
<glyph unicode="&#xd5;" horiz-adv-x="1785" d="M109 719q19 222 132 398t297 275t406 99q165 0 303 -58t230 -159.5t137 -245t31 -309.5t-84.5 -309.5t-180.5 -244.5t-258 -158.5t-313 -57.5q-222 0 -389 98.5t-249 274t-62 397.5zM229 719q-17 -188 52.5 -339t210 -236t325.5 -85q186 0 341.5 84.5t252 235.5 t113.5 340q16 190 -53.5 341t-210 235.5t-326.5 84.5t-341.5 -84.5t-251.5 -235.5t-112 -341zM621 1702q30 53 89.5 87t127.5 34q46 0 85 -17t62.5 -37.5t57 -37.5t69.5 -17q45 0 83 23t60 61l68 -45q-30 -56 -91 -90.5t-134 -34.5q-48 0 -88 17t-63 37.5t-54.5 37.5 t-65.5 17q-84 0 -141 -84z" />
<glyph unicode="&#xd6;" horiz-adv-x="1785" d="M111 719q19 222 132 398t297 275t406 99q165 0 303 -58t230 -159.5t137 -245t31 -309.5t-84.5 -309.5t-180.5 -244.5t-258 -158.5t-313 -57.5q-222 0 -389 98.5t-249 274t-62 397.5zM231 719q-17 -188 52.5 -339t210.5 -236t327 -85q185 0 340 84.5t251.5 235.5 t113.5 340q16 190 -53.5 341t-210 235.5t-326.5 84.5t-341.5 -84.5t-251.5 -235.5t-112 -341zM662 1688q3 37 29.5 60.5t64.5 23.5q37 0 59 -23.5t19 -60.5t-30 -60.5t-65 -23.5q-37 0 -58.5 23.5t-18.5 60.5zM1092 1688q3 36 30 60t64 24t59 -23.5t19 -60.5t-29.5 -60.5 t-63.5 -23.5q-38 0 -60 23.5t-19 60.5z" />
<glyph unicode="&#xd7;" horiz-adv-x="780" d="M96 377l238 233l-197 234l80 69l193 -229l233 229l68 -69l-238 -234l197 -233l-78 -70l-195 230l-235 -230z" />
<glyph unicode="&#xd8;" horiz-adv-x="1744" d="M111 719q19 220 130.5 396.5t291 276t393.5 99.5q172 0 315 -70l201 340h119l-230 -389q147 -101 220 -271.5t55 -381.5q-19 -220 -130.5 -396t-291 -275t-393.5 -99q-145 0 -275 49l-166 -285h-121l195 330q-165 95 -249 273t-64 403zM231 719q-17 -188 51.5 -338.5 t202.5 -233.5l697 1174q-124 59 -267 59q-179 0 -329.5 -85t-244.5 -236t-110 -340zM578 100q103 -41 223 -41q272 0 465.5 186t218.5 474q15 176 -42.5 319t-174.5 230z" />
<glyph unicode="&#xd9;" horiz-adv-x="1480" d="M143 580l74 860h121l-74 -860q-21 -227 89.5 -374t310.5 -147t334.5 143.5t154.5 377.5l76 860h121l-76 -860q-25 -280 -197 -455.5t-424 -175.5q-165 0 -287 79.5t-180.5 223.5t-42.5 328zM545 1874h135l192 -291h-131z" />
<glyph unicode="&#xda;" horiz-adv-x="1480" d="M143 580l74 860h121l-74 -860q-21 -227 89.5 -374t310.5 -147t334.5 143.5t154.5 377.5l76 860h121l-76 -860q-25 -280 -197 -455.5t-424 -175.5q-165 0 -287 79.5t-180.5 223.5t-42.5 328zM709 1583l245 291h136l-248 -291h-133z" />
<glyph unicode="&#xdb;" horiz-adv-x="1480" d="M143 580l74 860h121l-74 -860q-21 -227 89.5 -374t310.5 -147t334.5 143.5t154.5 377.5l76 860h121l-76 -860q-25 -280 -197 -455.5t-424 -175.5q-165 0 -287 79.5t-180.5 223.5t-42.5 328zM473 1583l285 291h129l231 -291h-123l-180 223l-217 -223h-125z" />
<glyph unicode="&#xdc;" horiz-adv-x="1480" d="M147 580l76 860h121l-76 -860q-21 -227 89.5 -374t310.5 -147t334.5 143.5t156.5 377.5l74 860h121l-74 -860q-25 -280 -198 -455.5t-425 -175.5q-165 0 -287 79.5t-180.5 223.5t-42.5 328zM510 1688q3 37 29 60.5t63 23.5t60 -24t20 -60q-5 -37 -31 -60.5t-63 -23.5 t-59 23.5t-19 60.5zM940 1688q3 37 29 60.5t63 23.5q38 0 60.5 -23.5t19.5 -60.5t-29.5 -60.5t-64.5 -23.5q-37 0 -59 23.5t-19 60.5z" />
<glyph unicode="&#xdd;" horiz-adv-x="1239" d="M94 1440h137l367 -758l496 758h137l-584 -877l-49 -563h-121l49 563zM588 1583l246 291h135l-248 -291h-133z" />
<glyph unicode="&#xdf;" horiz-adv-x="1351" d="M104 0l86 983q20 214 167 352t356 138q186 0 300.5 -110.5t100.5 -272.5q-10 -129 -93.5 -214t-211.5 -106q178 -24 279 -134.5t86 -279.5q-15 -178 -145 -292.5t-312 -114.5q-171 0 -316 100l48 105q123 -97 272 -97q136 0 228.5 86.5t103.5 221.5q14 160 -96 255 t-312 95h-76l9 106h79q138 0 232 71.5t104 190.5q9 118 -73.5 198.5t-219.5 80.5q-157 0 -265.5 -107.5t-123.5 -279.5l-86 -975h-121z" />
<glyph unicode="&#xe0;" horiz-adv-x="1363" d="M84 514q22 243 186 400t396 157q147 0 256 -70.5t161 -193.5l19 223h115l-91 -1030h-114l20 221q-73 -122 -195.5 -192t-269.5 -70q-232 0 -368.5 157t-114.5 398zM197 514q-17 -195 93.5 -323t297.5 -128q184 0 318 128.5t151 322.5q17 195 -94.5 323t-296.5 128 q-187 0 -319.5 -127t-149.5 -324zM393 1485h131l215 -332h-123z" />
<glyph unicode="&#xe1;" horiz-adv-x="1363" d="M84 514q22 243 186 400t396 157q147 0 256 -70.5t161 -193.5l19 223h115l-91 -1030h-114l20 221q-73 -122 -195.5 -192t-269.5 -70q-232 0 -368.5 157t-114.5 398zM197 514q-17 -195 93.5 -323t297.5 -128q184 0 318 128.5t151 322.5q17 195 -94.5 323t-296.5 128 q-187 0 -319.5 -127t-149.5 -324zM602 1153l272 332h132l-281 -332h-123z" />
<glyph unicode="&#xe2;" horiz-adv-x="1363" d="M84 514q22 243 186 400t396 157q147 0 256 -70.5t161 -193.5l19 223h115l-91 -1030h-114l20 221q-73 -122 -195.5 -192t-269.5 -70q-232 0 -368.5 157t-114.5 398zM197 514q-17 -195 93.5 -323t297.5 -128q184 0 318 128.5t151 322.5q17 195 -94.5 323t-296.5 128 q-187 0 -319.5 -127t-149.5 -324zM358 1153l279 332h129l223 -332h-117l-176 262l-221 -262h-117z" />
<glyph unicode="&#xe3;" horiz-adv-x="1363" d="M88 514q22 243 186 400t396 157q147 0 256 -70.5t161 -193.5l21 223h113l-91 -1030h-112l18 221q-71 -122 -193.5 -192t-269.5 -70q-153 0 -269 71t-173 198t-43 286zM201 514q-17 -195 93.5 -323t297.5 -128q184 0 318 128.5t151 322.5t-94 322.5t-295 128.5 q-187 0 -319.5 -127t-151.5 -324zM383 1257q29 54 87.5 87.5t121.5 33.5q44 0 85.5 -19t68 -41.5t62 -41.5t69.5 -19q41 0 78.5 22t58.5 56l69 -37q-30 -56 -90.5 -91.5t-130.5 -35.5q-47 0 -89 19t-67.5 41.5t-59.5 41.5t-68 19q-38 0 -73.5 -20t-55.5 -53z" />
<glyph unicode="&#xe4;" horiz-adv-x="1363" d="M90 514q13 160 92.5 287.5t207 198.5t280.5 71q148 0 258 -70.5t162 -193.5l18 223h113l-91 -1030h-112l20 221q-73 -122 -195.5 -192t-269.5 -70q-232 0 -368.5 157t-114.5 398zM203 514q-17 -196 92.5 -323.5t296.5 -127.5q185 0 318.5 128t152.5 323q17 194 -95 322.5 t-296 128.5q-187 0 -319.5 -127t-149.5 -324zM367 1280q3 37 29.5 60.5t64.5 23.5t59.5 -23.5t18.5 -60.5q-3 -38 -29.5 -62t-63.5 -24q-38 0 -60 24t-19 62zM840 1280q3 37 28.5 60.5t63.5 23.5t60 -23.5t18 -60.5q-3 -38 -28.5 -62t-63.5 -24t-60 24t-18 62z" />
<glyph unicode="&#xe5;" horiz-adv-x="1363" d="M78 514q22 243 185.5 400t395.5 157q148 0 258 -70.5t160 -193.5l21 223h112l-90 -1030h-112l18 221q-71 -122 -193.5 -192t-269.5 -70q-152 0 -268 71t-173 198t-44 286zM193 514q-17 -196 92.5 -323.5t296.5 -127.5q185 0 318.5 128t152.5 323q17 194 -95 322.5 t-296 128.5q-187 0 -319.5 -127t-149.5 -324zM444 1368q9 103 83 169.5t180 66.5q104 0 165.5 -66.5t53.5 -169.5q-9 -103 -82.5 -169t-177.5 -66q-106 0 -168.5 66t-53.5 169zM528 1368q-5 -68 35.5 -112t108.5 -44t116 44.5t52 111.5q6 68 -34.5 112t-107.5 44 q-68 0 -116 -44.5t-54 -111.5z" />
<glyph unicode="&#xe6;" horiz-adv-x="2234" d="M102 514q22 241 184.5 398t391.5 157q144 0 253.5 -67.5t164.5 -186.5l18 215h98l-20 -215q70 119 187.5 186.5t260.5 67.5q154 0 271 -69t175 -192t44 -276q-2 -29 -10 -77h-942q6 -176 110.5 -284t270.5 -108q135 0 250 72.5t159 186.5l105 -21q-47 -149 -193.5 -245.5 t-325.5 -96.5q-147 0 -257 71t-156 195l-19 -225h-96l18 213q-76 -119 -197 -186.5t-265 -67.5q-230 0 -366 157t-114 398zM215 514q-17 -197 93.5 -326t297.5 -129q185 0 317.5 127.5t151.5 327.5q17 199 -93 328t-298 129q-187 0 -319.5 -128.5t-149.5 -328.5zM1182 553 h835q14 179 -96 295.5t-293 116.5q-173 0 -297.5 -117.5t-148.5 -294.5z" />
<glyph unicode="&#xe7;" horiz-adv-x="1234" d="M102 514q22 243 187 400t397 157q181 0 309.5 -104.5t147.5 -266.5l-113 -16q-20 124 -119 204.5t-233 80.5q-183 0 -314.5 -128.5t-148.5 -326.5q-17 -196 91.5 -324.5t291.5 -128.5q135 0 247.5 76t155.5 195l109 -17q-46 -144 -177 -242t-294 -112l-18 -90 q106 0 165 -61t50 -158q-7 -91 -73 -148t-163 -57q-84 0 -140 47t-65 123l76 18q9 -51 45.5 -81.5t87.5 -30.5q62 0 103 36.5t45 94.5q6 69 -34.5 110t-115.5 41h-78l33 154q-220 12 -348.5 168t-106.5 387z" />
<glyph unicode="&#xe8;" horiz-adv-x="1296" d="M84 520q22 239 191.5 395t408.5 156q235 0 373.5 -156t116.5 -395q-1 -4 -2 -12.5t-2 -16.5t-3 -14h-970q-5 -182 106 -298t291 -116q132 0 251.5 74.5t168.5 188.5l108 -19q-62 -151 -213 -249.5t-321 -98.5q-158 0 -278 72t-180 200t-46 289zM207 580h854 q-3 171 -110.5 278t-278.5 107q-176 0 -304.5 -107t-160.5 -278zM414 1485h131l215 -332h-123z" />
<glyph unicode="&#xe9;" horiz-adv-x="1296" d="M84 520q22 239 191.5 395t408.5 156q235 0 373.5 -156t116.5 -395q-1 -4 -2 -12.5t-2 -16.5t-3 -14h-970q-5 -182 106 -298t291 -116q132 0 251.5 74.5t168.5 188.5l108 -19q-62 -151 -213 -249.5t-321 -98.5q-158 0 -278 72t-180 200t-46 289zM207 580h854 q-3 171 -110.5 278t-278.5 107q-176 0 -304.5 -107t-160.5 -278zM623 1153l272 332h131l-281 -332h-122z" />
<glyph unicode="&#xea;" horiz-adv-x="1296" d="M84 520q22 239 191.5 395t408.5 156q235 0 373.5 -156t116.5 -395q-1 -4 -2 -12.5t-2 -16.5t-3 -14h-970q-5 -182 106 -298t291 -116q132 0 251.5 74.5t168.5 188.5l108 -19q-62 -151 -213 -249.5t-321 -98.5q-158 0 -278 72t-180 200t-46 289zM207 580h854 q-3 171 -110.5 278t-278.5 107q-176 0 -304.5 -107t-160.5 -278zM379 1153l278 332h129l224 -332h-119l-174 262l-223 -262h-115z" />
<glyph unicode="&#xeb;" horiz-adv-x="1296" d="M90 520q20 239 189.5 395t408.5 156q235 0 373.5 -156t118.5 -395q-1 -7 -3.5 -23.5t-2.5 -19.5h-973q-3 -182 107.5 -298t289.5 -116q133 0 251.5 74.5t168.5 188.5l110 -19q-62 -151 -213 -249.5t-321 -98.5q-159 0 -279 72t-179.5 200t-45.5 289zM213 580h854 q-3 171 -111.5 278t-279.5 107q-174 0 -302.5 -107t-160.5 -278zM387 1280q3 37 29.5 60.5t64.5 23.5t59.5 -23.5t18.5 -60.5q-3 -38 -29 -62t-63 -24q-38 0 -60.5 24t-19.5 62zM858 1280q5 37 30.5 60.5t63.5 23.5t59.5 -23.5t18.5 -60.5q-3 -38 -28.5 -62t-63.5 -24 t-60.5 24t-19.5 62z" />
<glyph unicode="&#xec;" horiz-adv-x="442" d="M-23 1485h132l213 -332h-123zM98 0l90 1030h113l-90 -1030h-113z" />
<glyph unicode="&#xed;" horiz-adv-x="448" d="M104 0l91 1030h112l-90 -1030h-113zM193 1153l272 332h131l-281 -332h-122z" />
<glyph unicode="&#xee;" horiz-adv-x="438" d="M-61 1153l280 332h127l223 -332h-116l-177 262l-221 -262h-116zM96 0l90 1030h113l-90 -1030h-113z" />
<glyph unicode="&#xef;" horiz-adv-x="446" d="M-47 1280q3 37 29.5 60.5t64.5 23.5q37 0 59 -23.5t19 -60.5q-3 -38 -29.5 -62t-64.5 -24t-59.5 24t-18.5 62zM106 0l91 1030h112l-90 -1030h-113zM424 1280q3 37 29.5 60.5t64.5 23.5t59.5 -23.5t18.5 -60.5q-3 -38 -29 -62t-63 -24q-38 0 -60.5 24t-19.5 62z" />
<glyph unicode="&#xf1;" d="M113 0l90 1030h112l-14 -172q60 97 169.5 155t231.5 58q192 0 292.5 -129.5t82.5 -335.5l-53 -606h-113l54 606q12 162 -61.5 260.5t-221.5 98.5q-151 0 -270.5 -102.5t-132.5 -254.5l-54 -608h-112zM319 1257q31 54 89.5 87.5t121.5 33.5q44 0 85 -19t67.5 -41.5 t62.5 -41.5t70 -19q41 0 78.5 22t56.5 56l70 -37q-28 -56 -88.5 -91.5t-130.5 -35.5q-47 0 -89.5 19t-68 41.5t-59.5 41.5t-68 19q-38 0 -73.5 -20t-55.5 -53z" />
<glyph unicode="&#xf2;" horiz-adv-x="1294" d="M84 514q22 243 188.5 400t403.5 157q236 0 375.5 -157t117.5 -400t-187.5 -399t-403.5 -156q-156 0 -273.5 70.5t-176 197.5t-44.5 287zM197 514q-17 -195 93.5 -323t297.5 -128t319.5 128t149.5 323q17 196 -93 323.5t-298 127.5q-187 0 -319.5 -127t-149.5 -324z M403 1485h132l215 -332h-123z" />
<glyph unicode="&#xf3;" horiz-adv-x="1294" d="M84 514q22 243 188.5 400t403.5 157q236 0 375.5 -157t117.5 -400t-187.5 -399t-403.5 -156q-156 0 -273.5 70.5t-176 197.5t-44.5 287zM197 514q-17 -195 93.5 -323t297.5 -128t319.5 128t149.5 323q17 196 -93 323.5t-298 127.5q-187 0 -319.5 -127t-149.5 -324z M612 1153l273 332h131l-281 -332h-123z" />
<glyph unicode="&#xf4;" horiz-adv-x="1294" d="M84 514q22 243 188.5 400t403.5 157q236 0 375.5 -157t117.5 -400t-187.5 -399t-403.5 -156q-156 0 -273.5 70.5t-176 197.5t-44.5 287zM197 514q-17 -195 93.5 -323t297.5 -128t319.5 128t149.5 323q17 196 -93 323.5t-298 127.5q-187 0 -319.5 -127t-149.5 -324z M369 1153l278 332h129l223 -332h-116l-176 262l-222 -262h-116z" />
<glyph unicode="&#xf5;" horiz-adv-x="1294" d="M88 514q22 243 188.5 400t403.5 157q156 0 273.5 -71t176 -198.5t44.5 -287.5q-13 -160 -93.5 -287t-210.5 -197.5t-286 -70.5q-157 0 -275 70.5t-176.5 197.5t-44.5 287zM201 514q-17 -195 93.5 -323t297.5 -128t319.5 128t149.5 323q17 196 -93 323.5t-296 127.5 q-188 0 -320 -127t-151 -324zM373 1257q29 54 87.5 87.5t121.5 33.5q44 0 85 -19t68 -41.5t62 -41.5t69 -19q41 0 79.5 22t58.5 56l69 -37q-30 -56 -90.5 -91.5t-130.5 -35.5q-47 0 -89.5 19t-68 41.5t-59.5 41.5t-68 19q-38 0 -73.5 -20t-55.5 -53z" />
<glyph unicode="&#xf6;" horiz-adv-x="1294" d="M90 514q20 243 187 400t403 157q157 0 275 -71t176.5 -198.5t44.5 -287.5q-22 -243 -188.5 -399t-403.5 -156q-157 0 -274.5 70.5t-175.5 197.5t-44 287zM203 514q-17 -196 92.5 -323.5t296.5 -127.5t319.5 127.5t151.5 323.5q17 196 -93 323.5t-298 127.5 q-187 0 -319.5 -127t-149.5 -324zM377 1280q3 37 29.5 60.5t64.5 23.5t59.5 -23.5t18.5 -60.5q-3 -38 -29 -62t-63 -24q-38 0 -60.5 24t-19.5 62zM850 1280q3 37 28.5 60.5t63.5 23.5t60 -23.5t18 -60.5q-3 -38 -28.5 -62t-63.5 -24t-60 24t-18 62z" />
<glyph unicode="&#xf7;" horiz-adv-x="1130" d="M102 489l11 105h921l-10 -105h-922zM451 121q3 35 27.5 56.5t60.5 21.5q35 0 55.5 -21.5t17.5 -56.5t-28 -57.5t-60 -22.5t-55.5 22.5t-17.5 57.5zM520 928q3 34 28 56t60 22t56 -22t18 -56q-3 -35 -27 -57.5t-61 -22.5q-35 0 -56 22.5t-18 57.5z" />
<glyph unicode="&#xf8;" horiz-adv-x="1298" d="M94 514q22 243 189.5 400t406.5 157q123 0 223 -47l121 205h113l-150 -252q101 -73 151.5 -194t37.5 -269q-22 -243 -189 -399t-405 -156q-95 0 -180 29l-90 -152h-113l113 191q-120 70 -180.5 197.5t-47.5 289.5zM201 514q-12 -130 35 -233.5t139 -163.5l487 819 q-77 39 -180 39q-193 0 -328.5 -130t-152.5 -331zM463 74q72 -21 137 -21q192 0 327 130.5t152 330.5q10 117 -26 212.5t-111 158.5z" />
<glyph unicode="&#xf9;" d="M125 422l53 608h113l-53 -608q-14 -160 59 -259.5t221 -99.5q153 0 272.5 102.5t131.5 254.5l53 610h115l-91 -1030h-114l16 172q-60 -98 -169.5 -155.5t-231.5 -57.5q-193 0 -293.5 129t-81.5 334zM385 1485h131l215 -334h-125z" />
<glyph unicode="&#xfa;" d="M125 422l53 608h113l-53 -608q-14 -160 59 -259.5t221 -99.5q153 0 272.5 102.5t131.5 254.5l53 610h115l-91 -1030h-114l16 172q-60 -98 -169.5 -155.5t-231.5 -57.5q-193 0 -293.5 129t-81.5 334zM561 1151l273 334h131l-281 -334h-123z" />
<glyph unicode="&#xfb;" d="M125 422l53 608h113l-53 -608q-14 -160 59 -259.5t221 -99.5q153 0 272.5 102.5t131.5 254.5l53 610h115l-91 -1030h-114l16 172q-60 -98 -169.5 -155.5t-231.5 -57.5q-193 0 -293.5 129t-81.5 334zM330 1151l278 334h129l221 -334h-116l-174 262l-224 -262h-114z" />
<glyph unicode="&#xfc;" d="M129 422l53 608h113l-53 -608q-12 -161 61 -260t221 -99q151 0 271 102.5t133 254.5l53 610h113l-90 -1030h-113l14 172q-60 -98 -169.5 -155.5t-231.5 -57.5q-191 0 -292 129t-83 334zM338 1278q3 38 29 61t65 23q37 0 59 -23t19 -61q-3 -37 -29.5 -60.5t-64.5 -23.5 q-37 0 -59 23.5t-19 60.5zM809 1278q3 38 29 61t65 23q38 0 59.5 -23t18.5 -61q-3 -37 -29 -60.5t-63 -23.5q-38 0 -60.5 23.5t-19.5 60.5z" />
<glyph unicode="&#xfd;" horiz-adv-x="1157" d="M27 -428l8 102q70 -24 127 -24q51 0 92.5 21.5t81.5 76.5t63 95t69 130q11 22 17 33l-385 1024h125l328 -885l434 885h121l-512 -1038q-25 -50 -41.5 -82t-40 -75.5t-41 -71t-42 -61t-45.5 -54.5t-47.5 -42.5t-53 -33.5t-57.5 -19.5t-64 -7.5q-75 0 -137 27zM532 1153 l273 332h131l-279 -332h-125z" />
<glyph unicode="&#xff;" horiz-adv-x="1157" d="M31 -428l10 102q70 -24 127 -24q50 0 91 21t80.5 74.5t62 93.5t67.5 128l6.5 13t6.5 12.5t7 13.5l-385 1024h127l328 -885l432 885h121l-512 -1038q-31 -64 -52 -105t-51 -93t-54 -84.5t-56.5 -67t-64 -53.5t-70.5 -31.5t-82 -12.5q-73 0 -139 27zM309 1280 q3 37 29.5 60.5t64.5 23.5t59.5 -23.5t18.5 -60.5q-3 -38 -29 -62t-63 -24q-38 0 -60.5 24t-19.5 62zM782 1280q3 37 28.5 60.5t63.5 23.5t60 -23.5t18 -60.5q-3 -38 -28.5 -62t-63.5 -24t-60 24t-18 62z" />
<glyph unicode="&#x152;" horiz-adv-x="2172" d="M123 719q19 220 131.5 394t293.5 271t398 97q137 0 252 -41h903l-10 -111h-791l-47 -547h709l-10 -104h-709l-49 -567h811l-10 -111h-924q-121 -43 -258 -43q-217 0 -381.5 97t-246 271t-62.5 394zM244 719q-16 -187 52 -335.5t205 -231t318 -82.5q151 0 254 41l107 1216 q-100 43 -238 43q-281 0 -477 -182.5t-221 -468.5z" />
<glyph unicode="&#x153;" horiz-adv-x="2271" d="M102 514q22 243 188.5 400t403.5 157q164 0 285 -79.5t176 -217.5q78 137 215.5 217t304.5 80q235 0 373.5 -156t116.5 -395q0 -15 -4 -43h-973q-3 -182 107.5 -298t289.5 -116q132 0 251.5 74.5t168.5 188.5l109 -19q-62 -151 -213 -249.5t-322 -98.5q-166 0 -289 80 t-178 219q-78 -139 -214 -219t-302 -80q-156 0 -273.5 70.5t-176 197.5t-44.5 287zM215 514q-17 -195 93.5 -323t297.5 -128q186 0 319 128t150 323q17 196 -93 323.5t-298 127.5q-187 0 -319.5 -127t-149.5 -324zM1198 580h854q-2 171 -110 278t-279 107 q-174 0 -303.5 -107t-161.5 -278z" />
<glyph unicode="&#x178;" horiz-adv-x="1239" d="M100 1440h136l366 -758l498 758h137l-584 -877l-49 -563h-121l49 563zM389 1688q3 37 29 60.5t63 23.5t60 -24t20 -60q-5 -37 -31 -60.5t-63 -23.5t-59 23.5t-19 60.5zM819 1688q3 37 29 60.5t63 23.5q38 0 60.5 -23.5t19.5 -60.5q-3 -36 -30 -60t-64 -24t-59 23.5 t-19 60.5z" />
<glyph unicode="&#x2c6;" horiz-adv-x="837" d="M141 1167l279 334h129l221 -334h-117l-174 263l-223 -263h-115z" />
<glyph unicode="&#x2dc;" horiz-adv-x="905" d="M154 1262q31 53 88.5 86.5t119.5 33.5q45 0 86.5 -19t68 -41t61.5 -41t69 -19q42 0 80 21.5t57 55.5l70 -36q-30 -56 -90.5 -91.5t-130.5 -35.5q-47 0 -89 19t-67.5 41t-59.5 41t-67 19q-39 0 -74 -20t-57 -53z" />
<glyph unicode="&#x2000;" horiz-adv-x="948" />
<glyph unicode="&#x2001;" horiz-adv-x="1896" />
<glyph unicode="&#x2002;" horiz-adv-x="948" />
<glyph unicode="&#x2003;" horiz-adv-x="1896" />
<glyph unicode="&#x2004;" horiz-adv-x="632" />
<glyph unicode="&#x2005;" horiz-adv-x="474" />
<glyph unicode="&#x2006;" horiz-adv-x="316" />
<glyph unicode="&#x2007;" horiz-adv-x="316" />
<glyph unicode="&#x2008;" horiz-adv-x="237" />
<glyph unicode="&#x2009;" horiz-adv-x="379" />
<glyph unicode="&#x200a;" horiz-adv-x="105" />
<glyph unicode="&#x2010;" horiz-adv-x="1048" d="M125 590l10 106h840l-10 -106h-840z" />
<glyph unicode="&#x2011;" horiz-adv-x="1048" d="M125 590l10 106h840l-10 -106h-840z" />
<glyph unicode="&#x2012;" horiz-adv-x="1048" d="M125 590l10 106h840l-10 -106h-840z" />
<glyph unicode="&#x2013;" horiz-adv-x="1351" d="M113 590l10 106h1167l-10 -106h-1167z" />
<glyph unicode="&#x2014;" horiz-adv-x="1679" d="M72 590l10 106h1577l-10 -106h-1577z" />
<glyph unicode="&#x2018;" horiz-adv-x="393" d="M145 1219q8 86 51.5 165t104.5 117l51 -45q-43 -28 -73.5 -79t-34.5 -105q38 0 60.5 -23.5t19.5 -60.5q-3 -38 -29.5 -62t-63.5 -24q-43 0 -67 33t-19 84z" />
<glyph unicode="&#x2019;" horiz-adv-x="393" d="M137 1124q43 28 74 79.5t35 105.5q-38 0 -60.5 24t-19.5 62q3 37 29 60.5t63 23.5q43 0 66.5 -32.5t19.5 -84.5q-7 -86 -51.5 -165t-104.5 -116z" />
<glyph unicode="&#x201a;" horiz-adv-x="393" d="M80 -207q41 26 71.5 78t34.5 106q-38 0 -60.5 23.5t-19.5 60.5t30 60.5t65 23.5q41 0 64.5 -31.5t19.5 -82.5q-6 -86 -50 -166t-106 -117z" />
<glyph unicode="&#x201c;" horiz-adv-x="686" d="M150 1219q7 86 51 165t104 117l51 -45q-43 -28 -73.5 -79t-34.5 -105q38 0 60.5 -23.5t19.5 -60.5q-3 -38 -29 -62t-63 -24q-43 0 -67 33t-19 84zM434 1219q6 86 50 164.5t106 117.5l49 -45q-42 -28 -72.5 -79.5t-34.5 -104.5q38 0 60.5 -23.5t19.5 -60.5q-3 -38 -29 -62 t-63 -24q-43 0 -67 33t-19 84z" />
<glyph unicode="&#x201d;" horiz-adv-x="679" d="M141 1126q43 28 74 79.5t35 105.5q-38 0 -60.5 23.5t-19.5 60.5q3 38 29 62t63 24q43 0 67 -33t19 -84q-7 -86 -51 -165.5t-104 -117.5zM424 1126q43 28 73.5 79.5t34.5 105.5q-38 0 -60 23.5t-19 60.5q3 38 29 62t63 24q43 0 67 -33t19 -84q-7 -86 -51.5 -165 t-104.5 -118z" />
<glyph unicode="&#x201e;" horiz-adv-x="679" d="M80 -207q43 28 73.5 79t34.5 105q-38 0 -60 24t-19 62q3 37 29 60.5t63 23.5q43 0 66.5 -32t19.5 -84q-7 -86 -51.5 -165t-104.5 -116zM362 -207q43 28 74 79.5t35 104.5q-38 0 -60.5 24t-19.5 62q3 37 29 60.5t63 23.5q43 0 66.5 -32t19.5 -84q-8 -87 -51 -165.5 t-104 -115.5z" />
<glyph unicode="&#x2022;" horiz-adv-x="401" d="M127 635q5 41 34 67.5t70 26.5q43 0 67.5 -26.5t20.5 -67.5q-3 -41 -32 -67.5t-72 -26.5q-41 0 -66 26.5t-22 67.5z" />
<glyph unicode="&#x2026;" horiz-adv-x="991" d="M102 63q3 36 30 60t65 24q37 0 58.5 -23.5t18.5 -60.5q-3 -38 -29 -62t-63 -24q-38 0 -60.5 24t-19.5 62zM410 63q3 36 29.5 60t62.5 24q38 0 60.5 -23.5t19.5 -60.5q-5 -38 -31 -62t-64 -24t-59 24t-18 62zM715 63q3 36 29.5 60t64.5 24q37 0 59 -23.5t19 -60.5 q-3 -38 -29 -62t-63 -24q-38 0 -60.5 24t-19.5 62z" />
<glyph unicode="&#x202f;" horiz-adv-x="379" />
<glyph unicode="&#x2039;" horiz-adv-x="737" d="M74 514l465 516h139l-467 -516l377 -514h-139z" />
<glyph unicode="&#x203a;" horiz-adv-x="737" d="M59 0l467 514l-376 516h137l375 -516l-463 -514h-140z" />
<glyph unicode="&#x205f;" horiz-adv-x="474" />
<glyph unicode="&#x20ac;" horiz-adv-x="1837" d="M86 541l8 92h180q0 70 19 190h-182l8 90h198q80 260 293.5 419t489.5 159q162 0 300 -69t225 -188.5t106 -266.5l-121 -17q-25 184 -171.5 307t-348.5 123q-224 0 -400 -127.5t-250 -339.5h707l-8 -90h-723q-11 -48 -17 -104q-4 -59 -2 -86h725l-8 -92h-708 q33 -217 187 -349.5t382 -132.5q202 0 370.5 118.5t227.5 297.5l113 -24q-68 -216 -271 -359t-450 -143q-279 0 -465.5 163t-218.5 429h-195z" />
<glyph unicode="&#x2122;" horiz-adv-x="2199" d="M86 1343l8 97h737l-8 -97h-317l-92 -1036h-103l92 1036h-317zM903 307l101 1133h153l305 -985l475 985h156l-98 -1133h-101l88 996l-489 -996h-88l-313 996l-88 -996h-101z" />
<glyph unicode="&#x25fc;" horiz-adv-x="1034" d="M0 0v1034h1034v-1034h-1034z" />
</font>
</defs>
</svg>
