<svg width="300" height="238" viewBox="0 0 300 238" fill="none" xmlns="http://www.w3.org/2000/svg">
<path d="M0 150.752L75 107.455L112.5 85.8061L110.692 94.2971L150 117.012L189.974 96.099L189.844 87.1592L192.188 88.5122L196.875 91.2183L206.25 96.6305L225 107.455L300 150.752L150 237.347L0 150.752Z" fill="#0D009D"/>
<path d="M73.034 96.3093L111.517 74.093L110.091 93.6965L150 116.52L191.175 93.6965L188.483 74.093L226.966 96.3093L226.966 145.136L150 189.566L73.1282 145.136L73.034 96.3093Z" fill="#9D94FF"/>
<path d="M73.0339 96.3093L111.517 74.093L110.091 94.2971L150 117.945L190.574 94.2971L188.483 74.093L226.966 96.3093L150 140.742L73.0339 96.3093Z" fill="#D0CCFF"/>
<path fill-rule="evenodd" clip-rule="evenodd" d="M155.642 37.6058C154.995 38.8126 155.448 40.3159 156.655 40.9635L187.905 57.6443C188.776 58.112 188.776 59.3618 187.905 59.8294L152.237 78.9683C151.301 79.4705 150.173 79.4586 149.248 78.9368L113.3 58.6581L147.45 40C148.62 39.2891 148.993 37.7639 148.282 36.5933C147.571 35.4226 146.046 35.0499 144.875 35.7607L109.82 54.9684C106.985 56.6902 107.051 60.8277 109.941 62.4576L146.812 83.2565C147.021 83.3744 147.233 83.4822 147.45 83.5801C147.448 83.6116 147.448 83.6432 147.448 83.675V102.274C147.448 103.643 148.558 104.753 149.928 104.753C151.297 104.753 152.408 103.643 152.408 102.274V84.1286C153.157 83.9733 153.89 83.71 154.582 83.3385L190.25 64.1996C194.608 61.8614 194.608 55.6124 190.25 53.2741L159 36.5933C157.793 35.9457 156.29 36.399 155.642 37.6058ZM188.365 72.929C188.365 71.5595 189.475 70.4492 190.845 70.4492C192.214 70.4492 193.324 71.5595 193.324 72.929V93.8468C193.324 96.1323 192.067 98.2324 190.052 99.3116L154.223 118.506C151.785 119.812 148.848 119.777 146.443 118.413L109.557 97.5059C108.198 96.7353 107.357 95.2932 107.357 93.7305V72.929C107.357 71.5595 108.468 70.4492 109.837 70.4492C111.207 70.4492 112.317 71.5595 112.317 72.929V93.3693L148.888 114.099C149.814 114.623 150.943 114.637 151.881 114.134L187.71 94.9398C188.113 94.7239 188.365 94.3039 188.365 93.8468V72.929Z" fill="#0D009D"/>
<path d="M151 49V67" stroke="#E84040" stroke-width="4" stroke-linecap="round"/>
<path d="M167 58H135" stroke="#E84040" stroke-width="4" stroke-linecap="round"/>
</svg>
