<svg width="33" height="33" viewBox="0 0 33 33" fill="none" xmlns="http://www.w3.org/2000/svg">
<mask id="mask0" mask-type="alpha" maskUnits="userSpaceOnUse" x="0" y="0" width="33" height="33">
<rect y="0.0213013" width="32.5532" height="32.5532" fill="#C4C4C4"/>
</mask>
<g mask="url(#mask0)">
<path fill-rule="evenodd" clip-rule="evenodd" d="M21.2209 12.0623C21.0496 12.3815 21.1695 12.779 21.4887 12.9503L26.1857 15.4707C26.4162 15.5944 26.4162 15.9249 26.1857 16.0486L16.7525 21.1104C16.505 21.2432 16.2067 21.24 15.9621 21.102L6.45464 15.7388L10.6619 13.1841C10.9715 12.9961 11.0701 12.5927 10.8821 12.2831C10.6941 11.9735 10.2907 11.8749 9.98111 12.0629L5.53446 14.763C4.78454 15.2184 4.80212 16.3126 5.56626 16.7437L15.3176 22.2445C15.3729 22.2756 15.4292 22.3042 15.4864 22.3301C15.4861 22.3384 15.4859 22.3468 15.4859 22.3552V27.274C15.4859 27.6362 15.7796 27.9298 16.1418 27.9298C16.504 27.9298 16.7976 27.6362 16.7976 27.274V22.4751C16.9958 22.434 17.1896 22.3644 17.3727 22.2662L26.8059 17.2044C27.9584 16.586 27.9584 14.9333 26.8059 14.3149L22.1089 11.7945C21.7897 11.6232 21.3922 11.7431 21.2209 12.0623ZM26.3073 19.5131C26.3073 19.1509 26.601 18.8573 26.9632 18.8573C27.3254 18.8573 27.619 19.1509 27.619 19.5131V25.0453C27.619 25.6498 27.2865 26.2052 26.7537 26.4906L17.2777 31.567C16.633 31.9124 15.8563 31.9031 15.2201 31.5425L5.46482 26.0131C5.10527 25.8092 4.88306 25.4279 4.88306 25.0146V19.5131C4.88306 19.1509 5.17669 18.8573 5.5389 18.8573C5.90111 18.8573 6.19475 19.1509 6.19475 19.5131V24.919L15.8669 30.4014C16.1116 30.5401 16.4103 30.5436 16.6583 30.4108L26.1343 25.3344C26.2408 25.2773 26.3073 25.1662 26.3073 25.0453V19.5131Z" fill="white"/>
<path d="M19.2501 9.55073L13.5033 7.00384C14.1823 4.41691 15.0082 3.27279 17.095 1.6489L22.8418 4.91412C20.5554 6.67484 19.7795 7.13288 19.2501 9.55073Z" fill="white"/>
<path d="M18.5315 16.7343L12.7847 13.4691C13.4638 10.8821 12.0665 10.2691 10.6298 8.8324L15.6582 10.9874C17.8133 12.0323 19.0609 14.3164 18.5315 16.7343Z" fill="white"/>
</g>
</svg>
