<svg width="163" height="45" viewBox="0 0 163 45" fill="none" xmlns="http://www.w3.org/2000/svg">
<path d="M66.4915 17.9281V14.97H60.37V3.30219H56.9189V17.9281H66.4915Z" fill="black"/>
<path d="M77.0708 6.26023L79.3715 13.0391H74.7701L77.0708 6.26023ZM74.0922 15.5041H80.0494L80.8505 17.9281H84.4659L79.5769 3.30219H74.5646L69.6551 17.9281H73.291L74.0922 15.5041Z" fill="black"/>
<path d="M99.0298 2.78864L103.734 17.4145H108.993L113.676 2.78864H110.081L106.363 14.8673L102.625 2.78864H99.0298Z" fill="black"/>
<path d="M124.558 17.9281C129.345 17.9281 132.652 14.7441 132.652 10.1016C132.652 5.47963 129.345 2.27509 124.558 2.27509C119.751 2.27509 116.465 5.47963 116.465 10.1016C116.465 14.7441 119.751 17.9281 124.558 17.9281ZM124.558 5.23313C127.29 5.23313 129.201 7.24624 129.201 10.1016C129.201 12.9569 127.29 14.97 124.558 14.97C121.826 14.9495 119.916 12.9569 119.916 10.1016C119.916 7.24624 121.826 5.23313 124.558 5.23313Z" fill="black"/>
<path d="M137.352 2.78864V17.4145H140.803V2.78864H137.352Z" fill="black"/>
<path d="M145.098 17.4145H149.103L152.657 11.6217L156.293 17.4145H160.36L155.266 9.69073L160.237 2.78864H156.17L152.657 7.8625L149.226 2.78864H145.221L149.966 9.69073L145.098 17.4145Z" fill="black"/>
<path d="M56.9189 43.6055H62.4036C67.457 43.6055 70.8259 40.6886 70.8259 36.2926C70.8259 31.8966 67.457 28.9796 62.4036 28.9796H56.9189V43.6055ZM67.3953 36.2926C67.3953 39.1274 65.3822 40.9145 62.4036 40.9145H60.2878V31.6706H62.4036C65.3822 31.6706 67.3953 33.4578 67.3953 36.2926Z" fill="black"/>
<path d="M85.0135 37.4635C85.0135 39.6204 83.7809 41.161 81.9322 41.161C79.9601 41.1199 78.8303 39.3533 78.8303 37.4635V28.9796H75.3587V37.5456C75.3587 41.4281 78.0497 44.1191 81.9322 44.1191C85.794 44.1191 88.485 41.4281 88.485 37.5456V28.9796H85.0135V37.4635Z" fill="black"/>
<path d="M99.0298 29.4932L103.734 44.1191H108.993L113.676 29.4932H110.081L106.363 41.5719L102.625 29.4932H99.0298Z" fill="black"/>
<path d="M124.558 44.6326C129.345 44.6326 132.652 41.4486 132.652 36.8061C132.652 32.1842 129.345 28.9796 124.558 28.9796C119.751 28.9796 116.465 32.1842 116.465 36.8061C116.465 41.4486 119.751 44.6326 124.558 44.6326ZM124.558 31.9377C127.29 31.9377 129.201 33.9508 129.201 36.8061C129.201 39.6615 127.29 41.6746 124.558 41.6746C121.826 41.654 119.916 39.6615 119.916 36.8061C119.916 33.9508 121.826 31.9377 124.558 31.9377Z" fill="black"/>
<path d="M140.412 44.1191H143.863V32.3691H148.259V29.4932H136.016V32.3691H140.412V44.1191Z" fill="black"/>
<path d="M155.653 37.8538H161.774V35.3887H155.653V32.2664H162.596V29.4932H152.325V44.1191H162.801V41.3459H155.653V37.8538Z" fill="black"/>
<path fill-rule="evenodd" clip-rule="evenodd" d="M25.5862 14.0586C25.318 14.5585 25.5057 15.1811 26.0056 15.4493L33.3614 19.3965C33.7224 19.5901 33.7224 20.1078 33.3614 20.3015L18.5883 28.2285C18.2007 28.4365 17.7336 28.4316 17.3505 28.2154L2.46121 19.8163L9.05009 15.8154C9.53495 15.5209 9.68933 14.8892 9.39491 14.4044C9.10048 13.9195 8.46875 13.7651 7.98389 14.0595L1.02014 18.2882C-0.154285 19.0013 -0.126757 20.715 1.06995 21.39L16.3412 30.0046C16.4278 30.0534 16.516 30.0981 16.6055 30.1386C16.6051 30.1517 16.6048 30.1648 16.6048 30.1779V37.8812C16.6048 38.4484 17.0647 38.9083 17.6319 38.9083C18.1992 38.9083 18.659 38.4484 18.659 37.8812V30.3658C18.9694 30.3015 19.2729 30.1924 19.5596 30.0386L34.3327 22.1116C36.1376 21.1431 36.1376 18.5549 34.3327 17.5864L26.9768 13.6392C26.477 13.371 25.8544 13.5588 25.5862 14.0586ZM33.5519 25.7271C33.5519 25.1599 34.0117 24.7 34.579 24.7C35.1462 24.7 35.6061 25.1599 35.6061 25.7271V34.3909C35.6061 35.3375 35.0853 36.2074 34.2509 36.6544L19.4108 44.6044C18.4012 45.1452 17.1849 45.1307 16.1885 44.5659L0.911088 35.9064C0.347995 35.5873 0 34.99 0 34.3428V25.7271C0 25.1599 0.459844 24.7 1.0271 24.7C1.59435 24.7 2.0542 25.1599 2.0542 25.7271V34.1931L17.2014 42.7789C17.5846 42.9961 18.0525 43.0017 18.4408 42.7936L33.2808 34.8436C33.4477 34.7542 33.5519 34.5803 33.5519 34.3909V25.7271Z" fill="#0D009D"/>
<path fill-rule="evenodd" clip-rule="evenodd" d="M12.854 17.8454C12.854 18.0284 12.9514 18.1976 13.1096 18.2895L21.6195 23.2323C21.7784 23.3246 21.9744 23.325 22.1336 23.2333C22.2928 23.1417 22.391 22.972 22.391 22.7882L22.391 17.8013C22.391 17.2638 22.1108 16.7651 21.6517 16.4855L13.6347 11.6033C13.4761 11.5067 13.2778 11.5032 13.116 11.5941C12.9542 11.6851 12.854 11.8562 12.854 12.0419L12.854 17.8454Z" fill="#0D009D"/>
<path fill-rule="evenodd" clip-rule="evenodd" d="M12.854 6.31709C12.854 6.50008 12.9514 6.66925 13.1096 6.76116L21.6195 11.704C21.7784 11.7963 21.9744 11.7966 22.1336 11.705C22.2928 11.6134 22.391 11.4436 22.391 11.2599L22.391 6.27302C22.391 5.73546 22.1108 5.23677 21.6517 4.95717L13.6347 0.0749327C13.4761 -0.0216142 13.2778 -0.0250951 13.116 0.0658287C12.9542 0.156752 12.854 0.327928 12.854 0.51355L12.854 6.31709Z" fill="#E84040"/>
</svg>
