<svg width="90" height="90" viewBox="0 0 90 90" fill="none" xmlns="http://www.w3.org/2000/svg">
<mask id="mask0" mask-type="alpha" maskUnits="userSpaceOnUse" x="0" y="0" width="90" height="90">
<rect width="90" height="90" fill="#C4C4C4"/>
</mask>
<g mask="url(#mask0)">
<path fill-rule="evenodd" clip-rule="evenodd" d="M59.4769 31.1185C59.0358 31.9405 59.3446 32.9644 60.1666 33.4054L72.2629 39.8963C72.8565 40.2148 72.8565 41.066 72.2629 41.3846L47.9694 54.4201C47.332 54.7621 46.5638 54.754 45.9338 54.3986L21.4492 40.5868L32.2842 34.0074C33.0816 33.5232 33.3354 32.4844 32.8513 31.6871C32.3671 30.8897 31.3283 30.6359 30.5309 31.12L19.0794 38.0737C17.1481 39.2465 17.1934 42.0645 19.1613 43.1746L44.2741 57.3408C44.4164 57.4211 44.5615 57.4945 44.7088 57.5612C44.708 57.5826 44.7075 57.6042 44.7075 57.6258V70.2934C44.7075 71.2262 45.4637 71.9824 46.3966 71.9824C47.3294 71.9824 48.0856 71.2262 48.0856 70.2934V57.9348C48.596 57.829 49.095 57.6497 49.5665 57.3967L73.8601 44.3611C76.8281 42.7685 76.8281 38.5124 73.8601 36.9197L61.7638 30.4289C60.9418 29.9878 59.918 30.2966 59.4769 31.1185ZM72.576 50.3068C72.576 49.3739 73.3322 48.6177 74.2651 48.6177C75.1979 48.6177 75.9541 49.3739 75.9541 50.3068V64.5539C75.9541 66.1105 75.0976 67.5409 73.7255 68.2759L49.3219 81.3493C47.6617 82.2387 45.6614 82.2149 44.0229 81.2861L18.9001 67.0461C17.9741 66.5212 17.4019 65.539 17.4019 64.4747V50.3068C17.4019 49.3739 18.158 48.6177 19.0909 48.6177C20.0237 48.6177 20.7799 49.3739 20.7799 50.3068V64.2286L45.6886 78.3474C46.3188 78.7046 47.0882 78.7138 47.7267 78.3717L72.1303 65.2983C72.4048 65.1513 72.576 64.8652 72.576 64.5539V50.3068Z" fill="white"/>
<path fill-rule="evenodd" clip-rule="evenodd" d="M38.5386 37.3457C38.5386 37.6467 38.6987 37.9249 38.9589 38.076L52.9529 46.2042C53.2142 46.356 53.5366 46.3566 53.7984 46.2059C54.0602 46.0552 54.2216 45.7761 54.2216 45.474L54.2216 37.2733C54.2216 36.3893 53.7609 35.5692 53.0059 35.1094L39.8223 27.0809C39.5616 26.9221 39.2355 26.9164 38.9694 27.0659C38.7033 27.2154 38.5386 27.4969 38.5386 27.8021L38.5386 37.3457Z" fill="white"/>
<path fill-rule="evenodd" clip-rule="evenodd" d="M38.5386 18.3881C38.5386 18.6891 38.6987 18.9672 38.9589 19.1184L52.9529 27.2466C53.2142 27.3983 53.5366 27.399 53.7984 27.2483C54.0602 27.0975 54.2216 26.8185 54.2216 26.5163L54.2216 18.3157C54.2216 17.4317 53.7609 16.6116 53.0059 16.1518L39.8223 8.12325C39.5616 7.96449 39.2355 7.95876 38.9694 8.10828C38.7033 8.2578 38.5386 8.53929 38.5386 8.84454L38.5386 18.3881Z" fill="white"/>
</g>
</svg>
