<svg width="230" height="230" viewBox="0 0 230 230" fill="none" xmlns="http://www.w3.org/2000/svg">
<mask id="mask0" mask-type="alpha" maskUnits="userSpaceOnUse" x="0" y="0" width="230" height="230">
<rect width="230" height="230" fill="#C4C4C4"/>
</mask>
<g mask="url(#mask0)">
<path fill-rule="evenodd" clip-rule="evenodd" d="M151.997 79.5251C150.87 81.6256 151.659 84.2422 153.759 85.3693L184.672 101.957C186.189 102.771 186.189 104.947 184.672 105.761L122.589 139.074C120.96 139.948 118.997 139.927 117.387 139.019L54.8149 103.722L82.5044 86.9077C84.542 85.6704 85.1908 83.0156 83.9535 80.978C82.7162 78.9404 80.0614 78.2916 78.0238 79.5289L48.7588 97.2995C43.8233 100.297 43.939 107.498 48.9681 110.335L113.145 146.538C113.509 146.743 113.88 146.93 114.256 147.101C114.254 147.156 114.253 147.211 114.253 147.266V179.639C114.253 182.022 116.185 183.955 118.569 183.955C120.953 183.955 122.886 182.022 122.886 179.639V148.056C124.19 147.785 125.465 147.327 126.67 146.68L188.754 113.367C196.339 109.297 196.339 98.4204 188.754 94.3504L157.841 77.7626C155.741 76.6354 153.124 77.4245 151.997 79.5251ZM185.472 128.562C185.472 126.178 187.405 124.245 189.789 124.245C192.173 124.245 194.105 126.178 194.105 128.562V164.971C194.105 168.949 191.916 172.604 188.41 174.483L126.045 207.893C121.802 210.166 116.691 210.105 112.503 207.731L48.3005 171.34C45.9341 169.999 44.4717 167.489 44.4717 164.769V128.562C44.4717 126.178 46.4042 124.245 48.788 124.245C51.1719 124.245 53.1044 126.178 53.1044 128.562V164.14L116.76 200.221C118.371 201.134 120.337 201.157 121.968 200.283L184.333 166.873C185.035 166.498 185.472 165.767 185.472 164.971V128.562Z" fill="#0D009D"/>
<path fill-rule="evenodd" clip-rule="evenodd" d="M98.4883 95.439C98.4883 96.2081 98.8975 96.919 99.5625 97.3052L135.325 118.077C135.993 118.465 136.817 118.467 137.486 118.082C138.155 117.696 138.567 116.983 138.567 116.211L138.567 95.2538C138.567 92.9948 137.39 90.899 135.46 89.724L101.769 69.2066C101.103 68.8008 100.269 68.7862 99.5893 69.1683C98.9092 69.5504 98.4883 70.2698 98.4883 71.0498L98.4883 95.439Z" fill="#0D009D"/>
<path fill-rule="evenodd" clip-rule="evenodd" d="M98.4883 46.9919C98.4883 47.761 98.8975 48.4719 99.5625 48.8581L135.325 69.6303C135.993 70.018 136.817 70.0197 137.486 69.6345C138.155 69.2494 138.567 68.5361 138.567 67.7641L138.567 46.8068C138.567 44.5477 137.39 42.4519 135.46 41.2769L101.769 20.7595C101.103 20.3537 100.269 20.3391 99.5893 20.7212C98.9092 21.1033 98.4883 21.8227 98.4883 22.6028L98.4883 46.9919Z" fill="#E84040"/>
</g>
</svg>
