<svg width="300" height="253" viewBox="0 0 300 253" fill="none" xmlns="http://www.w3.org/2000/svg">
<path d="M0 165.752L75 122.455L112.5 100.806L110.692 109.297L150 132.012L189.974 111.099L189.844 102.159L192.188 103.512L196.875 106.218L206.25 111.631L225 122.455L300 165.752L150 252.347L0 165.752Z" fill="white" fill-opacity="0.2"/>
<path d="M73.034 111.309L111.517 89.0929L110.091 108.696L150 131.52L191.175 108.696L188.483 89.0929L226.966 111.309L226.966 160.136L150 204.566L73.1282 160.136L73.034 111.309Z" fill="#6776A0"/>
<path d="M73.0339 111.309L111.517 89.093L110.091 109.297L150 132.945L190.574 109.297L188.483 89.093L226.966 111.309L150 155.742L73.0339 111.309Z" fill="#FCFCFC" fill-opacity="0.5"/>
<path fill-rule="evenodd" clip-rule="evenodd" d="M169.132 59.7567C168.485 60.9635 168.938 62.4668 170.145 63.1144L187.905 72.6443C188.776 73.112 188.776 74.3618 187.905 74.8294L152.237 93.9684C151.301 94.4705 150.173 94.4586 149.248 93.9368L113.3 73.6581L129.208 63.9982C130.379 63.2874 130.751 61.7621 130.04 60.5915C129.33 59.4208 127.804 59.0481 126.634 59.7589L109.82 69.9685C106.985 71.6903 107.051 75.8277 109.941 77.4576L146.812 98.2565C147.021 98.3744 147.233 98.4823 147.45 98.5801C147.448 98.6116 147.448 98.6433 147.448 98.675V117.274C147.448 118.643 148.558 119.753 149.928 119.753C151.297 119.753 152.408 118.643 152.408 117.274V99.1287C153.157 98.9733 153.89 98.7101 154.582 98.3386L190.25 79.1997C194.608 76.8614 194.608 70.6125 190.25 68.2741L172.49 58.7442C171.283 58.0966 169.78 58.55 169.132 59.7567ZM188.365 87.9291C188.365 86.5595 189.475 85.4493 190.845 85.4493C192.214 85.4493 193.324 86.5595 193.324 87.9291V108.847C193.324 111.132 192.067 113.232 190.052 114.312L154.223 133.506C151.785 134.812 148.848 134.777 146.443 133.413L109.557 112.506C108.198 111.735 107.357 110.293 107.357 108.731V87.9291C107.357 86.5595 108.468 85.4493 109.837 85.4493C111.207 85.4493 112.317 86.5595 112.317 87.9291V108.369L148.888 129.099C149.814 129.623 150.943 129.637 151.881 129.134L187.71 109.94C188.113 109.724 188.365 109.304 188.365 108.847V87.9291Z" fill="white"/>
<mask id="mask0" mask-type="alpha" maskUnits="userSpaceOnUse" x="118" y="0" width="64" height="64">
<path d="M118 0H182V64H118V0Z" fill="#C4C4C4"/>
</mask>
<g mask="url(#mask0)">
<path d="M152.857 7.42847C157.467 15.9998 150.231 12.5749 151.715 21.7142" stroke="white" stroke-opacity="0.5" stroke-width="4" stroke-linecap="round" stroke-linejoin="round"/>
<path d="M144.466 3.42847C150.18 11.9999 141.839 8.57488 143.323 17.7142" stroke="white" stroke-opacity="0.5" stroke-width="4" stroke-linecap="round" stroke-linejoin="round"/>
<path d="M140.82 54.6435C137.676 53.2003 135.012 50.8851 133.145 47.9729C131.278 45.0606 130.285 41.6737 130.286 38.2142V28.3571H166.429V38.2142C166.429 41.6737 165.437 45.0607 163.57 47.9729C161.702 50.8852 159.039 53.2004 155.895 54.6436" stroke="white" stroke-width="4" stroke-linecap="round" stroke-linejoin="round"/>
<path d="M166.429 28.3573C168.172 28.3573 171.977 29.0496 173.209 30.282C174.442 31.5144 175.134 33.1859 175.134 34.9287V36.5716C175.134 38.3144 174.442 39.9859 173.209 41.2183C171.977 42.4507 168.172 43.143 166.429 43.143H165.735" stroke="white" stroke-width="4" stroke-linecap="round" stroke-linejoin="round"/>
</g>
</svg>
