<svg width="30" height="30" viewBox="0 0 30 30" fill="none" xmlns="http://www.w3.org/2000/svg">
<path d="M15 20.625V9.375" stroke="black" stroke-width="1.5" stroke-linecap="round" stroke-linejoin="round"/>
<path d="M12.9167 17.665C13.6876 18.1801 14.2884 18.9122 14.6432 19.7687C14.998 20.6253 15.0908 21.5678 14.9099 22.477C14.7291 23.3863 14.2826 24.2216 13.6271 24.8771C12.9715 25.5327 12.1363 25.9791 11.227 26.16C10.3177 26.3409 9.3752 26.248 8.51867 25.8932C7.66214 25.5385 6.93006 24.9376 6.41499 24.1668C5.89992 23.3959 5.625 22.4897 5.625 21.5626V20.7735" stroke="#0D009D" stroke-width="1.5" stroke-linecap="round" stroke-linejoin="round"/>
<path d="M17.0833 17.665C16.3124 18.1801 15.7116 18.9122 15.3568 19.7687C15.002 20.6253 14.9092 21.5678 15.0901 22.477C15.2709 23.3863 15.7174 24.2216 16.3729 24.8771C17.0285 25.5327 17.8637 25.9791 18.773 26.16C19.6823 26.3409 20.6248 26.248 21.4813 25.8932C22.3379 25.5385 23.0699 24.9376 23.585 24.1668C24.1001 23.3959 24.375 22.4897 24.375 21.5626V20.7737" stroke="#0D009D" stroke-width="1.5" stroke-linecap="round" stroke-linejoin="round"/>
<path d="M5.625 20.7812C5.625 20.7812 4.88881 20.6242 3.87432 19.7688C2.85984 18.9134 2.18038 17.7269 1.956 16.4191C1.73163 15.1112 1.97678 13.7661 2.64815 12.6215C3.31951 11.4768 4.37387 10.6064 5.62491 10.1639L5.625 8.4375C5.625 7.1943 6.11886 6.00201 6.99793 5.12294C7.87701 4.24386 9.06929 3.75 10.3125 3.75C11.5557 3.75 12.748 4.24386 13.6271 5.12294C14.5061 6.00201 15 7.1943 15 8.4375V21.5625" stroke="#0D009D" stroke-width="1.5" stroke-linecap="round" stroke-linejoin="round"/>
<path d="M24.3751 20.7031C24.3751 20.7031 25.1112 20.6242 26.1257 19.7688C27.1402 18.9134 27.8196 17.7269 28.044 16.4191C28.2684 15.1112 28.0232 13.7661 27.3518 12.6215C26.6805 11.4768 25.6261 10.6064 24.3751 10.1639L24.375 8.4375C24.375 7.1943 23.8811 6.00201 23.0021 5.12294C22.123 4.24386 20.9307 3.75 19.6875 3.75C18.4443 3.75 17.252 4.24386 16.3729 5.12294C15.4939 6.00201 15 7.1943 15 8.4375" stroke="#0D009D" stroke-width="1.5" stroke-linecap="round" stroke-linejoin="round"/>
<path d="M10.4688 9.21875V11.1458C10.4688 11.9194 10.1724 12.6612 9.64499 13.2082C9.11754 13.7552 8.40217 14.0625 7.65625 14.0625" stroke="#E84040" stroke-width="1.5" stroke-linecap="round" stroke-linejoin="round"/>
<path d="M8.37632 17.6563L8.95969 17.966C9.50121 18.2536 9.91176 18.7342 10.101 19.3022C10.2903 19.8702 10.2428 20.4791 9.96892 20.9948" stroke="#E84040" stroke-width="1.5" stroke-linecap="round" stroke-linejoin="round"/>
<path d="M22.1564 17.6563L21.573 17.966C21.0315 18.2536 20.621 18.7342 20.4317 19.3022C20.2424 19.8702 20.29 20.4791 20.5638 20.9948" stroke="#E84040" stroke-width="1.5" stroke-linecap="round" stroke-linejoin="round"/>
<path d="M19.8438 9.53125V11.3715C19.8438 12.2095 20.1565 13.0132 20.7133 13.6058C21.27 14.1984 22.0251 14.5312 22.8125 14.5312" stroke="#E84040" stroke-width="1.5" stroke-linecap="round" stroke-linejoin="round"/>
</svg>
