<svg width="30" height="30" viewBox="0 0 30 30" fill="none" xmlns="http://www.w3.org/2000/svg">
<mask id="mask0_844_523" style="mask-type:alpha" maskUnits="userSpaceOnUse" x="0" y="0" width="30" height="30">
<rect width="30" height="30" fill="#C4C4C4"/>
</mask>
<g mask="url(#mask0_844_523)">
<path d="M15 2.30005L15.5408 3.55575L16.9021 3.68201L15.875 4.58434L16.1756 5.91808L15 5.22005L13.8244 5.91808L14.125 4.58434L13.0979 3.68201L14.4592 3.55575L15 2.30005Z" fill="#0D009D"/>
<path d="M15 22.7L15.5408 23.9557L16.9021 24.0819L15.875 24.9842L16.1756 26.318L15 25.62L13.8244 26.318L14.125 24.9842L13.0979 24.0819L14.4592 23.9557L15 22.7Z" fill="#0D009D"/>
<path d="M10 4L10.5408 5.2557L11.9021 5.38197L10.875 6.2843L11.1756 7.61803L10 6.92L8.82443 7.61803L9.12503 6.2843L8.09789 5.38197L9.45924 5.2557L10 4Z" fill="#0D009D"/>
<path d="M20 4L20.5408 5.2557L21.9021 5.38197L20.875 6.2843L21.1756 7.61803L20 6.92L18.8244 7.61803L19.125 6.2843L18.0979 5.38197L19.4592 5.2557L20 4Z" fill="#0D009D"/>
<path d="M10 21L10.5408 22.2557L11.9021 22.382L10.875 23.2843L11.1756 24.618L10 23.92L8.82443 24.618L9.12503 23.2843L8.09789 22.382L9.45924 22.2557L10 21Z" fill="#0D009D"/>
<path d="M20 21L20.5408 22.2557L21.9021 22.382L20.875 23.2843L21.1756 24.618L20 23.92L18.8244 24.618L19.125 23.2843L18.0979 22.382L19.4592 22.2557L20 21Z" fill="#0D009D"/>
<path d="M24 7L24.5408 8.2557L25.9021 8.38197L24.875 9.2843L25.1756 10.618L24 9.92L22.8244 10.618L23.125 9.2843L22.0979 8.38197L23.4592 8.2557L24 7Z" fill="#0D009D"/>
<path d="M6 7L6.54076 8.2557L7.90211 8.38197L6.87497 9.2843L7.17557 10.618L6 9.92L4.82443 10.618L5.12503 9.2843L4.09789 8.38197L5.45924 8.2557L6 7Z" fill="#0D009D"/>
<path d="M24 17L24.5408 18.2557L25.9021 18.382L24.875 19.2843L25.1756 20.618L24 19.92L22.8244 20.618L23.125 19.2843L22.0979 18.382L23.4592 18.2557L24 17Z" fill="#0D009D"/>
<path d="M6 17L6.54076 18.2557L7.90211 18.382L6.87497 19.2843L7.17557 20.618L6 19.92L4.82443 20.618L5.12503 19.2843L4.09789 18.382L5.45924 18.2557L6 17Z" fill="#0D009D"/>
<path d="M25 12L25.5408 13.2557L26.9021 13.382L25.875 14.2843L26.1756 15.618L25 14.92L23.8244 15.618L24.125 14.2843L23.0979 13.382L24.4592 13.2557L25 12Z" fill="#0D009D"/>
<path d="M5 12L5.54076 13.2557L6.90211 13.382L5.87497 14.2843L6.17557 15.618L5 14.92L3.82443 15.618L4.12503 14.2843L3.09789 13.382L4.45924 13.2557L5 12Z" fill="#0D009D"/>
<path d="M19.8739 18.4994C20.0349 18.2751 19.9836 17.9627 19.7593 17.8016C19.535 17.6405 19.2226 17.6918 19.0616 17.9161L19.8739 18.4994ZM12.5237 19.911L12.7489 19.4646L12.5237 19.911ZM15.8528 9.56652L15.7752 10.0605L15.8528 9.56652ZM19.1797 11.4251L18.7997 11.7501L19.1797 11.4251ZM20 15C20 15.2762 20.2239 15.5 20.5 15.5C20.7761 15.5 21 15.2762 21 15H20ZM19.0616 17.9161C18.3665 18.8842 17.3486 19.5722 16.1911 19.8561L16.4294 20.8273C17.8183 20.4866 19.0398 19.661 19.8739 18.4994L19.0616 17.9161ZM16.1911 19.8561C15.0337 20.14 13.813 20.0011 12.7489 19.4646L12.2986 20.3575C13.5756 21.0014 15.0405 21.168 16.4294 20.8273L16.1911 19.8561ZM12.7489 19.4646C11.6848 18.928 10.8473 18.0291 10.3874 16.9297L9.46483 17.3156C10.0167 18.6349 11.0217 19.7136 12.2986 20.3575L12.7489 19.4646ZM10.3874 16.9297C9.92744 15.8303 9.87532 14.6027 10.2404 13.4683L9.28847 13.162C8.85038 14.5233 8.91292 15.9963 9.46483 17.3156L10.3874 16.9297ZM10.2404 13.4683C10.6055 12.3339 11.3637 11.3671 12.3785 10.7423L11.8542 9.89079C10.6365 10.6406 9.72656 11.8007 9.28847 13.162L10.2404 13.4683ZM12.3785 10.7423C13.3933 10.1175 14.5979 9.8757 15.7752 10.0605L15.9303 9.07257C14.5175 8.85084 13.072 9.14102 11.8542 9.89079L12.3785 10.7423ZM15.7752 10.0605C16.9525 10.2452 18.0251 10.8444 18.7997 11.7501L19.5597 11.1001C18.6302 10.0133 17.3431 9.29429 15.9303 9.07257L15.7752 10.0605ZM18.7997 11.7501C19.5743 12.6558 20 13.8083 20 15H21C21 13.5699 20.4892 12.1869 19.5597 11.1001L18.7997 11.7501Z" fill="#E84040"/>
</g>
</svg>
