<svg width="30" height="30" viewBox="0 0 30 30" fill="none" xmlns="http://www.w3.org/2000/svg">
<path d="M14.7739 4.95654C9.69375 5.07611 5.59706 9.30027 5.62514 14.3818C5.63185 15.7962 5.95909 17.1908 6.58227 18.4606C7.20544 19.7304 8.10834 20.8424 9.22309 21.713C9.56137 21.9764 9.83527 22.3133 10.024 22.6982C10.2128 23.0831 10.3114 23.5059 10.3125 23.9346L10.3125 25.7122C10.3125 25.9608 10.4113 26.1993 10.5871 26.3751C10.7629 26.5509 11.0013 26.6497 11.25 26.6497H18.75C18.9987 26.6497 19.2371 26.5509 19.4129 26.3751C19.5887 26.1993 19.6875 25.9608 19.6875 25.7122L19.6875 23.9354C19.6901 23.5039 19.7907 23.0787 19.9818 22.6918C20.1729 22.305 20.4494 21.9666 20.7905 21.7023C22.3392 20.486 23.4655 18.813 24.0098 16.9205" stroke="#0D009D" stroke-width="1.5" stroke-linecap="round" stroke-linejoin="round"/>
<path d="M18.0067 5.44922C18.8153 5.72305 19.5876 6.10765 20.3003 6.59617C21.9245 7.7095 23.1569 9.30599 23.8228 11.1592C24.1114 11.9625 24.2872 12.7964 24.3494 13.6375" stroke="#E84040" stroke-width="1.5" stroke-linecap="round" stroke-linejoin="round"/>
<path d="M15.0804 12.0312L13.4742 15.779H16.6866L15.0804 19.5267" stroke="#E84040" stroke-width="1.5" stroke-linecap="round" stroke-linejoin="round"/>
</svg>
