<svg width="30" height="30" viewBox="0 0 30 30" fill="none" xmlns="http://www.w3.org/2000/svg">
<path d="M15 19.687C19.6599 19.687 23.4375 15.9094 23.4375 11.2495C23.4375 6.58961 19.6599 2.81201 15 2.81201C10.3401 2.81201 6.5625 6.58961 6.5625 11.2495C6.5625 15.9094 10.3401 19.687 15 19.687Z" stroke="#0D009D" stroke-width="1.5" stroke-linecap="round" stroke-linejoin="round"/>
<path d="M23.6179 19.8666C21.3323 22.1523 18.2323 23.4363 15 23.4363C11.7677 23.4363 8.66774 22.1523 6.38214 19.8666C4.09654 17.581 2.8125 14.4811 2.8125 11.2488C2.8125 8.01642 4.09654 4.91647 6.38214 2.63086" stroke="#E84040" stroke-width="1.5" stroke-linecap="round" stroke-linejoin="round"/>
<path d="M11.25 27.187H18.75" stroke="#E84040" stroke-width="1.5" stroke-linecap="round" stroke-linejoin="round"/>
<path d="M15 23.437V27.187" stroke="#E84040" stroke-width="1.5" stroke-linecap="round" stroke-linejoin="round"/>
</svg>
