<svg width="21" height="20" viewBox="0 0 21 20" fill="none" xmlns="http://www.w3.org/2000/svg">
<path fill-rule="evenodd" clip-rule="evenodd" d="M9.59026 18.2286C9.59172 18.7691 10.0311 19.2066 10.5717 19.2056C11.0859 19.2046 11.5064 18.8073 11.5449 18.3033C11.5469 18.2774 11.5479 18.2513 11.5478 18.2248L11.5014 1.04534C11.4999 0.504774 11.0605 0.0673618 10.52 0.0683498C10.0058 0.0692921 9.58526 0.46657 9.54672 0.970583C9.54473 0.996481 9.54376 1.02266 9.54383 1.04908L9.59026 18.2286Z" fill="white"/>
<path fill-rule="evenodd" clip-rule="evenodd" d="M1.95551 8.68169C1.41494 8.68315 0.97753 9.12255 0.978517 9.66312C0.97946 10.1773 1.37674 10.5978 1.88075 10.6364C1.90665 10.6384 1.93283 10.6393 1.95925 10.6393L19.1387 10.5928C19.6793 10.5914 20.1167 10.152 20.1157 9.61141C20.1148 9.09721 19.7175 8.67669 19.2135 8.63815C19.1876 8.63616 19.1614 8.63519 19.135 8.63526L1.95551 8.68169Z" fill="white"/>
</svg>
