<svg width="31" height="31" viewBox="0 0 31 31" fill="none" xmlns="http://www.w3.org/2000/svg">
<path d="M11.5618 28.9326C13.3889 29.3867 15.2876 29.4764 17.1494 29.1966C19.0112 28.9169 20.7997 28.2732 22.4127 27.3023C24.0257 26.3314 25.4317 25.0522 26.5504 23.5379C27.6691 22.0236 28.4786 20.3038 28.9326 18.4767C29.3867 16.6496 29.4764 14.7509 29.1966 12.8891C28.9169 11.0273 28.2732 9.23881 27.3023 7.62578C26.3314 6.01274 25.0522 4.60674 23.5379 3.48805C22.0236 2.36936 20.3038 1.55989 18.4767 1.10584C16.6496 0.651805 14.7509 0.562091 12.8891 0.841826C11.0273 1.12156 9.23881 1.76527 7.62577 2.73619C6.01274 3.70711 4.60674 4.98624 3.48805 6.50053C2.36936 8.01483 1.55988 9.73464 1.10584 11.5618C0.651805 13.3889 0.562091 15.2876 0.841826 17.1494C1.12156 19.0112 1.76527 20.7997 2.73619 22.4127C3.70711 24.0257 4.98624 25.4317 6.50053 26.5504C8.01483 27.6691 9.73464 28.4786 11.5618 28.9326L11.5618 28.9326Z" stroke="#0D009D" stroke-width="1.36538"/>
<path d="M20.4415 14.0208C20.8281 14.0208 21.1415 14.3342 21.1415 14.7208C21.1415 15.1074 20.8281 15.4208 20.4415 15.4208L20.4415 14.0208ZM8.50492 15.2158C8.23155 14.9424 8.23155 14.4992 8.50492 14.2258L12.9597 9.77107C13.2331 9.4977 13.6763 9.4977 13.9496 9.77107C14.223 10.0444 14.223 10.4876 13.9496 10.761L9.98984 14.7208L13.9496 18.6806C14.223 18.954 14.223 19.3972 13.9496 19.6706C13.6763 19.9439 13.2331 19.9439 12.9597 19.6706L8.50492 15.2158ZM20.4415 15.4208H8.99989L8.99989 14.0208H20.4415L20.4415 15.4208Z" fill="#0D009D"/>
</svg>
