<svg width="16" height="16" viewBox="0 0 16 16" fill="none" xmlns="http://www.w3.org/2000/svg">
<path fill-rule="evenodd" clip-rule="evenodd" d="M0.79652 13.0368C0.415316 13.4201 0.416721 14.0401 0.799657 14.4216C1.16392 14.7846 1.74219 14.801 2.12583 14.4719C2.14555 14.4549 2.16475 14.4371 2.18338 14.4184L14.2983 2.23782C14.6795 1.85455 14.6781 1.23455 14.2951 0.853012C13.9309 0.490085 13.3526 0.473652 12.969 0.80279C12.9493 0.819699 12.9301 0.83752 12.9114 0.856254L0.79652 13.0368Z" fill="white"/>
<path fill-rule="evenodd" clip-rule="evenodd" d="M2.14732 0.886272C1.76405 0.505068 1.14405 0.506474 0.762509 0.88941C0.399582 1.25367 0.383149 1.83194 0.712287 2.21558C0.729196 2.2353 0.747018 2.2545 0.765752 2.27313L12.9463 14.388C13.3296 14.7692 13.9496 14.7678 14.3311 14.3849C14.6941 14.0206 14.7105 13.4424 14.3814 13.0587C14.3644 13.039 14.3466 13.0198 14.3279 13.0012L2.14732 0.886272Z" fill="white"/>
</svg>
