<svg width="17" height="18" viewBox="0 0 17 18" fill="none" xmlns="http://www.w3.org/2000/svg">
<path fill-rule="evenodd" clip-rule="evenodd" d="M2.77109 10.1235C2.3654 10.1235 2.03652 10.4523 2.03652 10.858V15.784C2.03652 16.1896 2.3654 16.5186 2.77109 16.5186H14.5242C14.9298 16.5186 15.2587 16.1896 15.2587 15.784V10.858C15.2587 10.4523 14.9298 10.1235 14.5242 10.1235H12.6878C12.2821 10.1235 11.9532 9.79457 11.9532 9.38888C11.9532 8.98319 12.2821 8.65431 12.6878 8.65431H14.5242C15.7412 8.65431 16.7279 9.64094 16.7279 10.858V15.784C16.7279 17.001 15.7412 17.9877 14.5242 17.9877H2.77109C1.55401 17.9877 0.567383 17.001 0.567383 15.784V10.858C0.567383 9.64094 1.55401 8.65431 2.77109 8.65431H4.60751C5.01319 8.65431 5.34207 8.98319 5.34207 9.38888C5.34207 9.79457 5.01319 10.1235 4.60751 10.1235H2.77109ZM7.91306 2.58918L5.80955 4.69269C5.55137 4.95086 5.13278 4.95086 4.8746 4.69269C4.61642 4.43451 4.61642 4.01592 4.8746 3.75773L8.18015 0.452181C8.30413 0.328198 8.47229 0.258545 8.64763 0.258545C8.82297 0.258545 8.99113 0.328198 9.11511 0.452181L12.4207 3.75773C12.6788 4.01592 12.6788 4.43451 12.4207 4.69269C12.1625 4.95086 11.7439 4.95086 11.4857 4.69269L9.3822 2.58918V11.3764C9.3822 11.7821 9.05332 12.111 8.64763 12.111C8.24194 12.111 7.91306 11.7821 7.91306 11.3764V2.58918Z" fill="white"/>
</svg>
