<svg width="39" height="27" viewBox="0 0 39 27" fill="none" xmlns="http://www.w3.org/2000/svg">
<path d="M2.52798 3.15544L5.54922 11.0674H7.49144L10.5281 3.15544V11.0674H13.0561V0H9.60323L6.52033 8.12953L3.4066 0H0V11.0674H2.52798V3.15544Z" fill="#0D009D"/>
<path d="M18.3554 6.32643H22.9489V4.46114H18.3554V2.09845H23.5655V0H15.8583V11.0674H23.7197V8.96891H18.3554V6.32643Z" fill="#0D009D"/>
<path d="M18.8517 15.544H16V26.6114H18.4509V18.715L22.7534 26.6114H25.605V15.544H23.1387V23.456L18.8517 15.544Z" fill="#0D009D"/>
<path d="M36.395 21.9637C36.395 23.5959 35.4701 24.7617 34.0828 24.7617C32.603 24.7306 31.7552 23.3938 31.7552 21.9637V15.544H29.1501V22.0259C29.1501 24.9637 31.1694 27 34.0828 27C36.9807 27 39 24.9637 39 22.0259V15.544H36.395V21.9637Z" fill="#0D009D"/>
</svg>
