<svg width="25" height="25" viewBox="0 0 25 25" fill="none" xmlns="http://www.w3.org/2000/svg">
<path d="M9.65009 23.9685C11.1562 24.3428 12.7212 24.4167 14.2558 24.1861C15.7905 23.9556 17.2647 23.425 18.5943 22.6247C19.9239 21.8243 21.0828 20.77 22.0049 19.5218C22.927 18.2736 23.5943 16.856 23.9685 15.3499C24.3428 13.8438 24.4167 12.2788 24.1861 10.7442C23.9556 9.20952 23.425 7.73532 22.6247 6.40573C21.8243 5.07614 20.77 3.9172 19.5218 2.99509C18.2736 2.07298 16.856 1.40574 15.3499 1.03149C13.8438 0.657232 12.2788 0.583283 10.7442 0.813863C9.20952 1.04444 7.73532 1.57503 6.40573 2.37535C5.07614 3.17566 3.9172 4.23001 2.99509 5.47822C2.07298 6.72642 1.40574 8.14402 1.03149 9.65009C0.657232 11.1562 0.583283 12.7212 0.813863 14.2558C1.04444 15.7905 1.57503 17.2647 2.37535 18.5943C3.17566 19.9239 4.23001 21.0828 5.47822 22.0049C6.72642 22.927 8.14402 23.5943 9.65009 23.9685L9.65009 23.9685Z" stroke="#0D009D" stroke-width="1.36538"/>
<path fill-rule="evenodd" clip-rule="evenodd" d="M7.12082 7.12069C6.81824 7.42327 6.81824 7.91026 6.81824 8.88425V9.91731C6.81824 10.8913 6.81824 11.3783 7.12082 11.6809C7.42339 11.9834 7.91039 11.9834 8.88437 11.9834H9.91744C10.8914 11.9834 11.3784 11.9834 11.681 11.6809C11.9836 11.3783 11.9836 10.8913 11.9836 9.91731V8.88425C11.9836 7.91026 11.9836 7.42327 11.681 7.12069C11.3784 6.81812 10.8914 6.81812 9.91744 6.81812H8.88437C7.91039 6.81812 7.42339 6.81812 7.12082 7.12069ZM13.3193 7.12069C13.0168 7.42327 13.0168 7.91026 13.0168 8.88425V9.91731C13.0168 10.8913 13.0168 11.3783 13.3193 11.6809C13.6219 11.9834 14.1089 11.9834 15.0829 11.9834H16.116C17.0899 11.9834 17.5769 11.9834 17.8795 11.6809C18.1821 11.3783 18.1821 10.8913 18.1821 9.91731V8.88425C18.1821 7.91026 18.1821 7.42327 17.8795 7.12069C17.5769 6.81812 17.0899 6.81812 16.116 6.81812H15.0829C14.1089 6.81812 13.6219 6.81812 13.3193 7.12069ZM6.81824 15.0827C6.81824 14.1087 6.81824 13.6217 7.12082 13.3191C7.42339 13.0165 7.91039 13.0165 8.88437 13.0165H9.91744C10.8914 13.0165 11.3784 13.0165 11.681 13.3191C11.9836 13.6217 11.9836 14.1087 11.9836 15.0827V16.1157C11.9836 17.0897 11.9836 17.5767 11.681 17.8793C11.3784 18.1819 10.8914 18.1819 9.91744 18.1819H8.88437C7.91039 18.1819 7.42339 18.1819 7.12082 17.8793C6.81824 17.5767 6.81824 17.0897 6.81824 16.1157V15.0827ZM13.3193 13.3191C13.0168 13.6217 13.0168 14.1087 13.0168 15.0827V16.1157C13.0168 17.0897 13.0168 17.5767 13.3193 17.8793C13.6219 18.1819 14.1089 18.1819 15.0829 18.1819H16.116C17.0899 18.1819 17.5769 18.1819 17.8795 17.8793C18.1821 17.5767 18.1821 17.0897 18.1821 16.1157V15.0827C18.1821 14.1087 18.1821 13.6217 17.8795 13.3191C17.5769 13.0165 17.0899 13.0165 16.116 13.0165H15.0829C14.1089 13.0165 13.6219 13.0165 13.3193 13.3191Z" fill="#0D009D"/>
</svg>
