<svg width="25" height="26" viewBox="0 0 25 26" fill="none" xmlns="http://www.w3.org/2000/svg">
<path d="M9.6509 24.4589C11.1566 24.835 12.7211 24.9093 14.2553 24.6776C15.7895 24.4459 17.2634 23.9126 18.5929 23.1082C19.9224 22.3037 21.0815 21.2438 22.0039 19.9887C22.9263 18.7336 23.5938 17.308 23.9683 15.7932C24.3428 14.2783 24.4168 12.7042 24.1861 11.1606C23.9553 9.61698 23.4245 8.13433 22.6238 6.79728C21.8232 5.46024 20.7686 4.29505 19.5204 3.36809C18.2722 2.44114 16.8548 1.77054 15.3491 1.39442C13.8434 1.01831 12.2789 0.944 10.7447 1.17572C9.2105 1.40743 7.73657 1.94067 6.40708 2.74511C5.07758 3.54956 3.91848 4.60951 2.9961 5.86461C2.07372 7.11971 1.40615 8.54535 1.03169 10.0601C0.657221 11.575 0.583223 13.1491 0.81394 14.6927C1.04466 16.2363 1.57555 17.719 2.37616 19.056C3.17676 20.3931 4.23136 21.5583 5.47959 22.4852C6.7278 23.4122 8.14523 24.0828 9.6509 24.4589L9.6509 24.4589Z" stroke="#0D009D" stroke-width="1.36538"/>
<path d="M7.19302 13.2001L6.08528 10.8851L8.39016 9.76965" stroke="#0D009D" stroke-width="1.36538" stroke-linecap="round" stroke-linejoin="round"/>
<path d="M12.3842 16.102C12.3329 15.1715 12.0082 14.2775 11.451 13.533C10.8939 12.7884 10.1294 12.2268 9.25422 11.9192L6.84056 11.0708" stroke="#0D009D" stroke-width="1.36538" stroke-linecap="round" stroke-linejoin="round"/>
<path d="M18.023 13.2001L19.1307 10.8851L16.8258 9.76965" stroke="#0D009D" stroke-width="1.36538" stroke-linecap="round" stroke-linejoin="round"/>
<path d="M12.8318 16.102C12.8831 15.1715 13.2078 14.2775 13.7649 13.533C14.3221 12.7884 15.0866 12.2268 15.9618 11.9192L18.3754 11.0708" stroke="#0D009D" stroke-width="1.36538" stroke-linecap="round" stroke-linejoin="round"/>
</svg>
