<svg width="163" height="45" viewBox="0 0 163 45" fill="none" xmlns="http://www.w3.org/2000/svg">
<path d="M66.4915 17.928V14.97H60.3699V3.30217H56.9189V17.928H66.4915Z" fill="white"/>
<path d="M77.0707 6.26021L79.3714 13.0391H74.77L77.0707 6.26021ZM74.0921 15.5041H80.0493L80.8504 17.928H84.4658L79.5768 3.30217H74.5646L69.6551 17.928H73.291L74.0921 15.5041Z" fill="white"/>
<path d="M99.0299 2.78862L103.734 17.4145H108.993L113.676 2.78862H110.081L106.363 14.8673L102.625 2.78862H99.0299Z" fill="white"/>
<path d="M124.558 17.928C129.345 17.928 132.652 14.744 132.652 10.1016C132.652 5.47962 129.345 2.27507 124.558 2.27507C119.752 2.27507 116.465 5.47962 116.465 10.1016C116.465 14.744 119.752 17.928 124.558 17.928ZM124.558 5.23311C127.291 5.23311 129.201 7.24622 129.201 10.1016C129.201 12.9569 127.291 14.97 124.558 14.97C121.826 14.9495 119.916 12.9569 119.916 10.1016C119.916 7.24622 121.826 5.23311 124.558 5.23311Z" fill="white"/>
<path d="M137.352 2.78862V17.4145H140.803V2.78862H137.352Z" fill="white"/>
<path d="M145.098 17.4145H149.103L152.657 11.6217L156.293 17.4145H160.36L155.266 9.69072L160.237 2.78862H156.17L152.657 7.86248L149.227 2.78862H145.221L149.966 9.69072L145.098 17.4145Z" fill="white"/>
<path d="M56.9189 43.6055H62.4036C67.4569 43.6055 70.8258 40.6885 70.8258 36.2926C70.8258 31.8966 67.4569 28.9796 62.4036 28.9796H56.9189V43.6055ZM67.3953 36.2926C67.3953 39.1273 65.3822 40.9145 62.4036 40.9145H60.2878V31.6706H62.4036C65.3822 31.6706 67.3953 33.4578 67.3953 36.2926Z" fill="white"/>
<path d="M85.0134 37.4634C85.0134 39.6203 83.7809 41.161 81.9321 41.161C79.9601 41.1199 78.8303 39.3533 78.8303 37.4634V28.9796H75.3587V37.5456C75.3587 41.428 78.0497 44.119 81.9321 44.119C85.794 44.119 88.485 41.428 88.485 37.5456V28.9796H85.0134V37.4634Z" fill="white"/>
<path d="M99.0299 29.4932L103.734 44.119H108.993L113.676 29.4932H110.081L106.363 41.5718L102.625 29.4932H99.0299Z" fill="white"/>
<path d="M124.558 44.6326C129.345 44.6326 132.652 41.4486 132.652 36.8061C132.652 32.1842 129.345 28.9796 124.558 28.9796C119.752 28.9796 116.465 32.1842 116.465 36.8061C116.465 41.4486 119.752 44.6326 124.558 44.6326ZM124.558 31.9377C127.291 31.9377 129.201 33.9508 129.201 36.8061C129.201 39.6614 127.291 41.6745 124.558 41.6745C121.826 41.654 119.916 39.6614 119.916 36.8061C119.916 33.9508 121.826 31.9377 124.558 31.9377Z" fill="white"/>
<path d="M140.412 44.119H143.864V32.369H148.26V29.4932H136.017V32.369H140.412V44.119Z" fill="white"/>
<path d="M155.653 37.8537H161.774V35.3887H155.653V32.2663H162.596V29.4932H152.325V44.119H162.801V41.3459H155.653V37.8537Z" fill="white"/>
<path fill-rule="evenodd" clip-rule="evenodd" d="M25.5862 14.0586C25.318 14.5584 25.5057 15.1811 26.0056 15.4493L33.3614 19.3964C33.7224 19.5901 33.7224 20.1078 33.3614 20.3015L18.5883 28.2285C18.2007 28.4365 17.7336 28.4315 17.3505 28.2154L2.46121 19.8163L9.05009 15.8154C9.53495 15.5209 9.68933 14.8892 9.39491 14.4043C9.10048 13.9195 8.46875 13.7651 7.98389 14.0595L1.02014 18.2881C-0.154285 19.0013 -0.126757 20.7149 1.06995 21.39L16.3412 30.0046C16.4278 30.0534 16.516 30.0981 16.6055 30.1386C16.6051 30.1517 16.6048 30.1648 16.6048 30.1779V37.8812C16.6048 38.4484 17.0647 38.9083 17.6319 38.9083C18.1992 38.9083 18.659 38.4484 18.659 37.8812V30.3658C18.9694 30.3015 19.2729 30.1924 19.5596 30.0386L34.3327 22.1115C36.1376 21.1431 36.1376 18.5549 34.3327 17.5864L26.9768 13.6392C26.477 13.371 25.8544 13.5588 25.5862 14.0586ZM33.5519 25.7271C33.5519 25.1599 34.0117 24.7 34.579 24.7C35.1462 24.7 35.6061 25.1599 35.6061 25.7271V34.3909C35.6061 35.3375 35.0853 36.2073 34.2509 36.6543L19.4108 44.6044C18.4012 45.1452 17.1849 45.1307 16.1885 44.5659L0.911088 35.9064C0.347995 35.5873 0 34.99 0 34.3427V25.7271C0 25.1599 0.459844 24.7 1.0271 24.7C1.59435 24.7 2.0542 25.1599 2.0542 25.7271V34.1931L17.2014 42.7788C17.5846 42.9961 18.0525 43.0016 18.4408 42.7936L33.2808 34.8436C33.4477 34.7542 33.5519 34.5802 33.5519 34.3909V25.7271Z" fill="white"/>
<path fill-rule="evenodd" clip-rule="evenodd" d="M12.8542 17.8454C12.8542 18.0284 12.9515 18.1976 13.1098 18.2895L21.6196 23.2323C21.7785 23.3246 21.9745 23.325 22.1338 23.2333C22.293 23.1417 22.3911 22.972 22.3911 22.7882L22.3911 17.8013C22.3911 17.2638 22.1109 16.7651 21.6518 16.4855L13.6348 11.6033C13.4763 11.5067 13.278 11.5032 13.1161 11.5941C12.9543 11.6851 12.8541 11.8562 12.8541 12.0419L12.8542 17.8454Z" fill="white"/>
<path fill-rule="evenodd" clip-rule="evenodd" d="M12.8542 6.31709C12.8542 6.50008 12.9515 6.66925 13.1098 6.76116L21.6196 11.704C21.7785 11.7963 21.9745 11.7966 22.1338 11.705C22.293 11.6134 22.3911 11.4436 22.3911 11.2599L22.3911 6.27302C22.3911 5.73546 22.1109 5.23677 21.6518 4.95717L13.6348 0.0749327C13.4763 -0.0216142 13.278 -0.0250951 13.1161 0.0658287C12.9543 0.156752 12.8541 0.327928 12.8541 0.51355L12.8542 6.31709Z" fill="white"/>
</svg>
