<svg width="104" height="104" viewBox="0 0 104 104" fill="none" xmlns="http://www.w3.org/2000/svg">
<mask id="mask0" mask-type="alpha" maskUnits="userSpaceOnUse" x="12" y="12" width="81" height="80">
<circle cx="52.3206" cy="52" r="40" fill="#FFFFFF"/>
</mask>
<g mask="url(#mask0)">
<g filter="url(#filter0_d)">
<circle cx="52.3206" cy="52" r="40"/>
</g>
<path fill-rule="evenodd" clip-rule="evenodd" d="M52.0834 35.3951C49.9728 35.3951 47.883 35.8076 45.9331 36.6093C43.9832 37.4109 42.2115 38.5858 40.7192 40.067L37.3233 43.4374V38.671C37.3233 37.9369 36.7237 37.3417 35.9841 37.3417C35.2444 37.3417 34.6448 37.9369 34.6448 38.671L34.6448 46.646C34.6448 46.6462 34.6448 46.6464 34.6448 46.6466C34.6448 46.8297 34.6821 47.0041 34.7495 47.1628C34.8086 47.302 34.8925 47.4332 35.0014 47.5498C35.0253 47.5754 35.0502 47.6 35.076 47.6236C35.3147 47.8423 35.6337 47.9758 35.9841 47.9758H44.0198C44.7594 47.9758 45.3591 47.3807 45.3591 46.6466C45.3591 45.9124 44.7594 45.3173 44.0198 45.3173H39.2174L42.6132 41.9469C43.8568 40.7126 45.3333 39.7334 46.9581 39.0654C48.583 38.3974 50.3246 38.0536 52.0834 38.0536C53.8422 38.0536 55.5837 38.3974 57.2086 39.0654C58.8335 39.7334 60.3099 40.7126 61.5536 41.9469C62.0766 42.466 62.9246 42.466 63.4476 41.9469C63.9706 41.4278 63.9706 40.5861 63.4476 40.067C61.9552 38.5858 60.1835 37.4109 58.2337 36.6093C56.2838 35.8076 54.1939 35.3951 52.0834 35.3951Z" fill="white"/>
<path fill-rule="evenodd" clip-rule="evenodd" d="M60.1468 54.7165C59.4072 54.7165 58.8076 55.3116 58.8076 56.0458C58.8076 56.7799 59.4072 57.375 60.1468 57.375H64.9496L61.5538 60.7454C60.3101 61.9798 58.8337 62.9589 57.2088 63.6269C55.5839 64.2949 53.8424 64.6388 52.0836 64.6388C50.3248 64.6388 48.5832 64.2949 46.9584 63.6269C45.3335 62.9589 43.857 61.9798 42.6134 60.7454C42.0904 60.2263 41.2424 60.2263 40.7194 60.7454C40.1963 61.2646 40.1963 62.1062 40.7194 62.6253C42.2117 64.1065 43.9834 65.2815 45.9333 66.0831C47.8832 66.8847 49.973 67.2973 52.0836 67.2973C54.1941 67.2973 56.284 66.8847 58.2339 66.0831C60.1837 65.2815 61.9554 64.1065 63.4478 62.6253L66.8433 59.2552V64.0213C66.8433 64.7555 67.4429 65.3506 68.1826 65.3506C68.9222 65.3506 69.5218 64.7555 69.5218 64.0213V56.0756C69.5297 55.7256 69.3991 55.373 69.1299 55.1059C68.9783 54.9554 68.7994 54.8485 68.609 54.7853C68.4751 54.7407 68.3317 54.7165 68.1826 54.7165H60.1468Z" fill="white"/>
</g>
<defs>
<filter id="filter0_d" x="0.752445" y="0.431889" width="103.136" height="103.136" filterUnits="userSpaceOnUse" color-interpolation-filters="sRGB">
<feFlood flood-opacity="0" result="BackgroundImageFix"/>
<feColorMatrix in="SourceAlpha" type="matrix" values="0 0 0 0 0 0 0 0 0 0 0 0 0 0 0 0 0 0 127 0" result="hardAlpha"/>
<feOffset/>
<feGaussianBlur stdDeviation="5.78406"/>
<feColorMatrix type="matrix" values="0 0 0 0 0 0 0 0 0 0 0 0 0 0 0 0 0 0 0.1 0"/>
<feBlend mode="normal" in2="BackgroundImageFix" result="effect1_dropShadow"/>
<feBlend mode="normal" in="SourceGraphic" in2="effect1_dropShadow" result="shape"/>
</filter>
</defs>
</svg>
