<svg width="20" height="20" viewBox="0 0 20 20" fill="none" xmlns="http://www.w3.org/2000/svg">
<path fill-rule="evenodd" clip-rule="evenodd" d="M0.32698 1.63803C0 2.27976 0 3.11984 0 4.8V15.2C0 16.8802 0 17.7202 0.32698 18.362C0.614601 18.9265 1.07354 19.3854 1.63803 19.673C2.27976 20 3.11984 20 4.8 20H9.0411V12.8946H6.66667V10.4618H9.0411V8.60769C9.0411 6.49843 10.4373 5.33333 12.5733 5.33333C13.5965 5.33333 14.6667 5.49771 14.6667 5.49771V7.56884H13.4875C12.3258 7.56884 11.9635 8.21829 11.9635 8.88384V10.4618H14.5571L14.1425 12.8946H11.9635V20H15.2C16.8802 20 17.7202 20 18.362 19.673C18.9265 19.3854 19.3854 18.9265 19.673 18.362C20 17.7202 20 16.8802 20 15.2V4.8C20 3.11984 20 2.27976 19.673 1.63803C19.3854 1.07354 18.9265 0.614601 18.362 0.32698C17.7202 0 16.8802 0 15.2 0H4.8C3.11984 0 2.27976 0 1.63803 0.32698C1.07354 0.614601 0.614601 1.07354 0.32698 1.63803Z" fill="#0D009D"/>
</svg>
