<svg width="20" height="20" viewBox="0 0 20 20" fill="none" xmlns="http://www.w3.org/2000/svg">
<path fill-rule="evenodd" clip-rule="evenodd" d="M0.32698 1.63803C0 2.27976 0 3.11984 0 4.8V15.2C0 16.8802 0 17.7202 0.32698 18.362C0.614601 18.9265 1.07354 19.3854 1.63803 19.673C2.27976 20 3.11984 20 4.8 20H15.2C16.8802 20 17.7202 20 18.362 19.673C18.9265 19.3854 19.3854 18.9265 19.673 18.362C20 17.7202 20 16.8802 20 15.2V4.8C20 3.11984 20 2.27976 19.673 1.63803C19.3854 1.07354 18.9265 0.614601 18.362 0.32698C17.7202 0 16.8802 0 15.2 0H4.8C3.11984 0 2.27976 0 1.63803 0.32698C1.07354 0.614601 0.614601 1.07354 0.32698 1.63803ZM14.7789 7.96134C14.7789 11.0755 12.3021 14.6667 7.77376 14.6667V14.6648C6.43596 14.6665 5.12592 14.2997 4 13.6081C4.64461 13.6825 5.29822 13.6345 5.92344 13.4669C6.54866 13.2993 7.13322 13.0153 7.64368 12.6313C7.12991 12.622 6.63202 12.4592 6.21962 12.1658C5.80721 11.8724 5.50091 11.4629 5.34352 10.9947C5.71244 11.0627 6.09274 11.0489 6.4552 10.9542C5.89803 10.8465 5.39695 10.5576 5.03694 10.1365C4.67693 9.71549 4.48016 9.18819 4.48 8.64409V8.61423C4.82232 8.79703 5.20562 8.89821 5.59744 8.9092C5.07617 8.57602 4.70716 8.06519 4.56555 7.48072C4.42394 6.89625 4.52036 6.2821 4.8352 5.76329C5.45338 6.49126 6.22458 7.08666 7.09873 7.51084C7.97288 7.93503 8.93045 8.17853 9.90928 8.22553C9.78677 7.72031 9.84163 7.19052 10.0654 6.71816C10.2891 6.24579 10.6693 5.85717 11.147 5.61245C11.6247 5.36772 12.1734 5.28052 12.7081 5.36435C13.2428 5.44818 13.7338 5.69837 14.105 6.07619C14.6563 5.97215 15.185 5.77869 15.6683 5.50416C15.4846 6.04991 15.0999 6.51315 14.5859 6.80764C15.074 6.75252 15.5507 6.62754 16 6.43686C15.6695 6.91005 15.2535 7.32311 14.7717 7.65672C14.7789 7.7578 14.7789 7.85934 14.7789 7.96134Z" fill="#0D009D"/>
</svg>
